<?xml version="1.0" standalone="no"?>
<!DOCTYPE svg PUBLIC "-//W3C//DTD SVG 20010904//EN"
 "http://www.w3.org/TR/2001/REC-SVG-20010904/DTD/svg10.dtd">
<svg version="1.0" xmlns="http://www.w3.org/2000/svg"
 width="1280.000000pt" height="719.000000pt" viewBox="0 0 1280.000000 719.000000"
 preserveAspectRatio="xMidYMid meet">
<metadata>
Created by potrace 1.16, written by Peter Selinger 2001-2019
</metadata>
<g transform="translate(0.000000,719.000000) scale(0.100000,-0.100000)"
fill="#000000" stroke="none">
<path d="M6917 6926 c-173 -31 -329 -95 -490 -202 -299 -200 -437 -434 -438
-746 0 -96 22 -292 34 -305 2 -2 12 0 22 3 14 6 16 15 10 59 -34 273 -20 405
57 560 123 246 414 470 706 545 239 61 499 43 682 -48 103 -50 216 -164 290
-290 30 -51 58 -96 62 -98 4 -3 8 15 8 41 0 113 -153 315 -294 387 -56 29
-168 66 -251 84 -99 22 -303 26 -398 10z"/>
<path d="M3364 6584 c-87 -60 -111 -120 -178 -449 -31 -148 -84 -385 -119
-525 -63 -250 -168 -632 -173 -627 -8 8 -118 584 -144 757 -81 536 -103 647
-146 731 -66 131 -199 156 -293 54 -91 -99 -126 -224 -206 -746 -30 -196 -69
-394 -124 -630 -112 -481 -131 -587 -146 -804 -13 -204 51 -315 185 -315 77 0
119 30 161 115 28 57 36 92 57 248 13 100 58 351 99 557 42 206 78 389 81 405
3 20 26 -76 68 -285 94 -468 187 -842 225 -905 95 -157 257 -133 347 50 35 71
90 239 126 385 40 159 230 830 236 830 3 0 20 -105 38 -233 44 -304 164 -946
192 -1020 45 -121 116 -181 202 -174 95 8 178 104 178 206 0 25 -33 196 -74
380 -117 529 -152 726 -206 1166 -52 428 -60 488 -81 574 -48 195 -115 281
-220 281 -33 0 -57 -7 -85 -26z"/>
<path d="M5169 6488 c-98 -107 -335 -531 -594 -1063 -72 -148 -137 -284 -144
-301 -8 -21 -25 -37 -51 -49 -72 -33 -85 -55 -86 -153 -1 -80 -5 -98 -56 -227
-115 -290 -137 -391 -102 -473 32 -77 95 -122 171 -122 56 0 99 23 136 72 23
30 172 395 212 515 9 29 20 55 25 58 13 8 206 34 380 50 91 9 179 18 197 21
28 5 33 3 37 -17 76 -342 165 -585 245 -669 34 -36 43 -40 86 -40 114 0 189
116 172 263 -4 28 -29 123 -56 211 -62 197 -164 735 -281 1472 -59 372 -78
426 -162 470 -48 25 -95 18 -129 -18z m6 -1021 c19 -126 35 -237 35 -247 0
-15 -10 -20 -52 -24 -29 -3 -105 -11 -169 -18 l-116 -13 16 36 c69 156 246
518 248 508 2 -8 19 -117 38 -242z"/>
<path d="M7940 6354 c0 -4 37 -46 83 -93 131 -136 209 -264 261 -430 91 -288
24 -616 -169 -828 -82 -90 -141 -133 -264 -193 -59 -29 -119 -68 -153 -99 -52
-48 -57 -50 -89 -41 -58 17 -76 10 -25 -10 26 -10 56 -26 65 -34 10 -9 22 -16
28 -16 19 0 104 -100 126 -148 31 -68 31 -189 -1 -254 -31 -63 -96 -126 -162
-157 -48 -23 -68 -26 -156 -26 -94 0 -104 2 -168 34 -117 60 -185 159 -196
286 -5 58 -8 65 -14 42 -15 -49 0 -153 29 -212 117 -240 462 -291 648 -96 75
79 100 147 95 261 -3 73 -9 94 -38 148 -31 59 -66 98 -119 133 -24 15 -22 17
173 148 108 74 220 156 247 184 175 178 272 472 240 728 -28 218 -110 403
-243 544 -70 74 -198 157 -198 129z"/>
<path d="M6665 6334 c-38 -8 -113 -36 -165 -61 -82 -39 -108 -58 -185 -137
-78 -78 -99 -107 -148 -202 -50 -98 -55 -113 -40 -119 10 -3 19 -2 21 3 1 5 9
17 16 28 13 17 14 16 21 -14 3 -17 11 -34 16 -38 5 -3 0 -17 -11 -31 -49 -62
-12 -157 80 -207 140 -76 288 -21 266 99 -10 51 -78 117 -144 139 -63 21 -102
51 -102 79 0 16 -3 18 -12 9 -10 -10 -10 -20 0 -45 l11 -32 -19 24 c-11 13
-20 32 -20 42 0 10 -4 19 -10 19 -13 0 -13 -46 1 -73 8 -17 5 -16 -15 6 -14
15 -26 35 -26 43 0 8 -5 12 -11 9 -17 -11 29 74 77 142 63 88 146 158 249 209
131 64 196 79 350 78 102 0 157 -6 256 -27 147 -31 264 -35 351 -11 68 19 77
36 16 28 -24 -3 -149 8 -280 25 -264 34 -428 39 -543 15z m-269 -588 c77 -36
119 -100 94 -145 -15 -29 -28 -26 -22 4 11 62 -46 117 -101 96 -32 -12 -47
-39 -47 -85 0 -20 -3 -36 -7 -36 -17 0 -66 39 -84 66 -63 96 42 158 167 100z"/>
<path d="M7635 6271 c-157 -56 -299 -161 -386 -284 -65 -93 -92 -178 -92 -287
1 -130 40 -232 141 -364 42 -55 47 -58 79 -53 38 7 123 -16 169 -44 57 -34 70
-102 31 -160 -46 -69 -147 -100 -198 -61 -13 10 -41 31 -61 46 l-37 27 6 -88
5 -88 -43 -80 c-36 -68 -43 -89 -43 -140 -1 -66 15 -102 60 -131 21 -15 31
-15 67 -4 102 30 134 104 113 265 -7 54 -6 63 14 88 12 15 43 38 68 51 129 66
160 190 75 302 -30 40 -61 53 -140 58 -81 5 -109 26 -167 124 -101 169 -110
318 -29 480 41 82 114 149 276 256 81 53 147 99 147 101 0 3 -1 5 -2 4 -2 0
-26 -8 -53 -18z m-252 -1435 c15 -37 19 -134 7 -157 -21 -41 -53 -69 -77 -69
-20 0 -30 12 -55 65 l-30 65 47 55 c36 43 53 55 75 55 15 0 30 -6 33 -14z"/>
<path d="M6577 5980 c-34 -27 -37 -80 -7 -110 49 -49 139 -3 126 65 -4 16 -12
35 -19 42 -24 25 -70 26 -100 3z"/>
<path d="M6947 5648 c-15 -16 -27 -19 -55 -14 -117 18 -153 18 -195 2 -75 -28
-104 -76 -86 -141 19 -68 106 -115 213 -115 104 0 160 41 161 116 0 33 4 46
18 50 19 6 53 51 44 60 -3 3 -15 -4 -26 -15 -12 -12 -31 -21 -42 -21 -21 0
-20 1 5 21 14 11 26 30 26 42 l0 21 -20 -22 c-12 -12 -26 -22 -32 -22 -6 0 -4
8 5 18 18 19 23 43 10 41 -5 0 -16 -10 -26 -21z m-104 -50 c48 -14 107 -67
107 -96 0 -11 -9 -30 -21 -43 -17 -20 -20 -21 -15 -5 4 10 2 34 -5 53 -20 60
-73 70 -121 23 -27 -27 -30 -36 -25 -70 3 -22 3 -40 1 -40 -10 0 -70 33 -88
49 -91 80 26 171 167 129z"/>
<path d="M5991 5416 c-26 -71 -40 -209 -30 -316 15 -164 96 -333 240 -499 62
-72 83 -89 145 -118 40 -18 96 -38 123 -45 37 -8 51 -16 51 -29 0 -9 -7 -19
-15 -23 -35 -13 -7 -178 39 -233 17 -21 23 -36 19 -56 -6 -29 19 -67 44 -67
21 0 53 38 53 63 0 19 8 26 40 36 45 13 146 102 191 167 29 43 38 87 19 99 -5
3 -10 14 -10 24 0 13 16 22 61 35 33 9 83 28 110 41 50 26 119 81 119 96 0 4
-30 -6 -67 -22 -189 -85 -321 -121 -453 -122 -168 -2 -289 52 -426 187 -133
132 -213 274 -245 435 -15 76 -7 274 14 349 20 68 4 67 -22 -2z m872 -1028
c-37 -71 -147 -181 -196 -197 -35 -12 -41 -11 -61 8 -27 25 -42 71 -51 156
l-6 60 123 1 c98 2 180 10 216 23 2 1 -9 -23 -25 -51z"/>
<path d="M6408 5402 c-98 -101 -138 -159 -138 -201 0 -111 170 -152 263 -63
36 35 34 46 -5 26 -60 -31 -208 -2 -208 41 0 8 20 42 45 75 50 69 109 169 103
175 -2 3 -29 -21 -60 -53z"/>
<path d="M6260 4922 c0 -15 103 -111 139 -129 21 -10 57 -18 87 -17 60 0 106
29 155 98 l31 41 -89 6 c-129 10 -323 10 -323 1z"/>
<path d="M1313 4010 c-187 -33 -343 -169 -404 -350 -39 -116 -25 -358 26 -445
l23 -41 -37 -59 c-83 -134 -133 -295 -153 -496 -32 -329 77 -651 302 -892 54
-58 84 -80 141 -107 40 -18 94 -35 119 -38 41 -4 49 -8 66 -39 23 -44 115
-127 188 -172 186 -112 383 -128 590 -49 77 30 88 32 231 32 142 1 153 2 205
28 39 19 70 45 105 89 33 42 85 87 155 135 157 109 211 177 246 307 41 153 -6
391 -108 550 -28 44 -31 56 -29 117 5 151 -38 334 -111 470 -94 177 -256 323
-469 422 -112 52 -187 70 -316 76 l-121 4 -23 70 c-80 248 -375 432 -626 388z
m172 -45 c39 -8 103 -31 143 -50 128 -64 253 -212 280 -332 l9 -41 -59 -6
c-45 -6 -67 -14 -91 -36 -41 -36 -32 -45 24 -23 65 25 387 25 479 0 195 -53
402 -206 514 -376 50 -77 91 -167 116 -257 20 -69 45 -252 36 -261 -3 -3 -31
48 -63 113 -54 114 -62 124 -173 234 -202 201 -325 250 -661 266 l-136 7 -12
49 c-16 59 -83 153 -137 190 -189 130 -403 114 -595 -45 -36 -31 -88 -83 -114
-116 -26 -34 -52 -61 -57 -61 -38 0 -76 233 -57 351 29 188 185 353 372 394
81 17 98 18 182 0z m169 -514 c123 -59 216 -190 201 -281 -10 -61 -82 -158
-213 -288 -154 -153 -169 -182 -183 -348 -11 -136 -32 -193 -98 -264 -33 -35
-41 -51 -38 -72 3 -24 0 -28 -19 -28 -34 0 -69 -16 -93 -41 -30 -33 -29 -104
3 -144 22 -27 22 -31 10 -62 -27 -63 -11 -157 34 -206 9 -11 34 -28 55 -38 47
-25 51 -54 6 -45 -72 14 -150 59 -205 119 -144 156 -232 318 -282 522 -26 106
-23 379 5 501 45 190 110 315 252 481 132 153 262 222 420 223 72 0 92 -4 145
-29z m478 -310 c254 -21 427 -115 597 -326 71 -87 82 -107 71 -124 -6 -11 -12
-7 -23 15 -44 83 -146 144 -242 143 -114 0 -194 -50 -244 -151 -26 -51 -31
-73 -31 -134 l0 -73 -32 -3 c-24 -2 -38 -12 -55 -37 -13 -19 -23 -29 -23 -23
0 6 -23 34 -50 61 -88 88 -221 112 -336 62 -100 -45 -174 -156 -174 -262 0
-55 -1 -57 -31 -63 -17 -3 -63 -6 -101 -6 l-69 0 30 38 c50 62 70 122 82 239
11 114 21 164 42 200 7 12 66 78 133 145 128 131 195 219 214 284 l12 40 56
-8 c32 -4 110 -12 174 -17z m470 -333 c53 -16 123 -80 155 -142 74 -143 -3
-328 -154 -372 -146 -43 -297 75 -311 242 -14 185 142 323 310 272z m252 -195
c15 -32 53 -96 84 -143 68 -104 96 -166 123 -273 39 -147 15 -311 -61 -413
-16 -22 -80 -77 -142 -121 -62 -45 -146 -115 -187 -157 -96 -98 -137 -113
-271 -97 -101 13 -105 12 -250 -37 -79 -26 -128 -36 -195 -40 -116 -6 -185 9
-293 63 -161 81 -316 255 -226 255 87 0 140 76 131 187 -11 141 -128 216 -262
168 -22 -8 -41 -15 -42 -15 -5 0 -33 60 -33 70 0 6 11 22 25 35 20 20 34 25
78 25 62 0 85 16 68 48 -6 11 -7 22 -4 26 3 3 49 6 102 6 l96 0 19 -47 c35
-84 148 -173 220 -173 29 0 39 -10 25 -27 -15 -18 -10 -17 47 8 34 16 69 22
117 22 41 0 63 3 55 8 -7 5 -24 9 -38 9 -25 0 -25 0 5 19 17 10 50 40 73 66
55 62 77 135 68 219 -4 34 -7 70 -7 80 0 30 35 71 63 74 20 2 28 -3 38 -29 8
-17 42 -68 77 -112 103 -129 124 -185 83 -222 -28 -26 -124 -32 -172 -12 -35
15 -48 13 -48 -5 0 -18 71 -38 133 -38 90 0 131 27 135 90 2 33 -4 58 -22 92
l-24 46 31 -9 c45 -13 97 -11 150 5 44 13 46 13 37 -4 -6 -10 -10 -27 -10 -37
1 -12 8 -5 20 18 28 53 75 89 116 89 21 0 33 4 29 10 -3 6 -18 10 -31 10 -14
0 -24 3 -22 8 51 98 69 187 51 252 -10 35 -7 60 6 60 4 0 19 -26 35 -57z
m-866 -89 c175 -71 222 -300 90 -435 -50 -50 -102 -72 -179 -77 -105 -6 -191
41 -247 137 -23 40 -27 57 -27 126 0 57 5 89 18 112 72 133 215 190 345 137z
m-531 -569 c46 -31 64 -74 61 -143 -5 -83 -26 -106 -96 -104 -103 2 -162 54
-162 142 0 58 29 106 72 119 41 13 93 7 125 -14z"/>
<path d="M1836 2720 c-51 -16 -103 -81 -90 -114 9 -23 16 -20 50 15 46 49 69
54 120 24 54 -32 74 -32 74 -2 0 32 -33 64 -77 76 -43 12 -38 12 -77 1z"/>
<path d="M2473 2660 c-150 -35 -146 -223 5 -238 92 -8 162 48 162 132 0 30 -7
45 -34 72 -19 19 -43 34 -54 34 -11 0 -26 2 -34 4 -7 2 -28 0 -45 -4z m108
-59 c17 -17 29 -40 29 -55 l0 -26 -20 20 c-45 45 -117 7 -107 -56 7 -39 6 -39
-38 -18 -36 17 -60 61 -50 93 12 39 63 71 112 71 36 0 50 -6 74 -29z"/>
<path d="M2550 1874 c-99 -79 -206 -113 -355 -114 l-90 -1 35 -19 c59 -33 159
-60 219 -60 102 1 172 49 218 149 34 76 27 88 -27 45z"/>
<path d="M1904 2436 c-47 -21 -74 -61 -74 -113 0 -97 113 -148 213 -97 34 18
67 70 67 104 -1 90 -112 147 -206 106z m149 -56 c35 -39 37 -69 2 -35 -30 30
-54 31 -89 4 -31 -25 -34 -61 -6 -89 l20 -20 -31 0 c-36 0 -89 47 -89 80 0 90
130 131 193 60z"/>
<path d="M1327 1902 c-51 -57 22 -182 106 -182 34 0 67 32 67 65 0 40 -37 103
-70 120 -39 20 -83 19 -103 -3z"/>
<path d="M6815 3986 c-17 -7 -45 -27 -62 -45 -58 -58 -82 -129 -139 -410 -84
-418 -278 -1169 -295 -1140 -21 40 -111 518 -169 909 -84 560 -129 670 -278
670 -161 0 -235 -149 -312 -625 -17 -104 -41 -257 -54 -340 -14 -82 -60 -305
-104 -495 -99 -427 -108 -473 -127 -635 -28 -239 -16 -337 48 -407 73 -80 201
-71 262 19 40 59 62 145 85 328 21 170 31 226 116 640 71 347 57 349 129 -10
35 -170 75 -359 90 -420 14 -60 42 -174 61 -253 38 -159 53 -201 90 -250 36
-47 81 -72 131 -72 149 0 211 108 338 587 30 115 92 341 138 503 82 288 84
294 91 245 35 -247 87 -557 140 -843 56 -300 69 -350 101 -417 47 -98 94 -135
170 -135 86 0 153 55 181 148 19 64 20 55 -62 427 -125 562 -161 773 -229
1350 -50 426 -84 552 -167 632 -55 52 -113 66 -173 39z"/>
<path d="M9086 3990 c-44 -14 -101 -76 -130 -140 -16 -35 -44 -147 -71 -277
-73 -363 -144 -655 -247 -1022 -44 -156 -53 -179 -60 -155 -22 77 -110 539
-133 694 -54 359 -96 601 -119 679 -41 143 -97 201 -194 201 -63 0 -98 -16
-142 -66 -76 -87 -120 -249 -190 -704 -37 -237 -74 -421 -135 -685 -99 -424
-122 -550 -137 -745 -10 -129 -9 -151 6 -205 35 -118 137 -180 231 -140 52 21
73 41 100 95 33 65 42 106 70 311 21 159 169 926 181 938 2 2 4 -6 4 -18 0
-93 224 -1082 264 -1166 49 -104 104 -142 192 -132 128 14 187 122 305 562
126 471 226 811 232 785 4 -14 20 -121 37 -238 35 -242 38 -258 113 -657 33
-173 65 -316 80 -352 50 -123 107 -169 203 -161 68 6 114 40 150 113 36 74 34
90 -60 510 -115 518 -150 722 -211 1240 -19 165 -40 327 -46 360 -29 171 -85
306 -146 352 -37 28 -100 38 -147 23z"/>
<path d="M4459 3859 c-110 -132 -250 -382 -536 -956 -118 -238 -219 -433 -224
-433 -21 0 -88 -53 -98 -78 -6 -15 -10 -58 -9 -97 2 -63 -2 -82 -48 -200 -82
-207 -116 -315 -121 -382 -5 -54 -2 -70 22 -118 64 -131 220 -151 297 -39 25
37 140 313 203 489 16 44 33 83 38 87 15 10 135 26 363 48 115 11 217 23 226
26 12 4 19 -2 23 -18 97 -426 189 -653 286 -703 48 -26 103 -12 153 39 83 83
86 187 12 412 -33 99 -62 222 -101 429 -78 416 -140 769 -190 1092 -49 311
-67 371 -131 419 -20 16 -52 29 -77 31 -42 5 -45 4 -88 -48z m37 -1137 c9 -67
14 -125 10 -129 -3 -4 -66 -13 -139 -20 -72 -6 -146 -15 -164 -18 l-32 -6 108
228 c60 125 119 253 132 283 l24 55 21 -135 c12 -74 30 -190 40 -258z"/>
<path d="M10848 3861 c-85 -96 -236 -359 -473 -826 -78 -154 -170 -341 -205
-416 -61 -129 -67 -137 -112 -162 -63 -36 -82 -73 -74 -149 5 -53 1 -69 -53
-210 -88 -231 -121 -340 -121 -405 0 -136 111 -235 229 -203 71 19 106 73 199
306 45 115 91 237 103 271 12 36 27 64 37 67 36 11 155 26 357 46 116 11 217
23 226 25 12 4 22 -24 52 -145 50 -199 89 -316 142 -425 73 -150 135 -189 225
-143 31 16 54 39 75 72 27 45 30 57 29 135 -1 74 -8 108 -52 246 -38 122 -65
238 -111 485 -90 486 -126 695 -176 1015 -40 259 -48 297 -77 355 -25 49 -43
70 -73 87 -65 37 -96 31 -147 -26z m16 -1017 c21 -135 35 -248 32 -251 -3 -3
-65 -12 -138 -19 -73 -7 -148 -16 -166 -19 -19 -4 -32 -3 -30 2 3 4 60 126
128 271 68 144 126 262 130 262 3 0 23 -111 44 -246z"/>
<path d="M1970 795 l0 -305 30 0 30 0 0 140 0 140 65 0 c63 0 65 1 65 25 0 24
-2 25 -65 25 l-65 0 0 110 0 110 70 0 70 0 0 30 0 30 -100 0 -100 0 0 -305z"/>
<path d="M2950 795 l0 -305 35 0 35 0 0 140 0 140 65 0 c63 0 65 1 65 25 0 24
-2 25 -65 25 l-65 0 0 110 0 110 70 0 70 0 0 30 0 30 -105 0 -105 0 0 -305z"/>
<path d="M4050 795 l0 -305 30 0 30 0 0 159 0 158 38 7 c78 12 72 25 72 -159
l0 -165 30 0 30 0 0 179 c0 212 3 206 -100 199 l-70 -5 0 118 0 119 -30 0 -30
0 0 -305z"/>
<path d="M5260 985 l0 -115 -60 0 c-96 0 -100 -8 -100 -190 0 -191 -1 -190
130 -189 l90 1 0 304 0 304 -30 0 -30 0 0 -115z m0 -305 l0 -140 -34 0 c-66 0
-66 -1 -66 140 0 140 -1 138 63 139 l37 1 0 -140z"/>
<path d="M5560 795 l0 -305 86 0 c89 0 118 8 146 44 16 19 18 49 18 261 0 212
-2 242 -18 261 -28 36 -57 44 -146 44 l-86 0 0 -305z m172 228 c16 -15 18 -35
18 -228 0 -242 0 -243 -85 -252 l-45 -6 0 252 0 251 47 0 c29 0 53 -6 65 -17z"/>
<path d="M6190 795 l0 -305 30 0 30 0 0 305 0 305 -30 0 -30 0 0 -305z"/>
<path d="M7940 795 l0 -305 30 0 30 0 0 145 0 145 70 0 70 0 0 -145 0 -145 30
0 30 0 0 305 0 305 -30 0 -30 0 0 -130 0 -130 -70 0 -70 0 0 130 0 130 -30 0
-30 0 0 -305z"/>
<path d="M9490 795 l0 -305 35 0 35 0 0 140 0 140 65 0 c63 0 65 1 65 25 0 24
-2 25 -65 25 l-65 0 0 110 0 110 70 0 70 0 0 30 0 30 -105 0 -105 0 0 -305z"/>
<path d="M10510 985 l0 -115 -59 0 c-52 0 -62 -3 -80 -26 -19 -24 -21 -40 -21
-164 0 -123 2 -140 20 -163 20 -25 25 -26 115 -26 l95 1 0 304 0 304 -35 0
-35 0 0 -115z m0 -305 l0 -140 -38 0 c-21 0 -43 5 -50 12 -17 17 -17 239 0
256 7 7 29 12 50 12 l38 0 0 -140z"/>
<path d="M3793 870 c-21 -8 -23 -16 -23 -73 l0 -64 75 -62 c67 -56 75 -66 75
-97 0 -34 0 -34 -45 -34 l-45 0 0 45 c0 43 -1 45 -30 45 l-30 0 0 -64 c0 -49
4 -65 16 -70 29 -11 169 -7 182 6 7 7 12 39 12 75 l0 63 -75 61 c-61 51 -75
67 -75 90 0 28 2 29 45 29 45 0 45 0 45 -35 0 -32 2 -35 30 -35 30 0 30 1 30
55 0 50 -2 56 -26 65 -31 12 -131 12 -161 0z"/>
<path d="M7525 873 c-28 -8 -35 -21 -35 -73 0 -56 12 -73 95 -141 56 -46 65
-57 65 -86 0 -33 0 -33 -50 -33 l-50 0 0 45 c0 43 -1 45 -30 45 -30 0 -30 0
-30 -58 0 -32 5 -63 12 -70 8 -8 45 -12 100 -12 101 0 108 5 108 90 0 56 -7
65 -112 148 -35 28 -47 44 -48 65 0 26 2 27 50 27 l50 0 0 -35 c0 -32 2 -35
30 -35 29 0 30 2 30 43 0 67 -16 81 -96 83 -38 2 -78 0 -89 -3z"/>
<path d="M10673 870 c-21 -8 -23 -16 -23 -73 l0 -64 75 -62 c67 -56 75 -66 75
-97 0 -34 0 -34 -45 -34 l-45 0 0 45 c0 43 -1 45 -30 45 l-30 0 0 -64 c0 -49
4 -65 16 -70 29 -11 169 -7 182 6 7 7 12 39 12 74 l0 63 -75 61 c-62 51 -75
66 -75 91 0 28 2 29 45 29 45 0 45 0 45 -35 0 -32 2 -35 30 -35 30 0 30 1 30
55 0 50 -2 56 -26 65 -31 12 -131 12 -161 0z"/>
<path d="M2242 858 c-15 -15 -17 -320 -2 -349 9 -17 22 -19 105 -19 83 0 96 2
105 19 15 29 13 334 -2 349 -8 8 -46 12 -103 12 -57 0 -95 -4 -103 -12z m158
-178 l0 -140 -55 0 -55 0 0 140 0 140 55 0 55 0 0 -140z"/>
<path d="M2530 679 l0 -189 30 0 30 0 0 159 0 159 31 6 c56 11 59 9 59 -34 0
-38 2 -40 30 -40 30 0 30 1 30 54 0 32 -5 58 -13 65 -8 6 -52 10 -105 10 l-92
-1 0 -189z"/>
<path d="M3210 679 l0 -189 30 0 30 0 0 159 0 159 31 6 c56 11 59 9 59 -34 0
-38 2 -40 30 -40 30 0 30 1 30 53 0 28 -4 58 -8 64 -6 9 -38 12 -105 12 l-97
-1 0 -189z"/>
<path d="M3485 858 c-3 -8 -4 -92 -3 -188 l3 -175 100 0 100 0 3 58 3 57 -31
0 c-28 0 -30 -3 -30 -35 l0 -35 -50 0 -50 0 0 65 0 64 78 3 77 3 0 95 0 95
-98 3 c-73 2 -99 0 -102 -10z"/>
<path d="M4516 854 c-3 -9 -6 -33 -6 -55 0 -37 2 -39 30 -39 27 0 30 3 30 30
0 29 1 30 50 30 l50 0 0 -49 0 -49 -76 -4 c-52 -2 -78 -8 -84 -18 -13 -20 -13
-167 0 -190 9 -18 22 -20 115 -18 l105 1 0 169 c0 98 -4 178 -10 189 -9 17
-22 19 -104 19 -76 0 -95 -3 -100 -16z"/>
<path d="M4800 679 l0 -189 30 0 30 0 0 160 c0 121 3 160 13 160 6 0 29 3 50
6 l37 7 0 -167 0 -166 35 0 35 0 0 171 c0 98 -4 179 -10 190 -10 17 -22 19
-115 18 l-105 -1 0 -189z"/>
<path d="M5901 851 c-16 -29 -14 -334 1 -349 16 -16 180 -16 196 0 7 7 12 34
12 60 0 47 -1 48 -30 48 -28 0 -30 -3 -30 -35 l0 -35 -50 0 -50 0 0 65 0 64
78 3 77 3 0 95 0 95 -97 3 c-88 2 -98 1 -107 -17z"/>
<path d="M6330 680 l0 -190 30 0 30 0 0 190 0 190 -30 0 -30 0 0 -190z"/>
<path d="M6477 864 c-4 -4 -7 -87 -7 -185 0 -208 -11 -192 125 -187 l80 3 3
68 3 67 -31 0 c-29 0 -30 -2 -30 -45 l0 -45 -45 0 -45 0 0 140 0 140 45 0 c45
0 45 0 45 -35 0 -32 2 -35 30 -35 l31 0 -3 58 -3 57 -95 3 c-53 1 -99 0 -103
-4z"/>
<path d="M6760 680 l0 -190 30 0 30 0 0 190 0 190 -30 0 -30 0 0 -190z"/>
<path d="M6907 864 c-4 -4 -7 -85 -7 -179 0 -136 3 -175 14 -184 9 -8 47 -11
107 -9 l94 3 0 185 0 185 -101 3 c-55 1 -103 0 -107 -4z m153 -184 l0 -140
-50 0 -50 0 0 140 0 140 50 0 50 0 0 -140z"/>
<path d="M7202 683 l3 -188 108 -2 107 -1 0 189 0 189 -30 0 -30 0 0 -159 0
-159 -50 -4 -50 -3 0 163 0 162 -30 0 -30 0 2 -187z"/>
<path d="M8292 858 c-8 -8 -12 -62 -12 -178 0 -116 4 -170 12 -178 8 -8 46
-12 105 -12 91 0 94 1 103 26 6 14 10 88 10 164 0 76 -4 150 -10 164 -9 25
-12 26 -103 26 -59 0 -97 -4 -105 -12z m148 -178 l0 -140 -50 0 -50 0 0 140 0
140 50 0 50 0 0 -140z"/>
<path d="M8580 679 l0 -189 30 0 30 0 0 160 0 160 34 0 c19 0 41 3 50 6 14 5
16 -13 16 -160 l0 -166 30 0 30 0 0 159 0 159 31 6 c73 14 69 24 69 -159 l0
-165 35 0 35 0 0 171 c0 94 -4 179 -10 189 -9 17 -25 18 -195 18 l-185 -1 0
-188z"/>
<path d="M9046 854 c-12 -31 -7 -339 6 -352 16 -16 180 -16 196 0 7 7 12 34
12 60 0 47 -1 48 -30 48 -28 0 -30 -3 -30 -35 l0 -35 -50 0 -50 0 0 65 0 64
78 3 77 3 3 83 c2 53 -1 89 -9 98 -18 21 -195 20 -203 -2z"/>
<path d="M9764 857 c-2 -7 -3 -91 -2 -187 l3 -175 94 -3 c60 -2 98 1 107 9 11
9 14 47 14 174 0 90 -3 170 -6 179 -5 13 -24 16 -105 16 -72 0 -101 -4 -105
-13z m156 -177 l0 -140 -50 0 -50 0 0 140 0 140 50 0 50 0 0 -140z"/>
<path d="M10060 851 c-5 -11 -10 -86 -10 -171 0 -85 5 -160 10 -171 9 -17 22
-19 103 -19 59 0 97 4 105 12 17 17 17 339 0 356 -8 8 -46 12 -105 12 -81 0
-94 -2 -103 -19z m160 -171 l0 -140 -55 0 -55 0 0 140 0 140 55 0 55 0 0 -140z"/>
</g>
</svg>
