<?xml version="1.0" encoding="utf-8"?>
<!-- Generator: Adobe Illustrator 24.3.0, SVG Export Plug-In . SVG Version: 6.00 Build 0)  -->
<svg version="1.1" id="Layer_1" xmlns="http://www.w3.org/2000/svg" xmlns:xlink="http://www.w3.org/1999/xlink" x="0px" y="0px"
	 viewBox="0 0 1080 1080" style="enable-background:new 0 0 1080 1080;" xml:space="preserve">
<style type="text/css">
	.st0{fill:none;stroke:#000000;stroke-width:2;stroke-miterlimit:10;}
	.st1{fill:none;stroke:#434343;stroke-width:2;stroke-miterlimit:10;stroke-dasharray:12;}
	.st2{fill:none;stroke:#666766;stroke-width:2;stroke-miterlimit:10;}
	.st3{fill:#FFFFFF;}
	.st4{fill:none;}
	.st5{stroke:#000000;stroke-miterlimit:10;}
	.st6{fill:none;stroke:#000000;stroke-width:7;stroke-linecap:round;stroke-miterlimit:10;}
	.st7{fill:none;stroke:#434343;stroke-width:2;stroke-miterlimit:10;stroke-dasharray:12.0323,12.0323;}
	.st8{fill:none;stroke:#434343;stroke-width:2;stroke-miterlimit:10;stroke-dasharray:11.907,11.907;}
	.st9{fill:none;stroke:#434343;stroke-width:2;stroke-miterlimit:10;stroke-dasharray:12.2435,12.2435;}
	.st10{fill:none;stroke:#434343;stroke-width:2;stroke-miterlimit:10;stroke-dasharray:11.4273,11.4273;}
	.st11{fill:none;stroke:#434343;stroke-width:2;stroke-miterlimit:10;stroke-dasharray:11.9838,11.9838;}
</style>
<g>
	<g>
		<g>
			<g>
				<g>
					<path d="M636.5,470.1c3,0.4,6,1,8.8,2.2c0.7,0.2,1.4,0.6,2.1,1c0.7,0.3,1.4,0.7,2,1.1c0.7,0.4,1.3,0.8,2,1.2l1.9,1.4
						c0.6,0.4,1.2,1,1.8,1.5c0.6,0.5,1.2,1,1.7,1.6c0.5,0.6,1.1,1.2,1.5,1.8l1.4,1.9c1.7,2.6,3.1,5.5,4,8.5c0.9,3.1,1.2,6.3,1.1,9.5
						c-0.2,3.2-0.9,6.3-2.1,9.4c-1.2,3-3,5.7-5.1,8.2c-2.1,2.4-4.6,4.5-7.3,6.2c-5.5,3.3-11.9,5-18.2,4.9l-2.4-0.1
						c-0.8,0-1.6-0.2-2.4-0.3c-1.6-0.2-3.1-0.6-4.6-1c-3-0.9-6-2.1-8.6-3.9c-0.7-0.4-1.3-0.9-1.9-1.3c-0.6-0.5-1.3-0.9-1.9-1.4
						c-0.6-0.5-1.2-1-1.8-1.6l-1.6-1.7c-2-2.4-3.8-5-5.1-7.8c-1.2-2.9-2.1-5.9-2.4-8.9c-0.1-1.5-0.2-3.1,0-4.6
						c0.1-1.5,0.4-3,0.7-4.5c-0.3,3-0.1,6,0.5,8.9c0.6,2.9,1.7,5.6,3.1,8.1c2.8,5.1,7.1,9.2,12.1,11.9c9.9,5.6,22.8,5.5,32.3-0.4
						c2.4-1.5,4.6-3.2,6.4-5.3c1.8-2.1,3.3-4.5,4.5-7c1.1-2.6,1.8-5.3,2.1-8.1c0.2-2.8,0-5.6-0.6-8.4c-0.6-2.8-1.8-5.4-3.2-7.9
						c-1.4-2.5-3.3-4.7-5.4-6.7c-2.1-2.1-4.5-3.7-7.1-5.2l-2-1c-0.7-0.3-1.4-0.6-2.1-0.9l-1-0.4c-0.3-0.1-0.7-0.2-1.1-0.3
						L636.5,470.1z"/>
				</g>
			</g>
		</g>
		<g>
			<g>
				<g>
					<path d="M697.3,355.2c-6.3-11.7-14.5-21.8-27.4-26.8c1.9,2.3,4.1,4.2,6.2,6.3c44.2,43.2,30.1,107.5-15,125.5
						c-6.1,2.4-11.7,7.3-16.2,12.5c0.7,0.9,1.3,1.7,2,2.7c0.5-0.5,1-0.9,1.5-1.4c5.8-4.7,12.4-8.4,18.5-12.8c7-5,15-9.2,20.6-15.4
						C709.8,421.2,713.4,384.9,697.3,355.2z"/>
				</g>
			</g>
		</g>
		<g>
			<g>
				<g>
					<path d="M508.2,385.8c-1-7.7-2.6-15.3-2.8-23c-0.6-27.6,12.7-48.1,34.5-63.2c28.7-20,60-25.9,93.3-13.1
						c13.5,5.2,22.5,15.9,28.6,28.9c1.3,2.7,1.6,5.9,1,9.4c-3.2-5.5-6.1-11.3-9.8-16.4c-11.7-16.2-28.1-23-47.6-24
						c-30.1-1.6-55.5,9-76.5,30c-16.1,16.1-22.5,36-19.4,58.8c0.6,4.1,1,8.2,1.5,12.3C510,385.5,509.1,385.6,508.2,385.8z"/>
				</g>
			</g>
		</g>
		<g>
			<g>
				<g>
					<path d="M648.2,334.9c-8.7,5.7-16.1,10-22.9,15c-18.5,13.4-22.6,37.1-9.9,56.3c3.5,5.4,6.1,10.7,14.9,9.8
						c7.6-0.8,13.4,5.9,14.5,12.9c1.2,7.8-2,13.1-9.9,16.7c-6.1,2.7-9.2,6.3-7.1,13.7c1.9,6.8,1.2,14-5.1,18.6
						c-2.4,1.8-6.9,3.1-9.1,1.9c-2.6-1.3-4.9-5.3-5.3-8.5c-0.5-3.6,0-8.5,2.1-11.1c6.2-7.4,5.9-15.1,4.1-24.3
						c3.4,2.5,6.6,5.5,10.3,7.4c3.8,1.9,13.3-2.4,15.4-6.7c2.6-5.3,2-10.8-2.8-14.2c-3.3-2.3-7.8-3-11.9-4c-1.6-0.4-3.5,0.5-5.2,0.7
						C585.2,381.2,612.8,346.1,648.2,334.9z M609.2,464.5c2.3,4.7,3.4,9.3,6.2,11.8c2.6,2.2,8.7-3.6,9.4-8.4c0.1-0.9,0.3-1.9,0-2.7
						c-1.3-3.8,1-10.8-5.4-10.3C616.2,455.1,613.3,460.5,609.2,464.5z"/>
				</g>
			</g>
		</g>
		<g>
			<g>
				<g>
					<path d="M606.6,477.4c-6.5,7.5-15.4,10.8-24.6,12.6c-14.4,2.8-28.9,3.5-43-2.3c-3.3-1.4-7-2.8-9.5-5.2
						c-19.5-19.2-31.2-41.4-25-69.9c0.7-3.3,2.1-6.4,3.7-9.5c-9.1,29.9-0.1,55.5,21.9,74.8C554.4,499.2,581.1,489.2,606.6,477.4z"/>
				</g>
			</g>
		</g>
		<g>
			<g>
				<g>
					<path d="M635.2,334c-15.1,6.8-28.7,1.9-42-0.7c-11.5-2.2-22.6-1.8-33.6,1.5c-16.8,5-29.1,15.5-37,31.1c-1.4,2.8-3,5.5-4.5,8.3
						c-0.6-0.3-1.2-0.6-1.8-0.9c3.2-6.1,5.7-12.8,9.8-18.3c15.2-20.5,36.4-27.7,61.2-25.4c12.9,1.2,25.6,3.2,38.5,4.7
						C628.2,334.6,630.9,334.1,635.2,334z"/>
				</g>
			</g>
		</g>
		<g>
			<g>
				<g>
					<path d="M553.4,428.2c-5,8.6-18,9.2-23.1,1.6c-1.1-1.7-1.5-5.2-0.5-6.7c4.5-6.7,9.7-12.9,16-18.4c-2.8,4.5-5.6,8.9-8.3,13.4
						c-2,3.2-7.7,6.5-3.2,10.1c3.3,2.6,9.1,2.3,13.8,2.6C549.7,430.9,551.6,429.1,553.4,428.2z"/>
				</g>
			</g>
		</g>
		<g>
			<g>
				<g>
					<path d="M597.3,375.1c-7.4-1.8-14.5-3.4-20.5-4.9C581.9,365.7,594,367.8,597.3,375.1z"/>
				</g>
			</g>
		</g>
		<g>
			<g>
				<g>
					<path d="M639.4,326.5c-6.6-2.6-12.3-4.9-17.9-7.1C628.3,319.3,635.3,318.7,639.4,326.5z"/>
				</g>
			</g>
		</g>
		<g>
			<g>
				<g>
					<path d="M543.5,367.6c-4-2.2-8.1-4.5-12-6.6C536.5,356.7,540.5,358.8,543.5,367.6z"/>
				</g>
			</g>
		</g>
		<g>
			<g>
				<g>
					<path d="M653.6,344.4c-2.9,5-5.8,9.9-8.6,14.8C643.2,352.9,646.8,346.9,653.6,344.4z"/>
				</g>
			</g>
		</g>
		<g>
			<g>
				<g>
					<path d="M571.5,410.6c-8.7-1.6-14.8-7.7-13.7-13.7c1.1-6,9-9.6,17.7-8.1c8.7,1.6,14.8,7.7,13.7,13.7S580.1,412.1,571.5,410.6z
						 M574.9,391.3c-7.3-1.3-13.9,1.4-14.7,6c-0.8,4.6,4.4,9.5,11.7,10.8c7.3,1.3,13.9-1.4,14.7-6
						C587.5,397.4,582.2,392.6,574.9,391.3z"/>
				</g>
			</g>
		</g>
		<g>
			<g>
				<g>
					<ellipse transform="matrix(0.1778 -0.9841 0.9841 0.1778 77.6341 899.2774)" cx="577" cy="403.2" rx="6.9" ry="6.1"/>
				</g>
			</g>
		</g>
		<g>
			<g>
				<g>
					<path d="M586.4,396.4c0.8-0.5,1.5-0.7,2.2-1c0.7-0.3,1.4-0.2,2.1-0.5c0.7-0.2,1.3-0.6,1.9-1c0.6-0.4,1-1.1,1.4-1.8l0.2,0.1
						c-0.2,0.8-0.5,1.6-1,2.3c-0.5,0.7-1.2,1.2-2,1.7c-0.7,0.4-1.5,0.9-2.4,0.9c-0.9,0-1.7-0.1-2.5-0.5L586.4,396.4z"/>
				</g>
			</g>
		</g>
		<g>
			<g>
				<g>
					<path d="M583.3,393c0.9-0.3,1.6-0.4,2.4-0.6c0.7-0.2,1.4-0.2,2.1-0.5c0.7-0.3,1.3-0.7,1.9-1.2c0.3-0.2,0.5-0.6,0.8-0.9
						c0.2-0.3,0.5-0.7,0.7-1l0.2,0.1c-0.2,0.8-0.5,1.6-1,2.4c-0.5,0.8-1.1,1.4-1.9,1.9c-0.8,0.5-1.6,1-2.6,1c-0.9,0-1.9-0.3-2.6-0.9
						L583.3,393z"/>
				</g>
			</g>
		</g>
		<g>
			<g>
				<g>
					<path d="M579.2,390.7c1-0.3,1.8-0.5,2.7-0.6c0.9-0.1,1.7,0,2.6-0.1c0.8-0.1,1.6-0.4,2.3-0.9c0.7-0.5,1-1.3,1.2-2.2l0.2,0
						c0.2,0.9-0.1,2-0.7,2.8c-0.7,0.8-1.6,1.3-2.5,1.6c-0.9,0.3-1.9,0.6-2.9,0.5c-1-0.1-1.9-0.3-2.8-0.9L579.2,390.7z"/>
				</g>
			</g>
		</g>
		<g>
			<g>
				<g>
					<path d="M536.3,398.4c-1.5-0.3-3-0.7-4.5-1.3c-8.1-3.3-12.9-10.7-10.5-16.3l0,0c1.2-2.8,3.8-4.8,7.5-5.5
						c3.5-0.7,7.6-0.2,11.4,1.4c8.1,3.3,12.9,10.7,10.5,16.3C548.8,397.5,542.8,399.6,536.3,398.4z M535.1,377.8c-2-0.4-4-0.4-5.8,0
						c-2.8,0.6-4.9,2-5.7,4l0,0c-1.8,4.3,2.3,10.2,9.1,13c6.8,2.8,13.8,1.6,15.6-2.8c1.8-4.3-2.3-10.2-9.1-13
						C537.8,378.4,536.5,378,535.1,377.8z"/>
				</g>
			</g>
		</g>
		<g>
			<g>
				<g>
					<ellipse transform="matrix(0.1778 -0.9841 0.9841 0.1778 58.9662 852.0403)" cx="539.4" cy="390.7" rx="6.9" ry="6.1"/>
				</g>
			</g>
		</g>
		<g>
			<g>
				<g>
					<path d="M526.7,377.2c-0.9,0-1.7-0.4-2.4-0.9c-0.7-0.5-1.1-1.3-1.5-2.1c-0.4-0.8-0.7-1.6-0.7-2.5c-0.1-0.9,0.1-1.7,0.4-2.5
						l0.2,0c0,0.8,0,1.6,0.3,2.3c0.3,0.7,0.6,1.3,1.1,1.9c0.5,0.6,1.1,1,1.5,1.6c0.5,0.6,0.9,1.2,1.3,2L526.7,377.2z"/>
				</g>
			</g>
		</g>
		<g>
			<g>
				<g>
					<path d="M531.2,376c-1,0.2-1.9-0.1-2.7-0.6c-0.8-0.5-1.3-1.4-1.7-2.2c-0.4-0.8-0.6-1.7-0.6-2.6c0-0.9,0.2-1.7,0.4-2.5l0.2,0
						c0,0.4,0,0.8,0,1.2c0.1,0.4,0.1,0.8,0.2,1.2c0.2,0.8,0.5,1.5,0.9,2.1c0.4,0.6,1.1,1,1.5,1.5c0.5,0.5,1.1,1.1,1.7,1.8L531.2,376
						z"/>
				</g>
			</g>
		</g>
		<g>
			<g>
				<g>
					<path d="M535.8,376.3c-1,0-2-0.3-2.8-0.7c-0.9-0.4-1.5-1.2-2.1-2c-0.6-0.8-1.2-1.7-1.3-2.7c-0.1-1,0.3-2.1,0.9-2.7l0.1,0.1
						c-0.4,0.8-0.5,1.7-0.2,2.5c0.3,0.8,0.8,1.4,1.5,2c0.6,0.6,1.4,0.9,2.1,1.5c0.7,0.6,1.3,1.2,1.9,2L535.8,376.3z"/>
				</g>
			</g>
		</g>
		<g>
			<g>
				<g>
					<path d="M562.4,449.8c-15.6,27.2-33.6-0.3-33.6-0.3L562.4,449.8z"/>
				</g>
			</g>
		</g>
		<g>
			<g>
				<g>
					<path d="M551.1,490c0,0,3.6,6.1-1,7.5"/>
				</g>
			</g>
		</g>
		<g>
			<g>
				<g>
					<path d="M581.1,497.6c0,0-2.1-3.7,0.9-7.5"/>
				</g>
			</g>
		</g>
		<g>
			<g>
				<g>
					<path d="M558.1,517.2c-0.1,0-0.1,0-0.2,0c-6.1-1.2-9.6-7.8-10.3-19.5c-0.1-1.4,1-2.6,2.4-2.7c1.4-0.1,2.6,1,2.7,2.4
						c0.6,8.9,2.8,14.2,6.3,14.9c0,0,0.1,0,0.1,0c6,1.1,16.3-9.3,20-16.7c0.6-1.3,2.2-1.8,3.4-1.1c1.3,0.6,1.8,2.2,1.1,3.4
						C579.5,505.8,567.6,519,558.1,517.2z"/>
				</g>
			</g>
		</g>
		<g>
			<g>
				<g>
					<ellipse transform="matrix(0.1778 -0.9841 0.9841 0.1778 -52.5974 976.0618)" cx="557.8" cy="519.5" rx="4.8" ry="3.7"/>
				</g>
			</g>
		</g>
		<g>
			<g>
				<g>
					<circle cx="558.8" cy="365.2" r="5.9"/>
				</g>
			</g>
		</g>
	</g>
</g>
<g>
	<g>
		<path d="M414.9,740.2c-5.7-0.3-11.5-8.7-17.3-25.3c-3.8-10.7-7.1-23-9.9-36.9c-5.4,1-14.1,2-26.3,3c-11.4,1-20.2,2.2-26.3,3.5
			c-3.3,10-9.1,24.9-17.4,45c-3.2,6.5-7.6,9.8-13.3,9.8c-4,0-7.6-1.7-10.8-5.1c-3.2-3.4-4.8-7.7-4.8-13c0-4.6,5.3-20.3,15.9-47
			c-1-2.8-1.4-5.4-1.3-7.9c0.3-4.3,3.8-7.7,10.5-10.2c10.3-22.3,21.7-45.4,34.3-69.3c18.1-34.3,29.3-51.5,33.5-51.5
			c8,0,13.3,6,16,18.1c1.4,9.7,3.7,24.2,6.8,43.6c4.4,26.1,9.8,55.9,16.2,89.5c0.5,2.5,2.4,8.5,5.5,17.9c2.6,7.8,3.9,13.6,3.9,17.5
			c0,5.3-1.6,9.6-4.7,13.2C422.5,738.7,418.9,740.4,414.9,740.2z M374.4,600.9c-5.6,12.1-13.4,28.7-23.4,49.6
			c3.3-0.9,8.3-1.6,15.2-2.2c8.1-0.6,13.2-1.1,15.3-1.5C379.9,635,377.5,619.7,374.4,600.9z"/>
	</g>
	<g>
		<path d="M493.8,628.9c-3.3,14.7-7.8,36.8-13.7,66.4c-1.4,10.2-2.7,20.4-4,30.6c-3,12.9-8.4,19.3-16.4,19.3c-5,0-8.9-2.1-11.8-6.4
			c-2.5-3.6-3.7-7.9-3.7-12.9c0-14.7,2.5-32.5,7.5-53.6c7.5-31.6,11.5-49.1,12.1-52.6c2.1-13.9,4.2-27.9,6.4-41.8
			c3.3-19.2,6.8-32,10.6-38.4c3.8-6.4,8.6-9.6,14.4-9.6c6.6,0,11.4,4.2,14.6,12.5c2.9,7.9,6,24,9.3,48.3
			c3.2,23.6,7.9,49.1,14.2,76.3c8.3-26.9,15.9-56.4,23-88.5l6.1-31.2c3.9-12.9,10-19.4,18.1-19.4c7.9,0,13.8,7.5,17.6,22.5
			c1.6,6.1,3.3,17.4,5.1,34c4.2,38.6,9.5,71.6,15.9,99.1c6.4,28,9.7,43.2,9.7,45.6c0,5.3-1.7,9.8-5.1,13.4
			c-3.2,3.3-6.8,4.9-10.8,4.9c-7.9,0-13.8-7.1-17.6-21.2l-6.1-32.9c-3.5-16.3-7.2-39.7-11.3-70.2c-3.3,12.1-8.7,31.2-16.2,57.2
			l-6.5,25c-2.7,9.9-5.5,18-8.4,24.3c-3.8,8.4-9.2,12.6-16.1,12.6c-6.8,0-12-5-15.6-15.1l-6.1-25.3
			C503.4,678.7,498.3,654.4,493.8,628.9z"/>
	</g>
	<g>
		<path d="M684.7,628.9c-3.3,14.7-7.8,36.8-13.7,66.4c-1.4,10.2-2.7,20.4-4,30.6c-3,12.9-8.4,19.3-16.4,19.3c-5,0-8.9-2.1-11.8-6.4
			c-2.5-3.6-3.7-7.9-3.7-12.9c0-14.7,2.5-32.5,7.5-53.6c7.5-31.6,11.5-49.1,12.1-52.6c2.1-13.9,4.2-27.9,6.4-41.8
			c3.3-19.2,6.8-32,10.6-38.4c3.8-6.4,8.6-9.6,14.4-9.6c6.6,0,11.4,4.2,14.6,12.5c2.9,7.9,6,24,9.3,48.3
			c3.2,23.6,7.9,49.1,14.2,76.3c8.3-26.9,15.9-56.4,23-88.5l6.1-31.2c3.9-12.9,10-19.4,18.1-19.4c7.9,0,13.8,7.5,17.6,22.5
			c1.6,6.1,3.3,17.4,5.1,34c4.2,38.6,9.5,71.6,15.9,99.1c6.4,28,9.7,43.2,9.7,45.6c0,5.3-1.7,9.8-5.1,13.4
			c-3.2,3.3-6.8,4.9-10.8,4.9c-7.9,0-13.8-7.1-17.6-21.2l-6.1-32.9c-3.5-16.3-7.2-39.7-11.3-70.2c-3.3,12.1-8.7,31.2-16.2,57.2
			l-6.5,25c-2.7,9.9-5.5,18-8.4,24.3c-3.8,8.4-9.2,12.6-16.1,12.6c-6.8,0-12-5-15.6-15.1l-6.1-25.3
			C694.2,678.7,689.2,654.4,684.7,628.9z"/>
	</g>
	<g>
		<path d="M953.9,740.2c-5.7-0.3-11.5-8.7-17.3-25.3c-3.8-10.7-7.1-23-9.9-36.9c-5.4,1-14.1,2-26.3,3c-11.4,1-20.2,2.2-26.3,3.5
			c-3.3,10-9.1,24.9-17.4,45c-3.2,6.5-7.6,9.8-13.3,9.8c-4,0-7.6-1.7-10.8-5.1c-3.2-3.4-4.8-7.7-4.8-13c0-4.6,5.3-20.3,15.9-47
			c-1-2.8-1.4-5.4-1.3-7.9c0.3-4.3,3.8-7.7,10.5-10.2c10.3-22.3,21.7-45.4,34.3-69.3c18.1-34.3,29.3-51.5,33.5-51.5
			c8,0,13.3,6,16,18.1c1.4,9.7,3.7,24.2,6.8,43.6c4.4,26.1,9.8,55.9,16.2,89.5c0.5,2.5,2.4,8.5,5.5,17.9c2.6,7.8,3.9,13.6,3.9,17.5
			c0,5.3-1.6,9.6-4.7,13.2C961.4,738.7,957.9,740.4,953.9,740.2z M913.3,600.9c-5.6,12.1-13.4,28.7-23.4,49.6
			c3.3-0.9,8.3-1.6,15.2-2.2c8.1-0.6,13.2-1.1,15.3-1.5C918.8,635,916.4,619.7,913.3,600.9z"/>
	</g>
</g>
<g>
	<g>
		<path d="M204.7,408.4c-3.3,14.7-7.8,36.8-13.7,66.4c-1.4,10.2-2.7,20.4-4,30.6c-3,12.9-8.4,19.3-16.4,19.3c-5,0-8.9-2.1-11.8-6.4
			c-2.5-3.6-3.7-7.9-3.7-12.9c0-14.7,2.5-32.5,7.5-53.6c7.5-31.6,11.5-49.1,12.1-52.6c2.1-13.9,4.2-27.9,6.4-41.8
			c3.3-19.2,6.8-32,10.6-38.4c3.8-6.4,8.6-9.6,14.4-9.6c6.6,0,11.4,4.2,14.6,12.5c2.9,7.9,6,24,9.3,48.3
			c3.2,23.6,7.9,49.1,14.2,76.3c8.3-26.9,15.9-56.4,23-88.5l6.1-31.2c3.9-12.9,10-19.4,18.1-19.4c7.9,0,13.8,7.5,17.6,22.5
			c1.6,6.1,3.3,17.4,5.1,34c4.2,38.6,9.5,71.6,15.9,99.1c6.4,28,9.7,43.2,9.7,45.6c0,5.3-1.7,9.8-5.1,13.4
			c-3.2,3.3-6.8,4.9-10.8,4.9c-7.9,0-13.8-7.1-17.6-21.2l-6.1-32.9c-3.5-16.3-7.2-39.7-11.3-70.2c-3.3,12.1-8.7,31.2-16.2,57.2
			l-6.5,25c-2.7,9.9-5.5,18-8.4,24.3c-3.8,8.4-9.2,12.6-16.1,12.6c-6.8,0-12-5-15.6-15.1l-6.1-25.3
			C214.2,458.3,209.2,433.9,204.7,408.4z"/>
	</g>
	<g>
		<path d="M473.9,519.7c-5.7-0.3-11.5-8.7-17.3-25.3c-3.8-10.7-7.1-23-9.9-36.9c-5.4,1-14.1,2-26.3,3c-11.4,1-20.2,2.2-26.3,3.5
			c-3.3,10-9.1,24.9-17.4,45c-3.2,6.5-7.6,9.8-13.3,9.8c-4,0-7.6-1.7-10.8-5.1c-3.2-3.4-4.8-7.7-4.8-13c0-4.6,5.3-20.3,15.9-47
			c-1-2.8-1.4-5.4-1.3-7.9c0.3-4.3,3.8-7.7,10.5-10.2c10.3-22.3,21.7-45.4,34.3-69.3c18.1-34.3,29.3-51.5,33.5-51.5
			c8,0,13.3,6,16,18.1c1.4,9.7,3.7,24.2,6.8,43.6c4.4,26.1,9.8,55.9,16.2,89.5c0.5,2.5,2.4,8.5,5.5,17.9c2.6,7.8,3.9,13.6,3.9,17.5
			c0,5.3-1.6,9.6-4.7,13.2C481.4,518.2,477.9,519.9,473.9,519.7z M433.4,380.4c-5.6,12.1-13.4,28.7-23.4,49.6
			c3.3-0.9,8.3-1.6,15.2-2.2c8.1-0.6,13.2-1.1,15.3-1.5C438.8,414.5,436.4,399.2,433.4,380.4z"/>
	</g>
</g>
<g>
	<g>
		<g>
			<g>
				<path d="M84,635.2c-1.8,4.2-3,8.6-3.9,13.1c-0.9,4.5-1.4,9-1.4,13.5c-0.1,2.3,0.2,4.5,0.3,6.8l0.4,3.4c0.1,1.1,0.3,2.2,0.5,3.3
					c0.6,4.5,2.1,8.8,3.5,13.2l-0.1,0.1c-2.2-4-3.9-8.4-4.8-12.9c-0.6-2.3-0.7-4.6-1-6.9c0-2.3-0.2-4.6,0-6.9
					c0.2-4.6,0.8-9.2,1.9-13.7c1.1-4.5,2.6-8.8,4.5-13L84,635.2z"/>
			</g>
		</g>
	</g>
	<g>
		<g>
			<g>
				<g>
					<g>
						<g>
							<path class="st4" d="M163.6,566c-3.5-22.9-28.8-41.5-51.7-37.9C89,531.5,73.2,553,76.7,575.9c0.4,2.3-0.3,15.2,7.1,20.9"/>
						</g>
					</g>
				</g>
			</g>
		</g>
		<g>
			<g>
				<g>
					<g>
						<g>
							<path d="M83.1,597.8c-6.8-5.1-7.3-15.6-7.5-20c0-0.7-0.1-1.4-0.1-1.7c-3.6-23.6,12.6-45.7,36.2-49.3
								c11.3-1.7,23.7,1.7,34.1,9.3c10.4,7.6,17.4,18.5,19.1,29.7l-2.6,0.4c-3.4-22.4-27.8-40.3-50.2-36.9
								c-22.2,3.4-37.5,24.2-34.1,46.4c0.1,0.4,0.1,1.1,0.1,1.9c0.2,4.1,0.7,13.7,6.5,18.1L83.1,597.8z"/>
						</g>
					</g>
				</g>
			</g>
		</g>
	</g>
	<g>
		<g>
			<g>
				<g>
					<g>
						<g>
							<path d="M163.6,566c16.4-2.5,31.4,1.9,45.5,9.8c28.6,15.9,42,40.7,42.1,73.2c0,0.7,0.2,1.4-0.1,2c-0.4,1-1,1.8-1.6,2.7
								c-0.7-0.9-1.8-1.8-2.1-2.8c-0.4-1.5,1-3.4,0.9-5c-1.1-31.6-15.9-55.7-44-70.2c-14.9-7.6-33.6-8-49.9-5.7
								c-1.8,0.3-5.9,2.4-7.7,2.4c1.8-1.1,3.6-3.9,5.5-4.6C154.7,566.9,161.1,566.5,163.6,566z"/>
						</g>
					</g>
				</g>
			</g>
		</g>
	</g>
	<g>
		<g>
			<g>
				<g>
					<path d="M116,731.4c-5.6,0.9-17.8-4.8-21.6-8.6C70,698.6,60.6,668.7,66.4,634c0.4-2.5,2.3-10.6,2.7-11.7
						c3.5-11.1,7.8-19.5,13.6-26.6c0.5-0.6,1.1-1.4,1.7-2.2c4.7-6,12.7-16.1,23.3-21.5c9.4-4.7,18.8-5.9,27.4-3.4
						c10.7,3.1,19.6,10.6,23.2,19.5c2.3,5.7,2.1,11.5-0.6,16.4c-2.6,4.5-6,9.1-11,14.6c-3.9,4.3-8.3,8.3-11.9,11.5
						c-4.8,4.3-7.4,9.6-8,16.3c-0.2,2.1-0.3,4.4-0.4,6.5l-0.1,1.4c-0.4,9.3-3.6,16.4-9.6,22l-0.2,0.2c-0.6,0.5-1.7,1.6-1.8,2l0,0
						c0,0,0.2,0.4,1.6,1.1c1,0.5,1.3,1.5,1.6,2.4c0.1,0.2,0.1,0.4,0.2,0.6c0.2,0.5,0.2,1-0.1,1.4c-0.3,0.4-0.7,0.7-1.2,0.8l-0.7,0.1
						c-0.5,0.1-1.1,0.1-1.6,0.2c-0.9,0.1-1.7,0.1-2.6,0.1c-1.7,0-3.4,0-4.7,0.5c-1.8,0.7-3.1,2-3.5,3.7c-0.5,1.8-0.1,3.8,1.2,5.6
						c1.2,1.6,1.9,2,3.8,1.2c6.1-2.7,12.3-2.3,16.9,1c4.7,3.3,7,9.1,6.4,15.9c-0.4,4.3-1.8,7.4-4.4,9.4c-2.5,1.9-5.9,2.5-10.1,1.7
						c0,0,0,0-0.1,0c1.4,2,2.3,4.4,0.6,6C117.6,731,116.9,731.3,116,731.4z M121.1,570.9c-3.9,0.6-8,1.9-12,3.9
						c-10.1,5-17.7,14.8-22.3,20.6c-0.7,0.8-1.3,1.6-1.8,2.2c-5.5,6.7-9.6,14.8-13,25.5c-0.3,0.9-2.1,8.8-2.6,11.3
						c-5.7,33.6,3.5,62.6,27.2,86.1c4.5,4.5,17.6,8.9,19.3,7.6c-0.1,0-0.1-1.3-3.6-5.1c-0.5-0.5-0.6-1.2-0.2-1.8
						c0.3-0.6,1-0.9,1.7-0.8l1.2,0.2c1,0.2,2.1,0.4,3.1,0.6c3.2,0.6,5.8,0.2,7.6-1.1c1.8-1.4,2.9-3.8,3.2-7.2
						c0.5-5.6-1.4-10.4-5.1-13.1c-3.7-2.7-8.7-2.9-13.8-0.7c-3.9,1.7-6.1-0.3-7.5-2.2c-1.9-2.5-2.5-5.5-1.7-8.3
						c0.7-2.6,2.7-4.7,5.4-5.7c1.8-0.7,3.8-0.7,5.8-0.8c0.7,0,1.5,0,2.2-0.1c-1.1-0.6-2.2-1.6-2.4-3c-0.3-1.9,1.3-3.4,2.8-4.7
						l0.2-0.2c5.4-4.9,8.3-11.4,8.6-19.8l0.1-1.4c0.1-2.2,0.2-4.4,0.4-6.7c0.7-7.4,3.8-13.6,9.1-18.4c4.5-4,8.2-7.4,11.7-11.2
						c4.9-5.4,8.1-9.7,10.6-14.1c2.9-5.1,1.8-10.2,0.4-13.7c-3.2-7.9-11.5-14.9-21.2-17.7C130.1,570.5,125.6,570.2,121.1,570.9z"/>
				</g>
			</g>
		</g>
	</g>
	<g>
		<g>
			<g>
				<g>
					<g>
						<g>
							<path d="M160.3,595.5c16.5-0.4,38,0.7,51.2,9c6,3.7,11.4,8.5,16.5,13.3c4.5,4.3,9.2,9.2,11.3,14.8c0.3,0.9-0.2,3.5,0.1,4.5
								c-1.2-0.1-0.9-2-1.6-2.6c-2.2-1.8-4.5-3.8-6.1-6.1c-14.3-20.6-34.5-29.4-59-29.6c-1.6,0-9.5-0.7-11-1.2
								c-0.9-0.2-1.6-1.1-2.4-1.7C160.1,595.6,160.9,595.3,160.3,595.5z"/>
						</g>
					</g>
				</g>
			</g>
		</g>
	</g>
	<g>
		<g>
			<g>
				<g>
					<g>
						<g>
							<path d="M160.2,640.2c-2.1-1.2-4.7-0.9-6.4,0.7c-1.5,1.4-2.8,2.6-4.1,3.9c-0.5,0.4-1.1,0.7-1.6,1.1c-0.2-0.8-0.7-1.6-0.5-2.3
								c0.9-4.3,4.9-7.7,9.5-8.3c4.3-0.5,9,1.8,10.6,5.5c0.4,0.8-0.1,1.9-0.2,2.9c-0.8-0.2-1.6-0.3-2.3-0.6
								C163.5,642.1,161.9,641.2,160.2,640.2z"/>
						</g>
					</g>
				</g>
			</g>
		</g>
	</g>
	<g>
		<g>
			<g>
				<g>
					<g>
						<g>
							<path d="M198.3,621c0.5,0,1.7-0.3,2.6,0c1.8,0.7,3.3,1.8,5,2.7c-1.6,0.2-3.1,0.4-4.7,0.4c-4.5,0-7.8,1.4-8.6,6.5
								c-0.1,0.9-1.6,1.6-2.4,2.4c-0.5-1.1-1.4-2.3-1.3-3.4C189.2,625.3,192.8,621.8,198.3,621z"/>
						</g>
					</g>
				</g>
			</g>
		</g>
	</g>
	<g>
		<g>
			<g>
				<g>
					<g>
						<g>
							<path d="M167.5,678.3c-6.3,1-12-2.7-12.9-8.1c-0.8-5.4,3.6-10.6,9.9-11.6c6.3-1,12,2.7,12.9,8.1
								C178.2,672.1,173.8,677.3,167.5,678.3z M164.8,660.4c-5.3,0.8-9,5.1-8.3,9.5c0.7,4.4,5.5,7.4,10.8,6.6c5.3-0.8,9-5.1,8.3-9.5
								C174.9,662.6,170.1,659.6,164.8,660.4z"/>
						</g>
					</g>
				</g>
			</g>
		</g>
	</g>
	<g>
		<g>
			<g>
				<g>
					<g>
						<g>
							<path d="M212.6,660.2c-6.3,1-12-2.7-12.9-8.1c-0.8-5.4,3.6-10.6,9.9-11.6c6.3-1,12,2.7,12.9,8.1
								C223.3,654,218.8,659.2,212.6,660.2z M209.8,642.3c-5.3,0.8-9,5.1-8.3,9.5c0.7,4.4,5.5,7.4,10.8,6.6c5.3-0.8,9-5.1,8.3-9.5
								C219.9,644.5,215.1,641.5,209.8,642.3z"/>
						</g>
					</g>
				</g>
			</g>
		</g>
	</g>
	<g>
		<g>
			<g>
				<g>
					<g>
						<g>
							<ellipse transform="matrix(0.9885 -0.1511 0.1511 0.9885 -96.4014 39.9739)" cx="214.8" cy="654.2" rx="5.1" ry="4.9"/>
						</g>
					</g>
				</g>
			</g>
		</g>
	</g>
	<g>
		<g>
			<g>
				<g>
					<g>
						<g>
							<ellipse transform="matrix(0.9885 -0.1511 0.1511 0.9885 -99.3713 33.3091)" cx="169.4" cy="670.4" rx="5.1" ry="4.9"/>
						</g>
					</g>
				</g>
			</g>
		</g>
	</g>
	<g>
		<g>
			<g>
				<g>
					<g>
						<g>
							<path d="M140.7,668.4c0.7,0.1,1.4,0.2,2.1,0.2c0.7,0.1,1.4,0.2,2,0.3c0.7,0.1,1.4,0.3,2,0.4l1,0.2c0.3,0.1,0.7,0.2,1,0.3
								c-0.3,0-0.7-0.1-1-0.1l-1-0.1c-0.7-0.1-1.4-0.2-2-0.3c-0.7-0.1-1.4-0.3-2-0.4C142.1,668.7,141.4,668.6,140.7,668.4z"/>
						</g>
					</g>
				</g>
			</g>
		</g>
	</g>
	<g>
		<g>
			<g>
				<g>
					<g>
						<g>
							<path d="M145.8,679c0.6-0.9,1.2-1.7,1.9-2.6c0.7-0.8,1.4-1.6,2.1-2.3c-0.6,0.9-1.2,1.7-1.9,2.6
								C147.3,677.4,146.6,678.2,145.8,679z"/>
						</g>
					</g>
				</g>
			</g>
		</g>
	</g>
	<g>
		<g>
			<g>
				<g>
					<g>
						<g>
							<path d="M141.9,674.5c1-0.5,2-1,3.1-1.4c1.1-0.4,2.1-0.8,3.2-1.1c-1,0.5-2,1-3.1,1.4C144.1,673.8,143,674.2,141.9,674.5z"/>
						</g>
					</g>
				</g>
			</g>
		</g>
	</g>
	<g>
		<g>
			<g>
				<g>
					<g>
						<g>
							<path d="M224.1,636.3c-0.3,0.5-0.5,1.1-0.7,1.6c-0.2,0.6-0.5,1.1-0.7,1.7c-0.2,0.6-0.4,1.1-0.6,1.7l-0.3,0.9
								c-0.1,0.3-0.2,0.6-0.2,0.9c0.1-0.3,0.3-0.5,0.4-0.8l0.4-0.8c0.2-0.6,0.5-1.1,0.7-1.7c0.2-0.6,0.4-1.1,0.6-1.7
								C223.8,637.5,224,636.9,224.1,636.3z"/>
						</g>
					</g>
				</g>
			</g>
		</g>
	</g>
	<g>
		<g>
			<g>
				<g>
					<g>
						<g>
							<path d="M230.4,647.1c-1-0.2-2-0.3-3-0.4c-1-0.1-2-0.1-2.9-0.1c1,0.2,2,0.3,3,0.4C228.5,647.1,229.5,647.2,230.4,647.1z"/>
						</g>
					</g>
				</g>
			</g>
		</g>
	</g>
	<g>
		<g>
			<g>
				<g>
					<g>
						<g>
							<path d="M228.6,641.3c-0.9,0.4-1.7,0.8-2.6,1.3c-0.8,0.5-1.6,1-2.4,1.6c0.9-0.4,1.7-0.8,2.6-1.3
								C227,642.3,227.8,641.8,228.6,641.3z"/>
						</g>
					</g>
				</g>
			</g>
		</g>
	</g>
	<g>
		<g>
			<g>
				<g>
					<g>
						<g>
							<path d="M163.1,697.6c-13.6,2.1-26.4-7.3-28.5-21c-2.1-13.6,7.3-26.4,21-28.5c13.6-2.1,26.4,7.3,28.5,21
								C186.1,682.7,176.7,695.5,163.1,697.6z M155.8,649.9c-12.6,1.9-21.3,13.8-19.4,26.4c1.9,12.6,13.8,21.3,26.4,19.4
								s21.3-13.8,19.4-26.4C180.3,656.7,168.4,648,155.8,649.9z"/>
						</g>
					</g>
				</g>
			</g>
		</g>
	</g>
	<g>
		<g>
			<g>
				<g>
					<g>
						<g>
							<path d="M217.8,674.3c-12.7,1.9-24.7-7.6-26.8-21.2c-2.1-13.6,6.6-26.3,19.3-28.3c12.7-1.9,24.7,7.6,26.8,21.2
								C239.2,659.7,230.5,672.3,217.8,674.3z M210.6,626.6c-11.7,1.8-19.6,13.5-17.7,26.1c1.9,12.6,13,21.5,24.7,19.7
								c11.7-1.8,19.6-13.5,17.7-26.1C233.3,633.7,222.2,624.8,210.6,626.6z"/>
						</g>
					</g>
				</g>
			</g>
		</g>
	</g>
	<g>
		<g>
			<g>
				<g>
					<g>
						<g>
							<polygon points="135.8,678.5 114.2,679.4 114.1,678.3 135.7,677.3 							"/>
						</g>
					</g>
				</g>
			</g>
		</g>
	</g>
	<g>
		<g>
			<g>
				<g>
					<g>
						<g>
							<path d="M183.2,663.8l-1.8-0.4c0.1-0.2,1.3-6.1,5.2-8c1.9-0.9,4-0.7,6.3,0.4l-0.9,1.6c-1.8-0.9-3.3-1.1-4.7-0.4
								C184.3,658.6,183.2,663.8,183.2,663.8z"/>
						</g>
					</g>
				</g>
			</g>
		</g>
	</g>
	<g>
		<g>
			<g>
				<g>
					<g>
						<g>
							<polygon points="235.3,641.8 234.6,641 239.5,634.7 240.2,635.5 							"/>
						</g>
					</g>
				</g>
			</g>
		</g>
	</g>
	<g>
		<g>
			<g>
				<g>
					<g>
						<g>
							<path d="M201.1,692.5c-4.2,0.6-9.2,0-13.4-2.6l1-1.6c5.3,3.4,12.2,3.1,16.3,1.1c2-1,3.1-2.2,3.2-3.6
								c0.6-6.9-10.8-19.1-10.9-19.2l1.4-1.3c0.5,0.5,12,12.9,11.4,20.6c-0.2,2-1.7,3.9-4.2,5.1
								C204.5,691.8,202.9,692.3,201.1,692.5z"/>
						</g>
					</g>
				</g>
			</g>
		</g>
	</g>
	<g>
		<g>
			<g>
				<g>
					<g>
						<g>
							<g>
								<path d="M113.8,723.7c1.1,8.6,7.2,15.4,13.7,20.6c6.7,5.2,14.3,9.3,22.6,11.4c9,2.3,18.4,1.6,27.3-0.7
									c2.3-0.6,4.6-1.4,6.9-2.3c1.1-0.4,2.2-0.9,3.3-1.3c0.5-0.2,1-0.4,1.5-0.5c0.3-0.1,0.5-0.2,0.8-0.3c0.1,0,0.3-0.1,0.4-0.1
									c0.4-0.1-0.1,0,0.3-0.1c1.1-0.3,2.3-0.6,3.4-0.7c0.5-0.1,1.1-0.1,1.6-0.1c0,0,0.4,0,0.1,0c0.1,0,0.3,0,0.4,0
									c0.3,0,0.6,0,0.9,0c2.1,0.1,4.2,0.5,6.3,0.7c4,0.5,8.1,0.6,12.1-0.5c4-1.1,7.7-3,10.5-6.1c0.7-0.8,1.3-1.6,1.9-2.5
									c0.5-0.8,0.5-2-0.4-2.6c-0.8-0.5-2-0.5-2.6,0.4c-0.6,0.9-1.2,1.8-1.9,2.5c-0.2,0.3-0.1,0.1,0,0c-0.1,0.1-0.2,0.2-0.2,0.2
									c-0.2,0.2-0.3,0.3-0.5,0.5c-0.4,0.3-0.7,0.6-1.1,0.9c-0.3,0.3-0.7,0.5-1.1,0.8c-0.1,0.1-0.2,0.1-0.3,0.2c0.3-0.2,0.1,0,0,0
									c-0.2,0.1-0.5,0.3-0.7,0.4c-0.8,0.4-1.7,0.8-2.5,1.1c-0.4,0.2-0.8,0.3-1.2,0.4c-0.1,0-0.4,0.1,0,0c-0.1,0-0.2,0.1-0.3,0.1
									c-0.2,0.1-0.5,0.1-0.7,0.2c-0.9,0.2-1.8,0.4-2.8,0.5c-0.4,0.1-0.9,0.1-1.3,0.1c-0.2,0-0.4,0-0.7,0c-0.1,0-0.2,0-0.3,0
									c-0.2,0-0.3,0-0.1,0c-1,0-1.9,0-2.9-0.1c-4.4-0.4-8.7-1.5-13.1-0.9c-4.6,0.6-8.8,2.8-13.2,4.3c-0.5,0.2-1,0.3-1.5,0.5
									c0.3-0.1-0.1,0-0.2,0.1c-0.1,0-0.3,0.1-0.4,0.1c-0.3,0.1-0.6,0.2-0.9,0.2c-1.1,0.3-2.2,0.6-3.3,0.8
									c-2.2,0.5-4.4,0.8-6.6,1.1c-1.1,0.1-2.2,0.2-3.2,0.3c-0.3,0-0.6,0-0.9,0c-0.1,0-0.3,0-0.4,0c0.1,0,0.3,0-0.1,0
									c-0.6,0-1.1,0-1.7,0c-2.2,0-4.4-0.2-6.6-0.6c-1.1-0.2-2.1-0.4-3.2-0.7c-0.1,0-0.2-0.1-0.4-0.1c0.3,0.1,0,0-0.1,0
									c-0.2-0.1-0.5-0.1-0.7-0.2c-0.5-0.1-1-0.3-1.6-0.5c-2-0.6-3.9-1.3-5.7-2.2c-0.9-0.4-1.8-0.8-2.7-1.3
									c-0.5-0.2-0.9-0.5-1.4-0.7c-0.1-0.1-0.2-0.1-0.3-0.2c0.1,0,0.3,0.1-0.1,0c-0.2-0.1-0.5-0.3-0.7-0.4c-1.8-1-3.5-2.1-5.1-3.3
									c-1.6-1.1-3.2-2.4-4.7-3.6c-0.4-0.3-0.7-0.6-1.1-0.9c-0.2-0.2-0.3-0.3-0.5-0.5c-0.3-0.2-0.1-0.1,0,0
									c-0.1-0.1-0.3-0.2-0.4-0.4c-0.7-0.7-1.4-1.4-2.1-2.2c-0.7-0.8-1.3-1.5-1.9-2.3c-0.3-0.4-0.6-0.8-0.8-1.2
									c-0.1-0.2-0.3-0.4-0.4-0.6c0,0-0.2-0.3,0,0c-0.1-0.1-0.2-0.3-0.2-0.4c-0.5-0.9-1-1.7-1.3-2.6c-0.2-0.4-0.4-0.9-0.5-1.3
									c-0.1-0.2-0.2-0.4-0.2-0.7c0-0.1-0.1-0.2-0.1-0.3c-0.1-0.2,0.1,0.2,0-0.1c-0.3-1-0.5-1.9-0.6-2.9c-0.1-1-1.1-1.7-2.1-1.6
									C114.4,721.8,113.7,722.7,113.8,723.7L113.8,723.7z"/>
							</g>
						</g>
					</g>
				</g>
			</g>
		</g>
		<g>
			<g>
				<g>
					<g>
						<g>
							<g>
								<path d="M227.9,741.1c0.6-0.9,1.3-1.8,2-2.6c0.2-0.2,0.4-0.5,0.6-0.7c0.1-0.1,0.1-0.2,0.2-0.2c-0.3,0.3,0.1-0.1,0.1-0.1
									c0.4-0.5,0.9-0.9,1.4-1.3c1.8-1.7,3.8-3.2,5.8-4.7c3.8-2.8,7.9-5.3,11.6-8.2c3.4-2.7,6.5-5.8,8.7-9.6
									c2.7-4.5,4.3-9.5,5.1-14.6c1.6-10.4-0.6-20.9-4.3-30.7c-1-2.6-2.2-5.1-3.5-7.5c-1.3-2.2-2.7-4.2-4.1-6.3
									c-0.7-1.1-1.5-2.2-2.2-3.3c-0.2-0.3-0.4-0.6-0.6-0.9c-0.1-0.2-0.2-0.3-0.3-0.5c0-0.1-0.1-0.2-0.1-0.2c0.4,0.5,0.1,0.1,0,0
									c-0.4-0.7-0.9-1.5-1.3-2.2c-2.3-4-4.3-8.1-6.2-12.2c-0.6-1.3-1.2-2.7-1.8-4c-0.4-0.9-1.6-1.4-2.4-0.9
									c-0.9,0.5-1.4,1.5-0.9,2.4c3.4,7.8,7.2,15.4,11.9,22.4c1.3,2,2.7,4,4,6c0.1,0.1,0.2,0.3,0.2,0.4c0,0-0.3-0.4-0.1-0.2
									c0,0.1,0.1,0.1,0.1,0.2c0.2,0.3,0.3,0.5,0.5,0.8c0.3,0.5,0.6,1,0.9,1.6c0.6,1.2,1.2,2.4,1.7,3.6c0.7,1.5,1.2,3.1,1.8,4.6
									c0.3,0.9,0.6,1.8,0.9,2.8c0.2,0.5,0.3,1,0.5,1.5c0,0.1,0.1,0.3,0.1,0.4c0,0,0.1,0.3,0,0c0.1,0.4,0.2,0.8,0.4,1.3
									c0.7,2.7,1.3,5.5,1.6,8.3c0.2,1.4,0.3,2.7,0.3,4.1c0,0,0,0.6,0,0.3c0,0.2,0,0.4,0,0.6c0,0.3,0,0.6,0,0.9
									c0,0.7,0,1.5-0.1,2.2c-0.1,1.4-0.2,2.7-0.4,4.1c-0.1,0.7-0.2,1.4-0.4,2c-0.1,0.4-0.2,0.7-0.2,1.1c0,0.1-0.1,0.2-0.1,0.4
									c0,0.1-0.1,0.2-0.1,0.4c0-0.2,0-0.1,0,0.1c-0.6,2.3-1.4,4.7-2.5,6.8c-0.2,0.5-0.5,0.9-0.7,1.4c0,0.1-0.3,0.5,0,0.1
									c0,0.1-0.1,0.2-0.1,0.2c-0.2,0.3-0.3,0.6-0.5,0.8c-0.5,0.9-1.1,1.7-1.7,2.5c-0.6,0.8-1.3,1.6-2,2.4c0.3-0.4-0.2,0.2-0.3,0.3
									c-0.2,0.2-0.4,0.4-0.6,0.6c-0.4,0.4-0.8,0.7-1.1,1.1c-3.5,3.1-7.4,5.5-11.2,8.1c-4.1,2.9-8.1,5.9-11.3,9.7
									c-0.7,0.8-1.3,1.6-1.9,2.5c-0.5,0.8-0.5,2,0.4,2.6C226.1,742.1,227.3,742,227.9,741.1L227.9,741.1z"/>
							</g>
						</g>
					</g>
				</g>
			</g>
		</g>
	</g>
	<g>
		<g>
			<g>
				<g>
					<g>
						<path d="M178.4,716.3c0,0,32.9,21,40.8-12.4C219.2,703.9,204.9,720.5,178.4,716.3z"/>
					</g>
				</g>
			</g>
		</g>
	</g>
	<g>
		<g>
			<g>
				<g>
					<g>
						<path d="M174,718.8c-0.7-0.5-1.2-1.2-1.6-2c-0.4-0.8-0.5-1.7-0.4-2.7c0.2-0.9,0.7-1.8,1.3-2.4c0.6-0.6,1.4-1,2.2-1.3
							c-0.6,0.6-1.1,1.2-1.6,1.8c-0.2,0.3-0.4,0.6-0.6,1c-0.2,0.3-0.3,0.7-0.3,1c-0.1,0.7-0.1,1.4,0.1,2.2
							C173.4,717.3,173.7,718.1,174,718.8z"/>
					</g>
				</g>
			</g>
		</g>
	</g>
	<g>
		<g>
			<g>
				<g>
					<g>
						<path d="M215.6,700.4c0.6-0.6,1.4-1,2.3-1.1c0.9-0.1,1.8,0,2.7,0.4c0.8,0.5,1.4,1.2,1.9,1.9c0.2,0.4,0.3,0.8,0.5,1.2
							c0.1,0.4,0.2,0.8,0.2,1.3c-0.3-0.3-0.5-0.7-0.7-1l-0.4-0.5c-0.1-0.2-0.2-0.3-0.4-0.5c-0.5-0.6-1.1-1.1-1.7-1.4
							c-0.6-0.3-1.3-0.5-2.1-0.6C217.2,700.1,216.4,700.2,215.6,700.4z"/>
					</g>
				</g>
			</g>
		</g>
	</g>
	<g>
		<g>
			<g>
				<g>
					<g>
						<path d="M156.3,701c1.4-1.1,2.9-2,4.5-2.7c0.8-0.4,1.6-0.7,2.5-1c0.8-0.3,1.7-0.5,2.6-0.7c1.7-0.3,3.5-0.5,5.3-0.3
							c1.8,0.2,3.5,0.7,5.1,1.5c-1.7-0.6-3.4-0.9-5.1-1c-0.9,0-1.7,0-2.6,0.1c-0.9,0.1-1.7,0.2-2.6,0.4c-1.7,0.3-3.4,0.8-5,1.4
							C159.5,699.5,157.9,700.2,156.3,701z"/>
					</g>
				</g>
			</g>
		</g>
	</g>
	<g>
		<g>
			<g>
				<g>
					<g>
						<path d="M223.6,678.3c0.2-1.6,0.8-3.2,1.5-4.6c0.7-1.5,1.7-2.8,2.9-4c1.2-1.1,2.8-1.9,4.4-2.3c1.6-0.4,3.3-0.3,4.9,0.1
							c-1.6-0.1-3.2,0-4.7,0.4c-0.8,0.2-1.5,0.5-2.1,0.9c-0.7,0.4-1.3,0.8-1.9,1.4c-1.2,1-2.1,2.3-2.9,3.7
							C224.8,675.3,224.1,676.8,223.6,678.3z"/>
					</g>
				</g>
			</g>
		</g>
	</g>
	<g>
		<g>
			<g>
				<g>
					<path d="M95.9,544.5c-1,2.5-1.7,5.1-2.2,7.8c-0.5,2.7-0.7,5.3-0.7,8c0,1.3,0.1,2.7,0.2,4l0.3,2c0.1,0.7,0.2,1.3,0.3,2
						c0.3,2.7,1.1,5.2,1.8,7.9l-0.1,0.1c-1.4-2.3-2.6-4.9-3.2-7.6c-0.4-1.3-0.5-2.7-0.6-4.1c0-1.4-0.1-2.8,0-4.2
						c0.3-5.5,1.6-11,4-15.9L95.9,544.5z"/>
				</g>
			</g>
		</g>
	</g>
	<g>
		<g>
			<g>
				<g>
					<path d="M109.1,542.5c-0.7,1.9-1.2,3.8-1.5,5.8c-0.4,2-0.5,3.9-0.5,5.9c0,2,0.4,3.9,0.6,5.8c0.2,2,0.7,3.8,1.1,5.9l-0.1,0.1
						c-1.2-1.7-2.1-3.6-2.5-5.6c-0.5-2-0.5-4.1-0.4-6.2c0.2-4.1,1.3-8.1,3.1-11.7L109.1,542.5z"/>
				</g>
			</g>
		</g>
	</g>
	<g>
		<g>
			<g>
				<g>
					<path d="M128.6,536.4c4.7,2.8,8.8,6.6,12.1,11c0.9,1.1,1.6,2.3,2.3,3.4c0.6,1.2,1.3,2.4,1.8,3.8c1,2.6,1.5,5.4,1.6,8.1l-0.2,0
						c-0.9-2.6-1.7-5.1-2.9-7.6c-0.2-0.6-0.5-1.2-0.8-1.8l-0.9-1.8c-0.6-1.2-1.2-2.4-2-3.5c-1.5-2.2-3.1-4.4-5-6.3
						c-1.9-1.9-3.9-3.8-6.1-5.3L128.6,536.4z"/>
				</g>
			</g>
		</g>
	</g>
	<g>
		<g>
			<g>
				<g>
					<path d="M115,535.9c4.7,2.8,8.8,6.6,12.1,11c0.9,1.1,1.6,2.3,2.3,3.4c0.6,1.2,1.3,2.4,1.8,3.8c1,2.6,1.5,5.4,1.6,8.1l-0.2,0
						c-0.9-2.6-1.7-5.1-2.9-7.6c-0.2-0.6-0.5-1.2-0.8-1.8l-0.9-1.8c-0.6-1.2-1.2-2.4-2-3.5c-1.5-2.2-3.1-4.4-5-6.3
						c-1.9-1.9-3.9-3.8-6.1-5.3L115,535.9z"/>
				</g>
			</g>
		</g>
	</g>
	<g>
		<g>
			<g>
				<g>
					<path d="M92.1,652.1c-0.3,1.6-0.5,3.2-0.6,4.9c-0.2,1.6-0.3,3.3-0.2,4.9c0,1.6,0.2,3.2,0.3,4.8c0.1,1.6,0.2,3.2,0.5,4.8
						l-0.1,0.1c-1-1.4-1.6-3.1-1.9-4.7c-0.3-1.7-0.1-3.4,0-5c0.3-3.3,1-6.6,2-9.7L92.1,652.1z"/>
				</g>
			</g>
		</g>
	</g>
	<g>
		<g>
			<g>
				<g>
					<path d="M117.2,585.8c1.1-2.3,2.8-4.3,5-5.8c1.1-0.7,2.2-1.5,3.5-1.7c1.3-0.3,2.6-0.2,3.9,0.1l0,0.2c-1.2,0.5-2.4,0.8-3.5,1.2
						c-1.1,0.4-2.2,0.7-3.3,1.3c-1.1,0.6-2.1,1.2-3,2.1c-0.9,0.8-1.8,1.7-2.5,2.7L117.2,585.8z"/>
				</g>
			</g>
		</g>
	</g>
	<g>
		<g>
			<g>
				<g>
					<path d="M128.5,588.7c1.7-1.8,3.5-3.5,5.5-5c1-0.7,2-1.6,3.3-1.9c0.6-0.2,1.3-0.3,2-0.3c0.3,0,0.7,0.1,1,0.2
						c0.3,0.1,0.6,0.4,0.9,0.5l-0.1,0.1c-1.3-0.1-2.2,0.4-3.3,0.9c-1,0.5-2.1,1-3.2,1.5c-1.1,0.6-2.1,1.3-3.1,2c-1,0.7-2,1.4-3,2.2
						L128.5,588.7z"/>
				</g>
			</g>
		</g>
	</g>
	<g>
		<g>
			<g>
				<g>
					<path d="M161.5,575.4c1.6-1.2,3.5-1.8,5.4-2.3c1.9-0.4,3.9-0.6,5.9-0.6c2,0,3.9,0,5.9,0.4c1.9,0.4,3.8,1,5.6,1.9l0,0.2
						c-1,0-2-0.1-2.9-0.2c-1-0.1-1.9-0.2-2.9-0.3c-1.9-0.1-3.8-0.6-5.7-0.7c-1.9-0.1-3.8-0.1-5.7,0.2c-1.9,0.2-3.8,0.7-5.4,1.6
						L161.5,575.4z"/>
				</g>
			</g>
		</g>
	</g>
	<g>
		<g>
			<g>
				<g>
					<path d="M169.4,579.1c4.1-0.5,8.2-0.8,12.3-0.7c2.1,0,4.2,0.1,6.2,0.7c2,0.5,4.1,1.3,5.6,2.9l-0.1,0.1
						c-1.9-0.8-3.8-1.2-5.8-1.5c-2-0.3-3.9-0.7-6-0.9c-4-0.4-8.1-0.5-12.2-0.4L169.4,579.1z"/>
				</g>
			</g>
		</g>
	</g>
	<g>
		<g>
			<g>
				<g>
					<path d="M162.6,613.8c0.1-2.6,2-5,4.5-6.1c1.2-0.5,2.6-0.8,3.9-0.7c0.6,0,1.3,0.2,1.9,0.3c0.6,0.2,1.2,0.4,1.8,0.7l0,0.1
						l-1.8-0.2c-0.6,0-1.2,0-1.8,0c-1.2,0.1-2.4,0.4-3.5,0.9c-2.2,1-4,2.8-4.8,5L162.6,613.8z"/>
				</g>
			</g>
		</g>
	</g>
	<g>
		<g>
			<g>
				<g>
					<path d="M166.1,615.5c0.7-1.7,2.1-2.9,3.7-3.7c0.8-0.3,1.7-0.6,2.6-0.6c0.9-0.1,1.8,0.2,2.6,0.6l0,0.1
						c-1.6-0.2-3.3,0.3-4.7,0.9C168.8,613.5,167.4,614.5,166.1,615.5L166.1,615.5z"/>
				</g>
			</g>
		</g>
	</g>
	<g>
		<g>
			<g>
				<g>
					<path d="M204.2,729.8c0.7-1.7,2.1-2.9,3.7-3.7c0.8-0.3,1.7-0.6,2.6-0.6c0.9-0.1,1.8,0.2,2.6,0.6l0,0.1
						c-1.6-0.2-3.3,0.3-4.7,0.9C206.9,727.9,205.5,728.8,204.2,729.8L204.2,729.8z"/>
				</g>
			</g>
		</g>
	</g>
	<g>
		<g>
			<g>
				<path d="M113.4,723.4c-0.3,0-7.2-0.6-10-9.1c-2.9-8.6,1.3-14.4,4.1-17.2l2.2,2.2c-2.3,2.2-5.7,7-3.3,14c2.2,6.5,7.3,7,7.3,7
					L113.4,723.4z"/>
			</g>
		</g>
	</g>
	<g>
		<g>
			<g>
				<path d="M109.1,692.8c-0.7-0.5-1-1.2-1-2.1c0-0.9,0.7-1.9,1.7-2.3c1-0.4,1.8-0.2,2.4,0.1c0.6,0.3,1.2,0.8,1.5,1.6
					c-0.8,0.4-1.3,0.6-1.8,0.8c-0.5,0.2-0.8,0.3-0.9,0.4c-0.1,0.1-0.2,0-0.6,0.2C110.1,691.8,109.7,692.2,109.1,692.8z"/>
			</g>
		</g>
	</g>
	<g>
		<g>
			<g>
				<ellipse transform="matrix(0.7805 -0.6251 0.6251 0.7805 -418.6077 230.157)" cx="118.5" cy="711.2" rx="6.4" ry="9.1"/>
			</g>
		</g>
	</g>
</g>
<g>
	<path d="M183.1,776.4h-11.9v19.3h10.9v4.1h-10.9v23.5h-4.5v-50.8h16.4V776.4z"/>
	<path d="M206.9,819.5c0,2.4-1.2,3.7-3.7,3.7h-10.8c-2.4,0-3.6-1.2-3.6-3.7v-24.3c0-2.4,1.2-3.7,3.6-3.7h10.8c2.4,0,3.7,1.2,3.7,3.7
		V819.5z M202.6,819.4v-24h-9.5v24H202.6z"/>
	<path d="M230.5,802h-4.3v-6.5l-8,0.3v27.5H214v-31.6h4.3v0.9c1.4-0.2,2.9-0.4,4.3-0.7c1.7-0.3,3.2-0.4,4.3-0.4
		c2.4,0,3.6,1.2,3.6,3.5V802z"/>
	<path d="M265.9,776.4h-11.9v19.3H265v4.1h-10.9v23.5h-4.5v-50.8h16.4V776.4z"/>
	<path d="M288.2,802h-4.3v-6.5l-8,0.3v27.5h-4.3v-31.6h4.3v0.9c1.4-0.2,2.9-0.4,4.3-0.7c1.7-0.3,3.2-0.4,4.3-0.4
		c2.4,0,3.6,1.2,3.6,3.5V802z"/>
	<path d="M311.3,819.5c0,2.4-1.2,3.7-3.6,3.7h-10.4c-2.4,0-3.6-1.2-3.6-3.7v-24.3c0-2.4,1.2-3.7,3.6-3.7h10.4c2.4,0,3.6,1.2,3.6,3.7
		v11.4l-1.5,1.5h-12v11.4h9.3v-5.8h4.2V819.5z M307.1,804.7v-9.5h-9.3v9.5H307.1z"/>
	<path d="M335.5,819.5c0,2.4-1.2,3.7-3.7,3.7h-9.9c-2.4,0-3.7-1.2-3.7-3.7v-7.2h4.3v7.1h8.7v-6.3l-11.3-9.3c-1.1-0.9-1.6-2-1.6-3.4
		v-5.3c0-2.4,1.2-3.7,3.7-3.7h9.8c2.4,0,3.7,1.2,3.7,3.7v6.3h-4.2v-6.2h-8.7v5.5l11.4,9.3c1.1,0.8,1.6,2,1.6,3.4V819.5z"/>
	<path d="M360.5,823.2h-4.3v-27.7l-9.5,0.3v27.5h-4.3v-50.8h4.3v20.1c1.7-0.2,3.4-0.4,5.1-0.6c2.2-0.3,3.9-0.4,5.1-0.4
		c2.4,0,3.6,1.2,3.6,3.5V823.2z"/>
	<path d="M398.4,823.2h-4.3v-0.9c-1.7,0.2-3.4,0.5-5.1,0.7c-2.1,0.3-3.8,0.4-5.1,0.4c-2.4,0-3.5-1.2-3.5-3.5v-11.5
		c0-2.4,1.2-3.6,3.7-3.6h10.2v-9.5h-9.3v5.4h-4.2v-5.3c0-2.4,1.2-3.7,3.6-3.7h10.4c2.4,0,3.6,1.2,3.6,3.7V823.2z M394.2,819.3v-11.2
		h-9.6v11.4L394.2,819.3z"/>
	<path d="M423.6,823.2h-4.3v-27.7l-9.5,0.3v27.5h-4.3v-31.6h4.3v0.9c1.7-0.2,3.4-0.4,5.1-0.7c2.1-0.3,3.8-0.4,5.1-0.4
		c2.4,0,3.6,1.2,3.6,3.5V823.2z"/>
	<path d="M448.5,823.2h-4.3v-0.9c-4.6,0.7-7.2,1.1-7.7,1.1c-1.8,0-3.3-0.6-4.4-1.9c-1.1-1.2-1.7-2.8-1.7-4.7v-18.5
		c0-1.9,0.6-3.6,1.9-4.9c1.3-1.3,2.9-1.9,4.8-1.9h7.1v-19.2h4.3V823.2z M444.2,819.3v-23.9h-6c-2.4,0-3.6,1.2-3.6,3.7V816
		c0,2.4,1.2,3.6,3.6,3.6C438.8,819.6,440.8,819.5,444.2,819.3z"/>
	<path d="M490.1,814c0,2.7-0.9,4.9-2.6,6.6c-1.8,1.7-4,2.6-6.7,2.6h-11.6v-50.8h11.6c2.7,0,4.9,0.9,6.7,2.6c1.8,1.7,2.6,3.9,2.6,6.6
		V814z M485.6,813.6V782c0-1.7-0.5-3-1.6-4c-1.1-1-2.4-1.5-4.1-1.5h-6.3v42.8h6c1.8,0,3.2-0.5,4.3-1.5S485.6,815.3,485.6,813.6z"/>
	<path d="M515.2,819.5c0,2.4-1.2,3.7-3.6,3.7h-10.4c-2.4,0-3.6-1.2-3.6-3.7v-24.3c0-2.4,1.2-3.7,3.6-3.7h10.4c2.4,0,3.6,1.2,3.6,3.7
		v11.4l-1.5,1.5h-12v11.4h9.3v-5.8h4.2V819.5z M511,804.7v-9.5h-9.3v9.5H511z"/>
	<path d="M526.9,823.2h-4.3v-50.8h4.3V823.2z"/>
	<path d="M538.8,784.7h-4.4v-5.5h4.4V784.7z M538.7,823.2h-4.3v-31.6h4.3V823.2z"/>
	<path d="M563.6,819.5c0,2.4-1.2,3.7-3.6,3.7h-10.3c-2.4,0-3.6-1.2-3.6-3.7v-24.3c0-2.4,1.2-3.7,3.6-3.7H560c2.4,0,3.6,1.2,3.6,3.7
		v6.3h-4.3v-6.2h-9v24h9v-7h4.3V819.5z"/>
	<path d="M575.2,784.7h-4.4v-5.5h4.4V784.7z M575.1,823.2h-4.3v-31.6h4.3V823.2z"/>
	<path d="M600.6,819.5c0,2.4-1.2,3.7-3.7,3.7h-10.8c-2.4,0-3.6-1.2-3.6-3.7v-24.3c0-2.4,1.2-3.7,3.6-3.7h10.8c2.4,0,3.7,1.2,3.7,3.7
		V819.5z M596.3,819.4v-24h-9.5v24H596.3z"/>
	<path d="M625.8,823.2h-4.3v-0.9c-1.7,0.2-3.5,0.5-5.2,0.7c-2.1,0.3-3.8,0.4-5.2,0.4c-2.3,0-3.5-1.2-3.5-3.5v-28.3h4.3v27.7l9.6-0.3
		v-27.5h4.3V823.2z"/>
	<path d="M649.8,819.5c0,2.4-1.2,3.7-3.7,3.7h-9.9c-2.4,0-3.7-1.2-3.7-3.7v-7.2h4.3v7.1h8.7v-6.3l-11.3-9.3c-1.1-0.9-1.6-2-1.6-3.4
		v-5.3c0-2.4,1.2-3.7,3.7-3.7h9.8c2.4,0,3.7,1.2,3.7,3.7v6.3h-4.2v-6.2h-8.7v5.5l11.4,9.3c1.1,0.8,1.6,2,1.6,3.4V819.5z"/>
	<path d="M691.5,823.2H687v-24.4h-12.2v24.4h-4.5v-50.8h4.5v22.3H687v-22.3h4.5V823.2z"/>
	<path d="M717.2,819.5c0,2.4-1.2,3.7-3.7,3.7h-10.8c-2.4,0-3.6-1.2-3.6-3.7v-24.3c0-2.4,1.2-3.7,3.6-3.7h10.8c2.4,0,3.7,1.2,3.7,3.7
		V819.5z M712.9,819.4v-24h-9.5v24H712.9z"/>
	<path d="M756,823.2h-4.3v-27.7l-9.4,0.3v27.5H738v-27.7l-9.4,0.3v27.5h-4.3v-31.6h4.3v0.9c1.7-0.2,3.4-0.4,5.1-0.7
		c2.1-0.3,3.8-0.4,5.1-0.4c1.3,0,2.3,0.4,2.9,1.2c1.8-0.2,3.6-0.5,5.4-0.7c2.4-0.3,4.1-0.5,5.4-0.5c2.4,0,3.6,1.2,3.6,3.5V823.2z"/>
	<path d="M780.7,819.5c0,2.4-1.2,3.7-3.6,3.7h-10.4c-2.4,0-3.6-1.2-3.6-3.7v-24.3c0-2.4,1.2-3.7,3.6-3.7h10.4c2.4,0,3.6,1.2,3.6,3.7
		v11.4l-1.5,1.5h-12v11.4h9.3v-5.8h4.2V819.5z M776.5,804.7v-9.5h-9.3v9.5H776.5z"/>
	<path d="M817.8,776.4h-11.9v19.3h10.9v4.1h-10.9v23.5h-4.5v-50.8h16.4V776.4z"/>
	<path d="M841.6,819.5c0,2.4-1.2,3.7-3.7,3.7h-10.8c-2.4,0-3.6-1.2-3.6-3.7v-24.3c0-2.4,1.2-3.7,3.6-3.7H838c2.4,0,3.7,1.2,3.7,3.7
		V819.5z M837.3,819.4v-24h-9.5v24H837.3z"/>
	<path d="M866.8,819.5c0,2.4-1.2,3.7-3.7,3.7h-10.8c-2.4,0-3.6-1.2-3.6-3.7v-24.3c0-2.4,1.2-3.7,3.6-3.7h10.8c2.4,0,3.7,1.2,3.7,3.7
		V819.5z M862.5,819.4v-24H853v24H862.5z"/>
	<path d="M891.9,823.2h-4.3v-0.9c-4.6,0.7-7.2,1.1-7.7,1.1c-1.8,0-3.3-0.6-4.4-1.9c-1.1-1.2-1.7-2.8-1.7-4.7v-18.5
		c0-1.9,0.6-3.6,1.9-4.9c1.3-1.3,2.9-1.9,4.8-1.9h7.1v-19.2h4.3V823.2z M887.6,819.3v-23.9h-6c-2.4,0-3.6,1.2-3.6,3.7V816
		c0,2.4,1.2,3.6,3.6,3.6C882.2,819.6,884.1,819.5,887.6,819.3z"/>
	<path d="M916,819.5c0,2.4-1.2,3.7-3.7,3.7h-9.9c-2.4,0-3.7-1.2-3.7-3.7v-7.2h4.3v7.1h8.7v-6.3l-11.3-9.3c-1.1-0.9-1.6-2-1.6-3.4
		v-5.3c0-2.4,1.2-3.7,3.7-3.7h9.8c2.4,0,3.7,1.2,3.7,3.7v6.3h-4.2v-6.2H903v5.5l11.4,9.3c1.1,0.8,1.6,2,1.6,3.4V819.5z"/>
</g>
</svg>
