<svg width="94" height="94" viewBox="0 0 94 94" fill="none" xmlns="http://www.w3.org/2000/svg">
<path d="M55.3991 40.9163C55.6602 40.9511 55.9213 41.0033 56.165 41.1077C56.2259 41.1251 56.2869 41.16 56.3478 41.1948C56.4087 41.2209 56.4697 41.2557 56.5219 41.2905C56.5828 41.3253 56.635 41.3601 56.6959 41.395L56.8613 41.5168C56.9135 41.5516 56.9658 41.6039 57.018 41.6474C57.0702 41.6909 57.1224 41.7344 57.1659 41.7866C57.2095 41.8389 57.2617 41.8911 57.2965 41.9433L57.4184 42.1087C57.5663 42.335 57.6882 42.5874 57.7665 42.8485C57.8448 43.1183 57.8709 43.3968 57.8622 43.6753C57.8448 43.9539 57.7839 44.2237 57.6795 44.4935C57.575 44.7546 57.4184 44.9896 57.2356 45.2072C57.0528 45.4161 56.8352 45.5988 56.6002 45.7468C56.1215 46.034 55.5645 46.182 55.0161 46.1733L54.8072 46.1646C54.7376 46.1646 54.668 46.1472 54.5984 46.1385C54.4591 46.1211 54.3285 46.0863 54.198 46.0514C53.9369 45.9731 53.6758 45.8687 53.4495 45.712C53.3885 45.6772 53.3363 45.6337 53.2841 45.5989C53.2319 45.5553 53.1709 45.5205 53.1187 45.477C53.0665 45.4335 53.0143 45.39 52.9621 45.3377L52.8228 45.1898C52.6487 44.9809 52.4921 44.7546 52.3789 44.5109C52.2745 44.2585 52.1961 43.9974 52.17 43.7363C52.1613 43.6057 52.1526 43.4664 52.17 43.3359C52.1787 43.2053 52.2048 43.0748 52.2309 42.9442C52.2048 43.2053 52.2222 43.4664 52.2745 43.7189C52.3267 43.9713 52.4224 44.2063 52.5443 44.4239C52.788 44.8677 53.1622 45.2246 53.5974 45.4596C54.4591 45.947 55.5819 45.9383 56.4087 45.4248C56.6176 45.2942 56.8091 45.1463 56.9658 44.9635C57.1224 44.7807 57.253 44.5718 57.3574 44.3542C57.4532 44.1279 57.5141 43.8929 57.5402 43.6492C57.5576 43.4055 57.5402 43.1618 57.488 42.9181C57.4358 42.6744 57.3313 42.4481 57.2095 42.2305C57.0876 42.0129 56.9222 41.8214 56.7395 41.6474C56.5567 41.4646 56.3478 41.3253 56.1215 41.1948L55.9474 41.1077C55.8865 41.0816 55.8256 41.0555 55.7647 41.0294L55.6776 40.9946C55.6515 40.9859 55.6167 40.9772 55.5819 40.9685L55.3991 40.9163Z" fill="#F54748"/>
<path d="M60.6909 30.9156C60.1426 29.8973 59.4289 29.0182 58.3061 28.583C58.4715 28.7832 58.663 28.9486 58.8457 29.1313C62.6928 32.8913 61.4656 38.4878 57.5402 40.0545C57.0093 40.2634 56.5219 40.6899 56.1302 41.1425C56.1911 41.2208 56.2433 41.2904 56.3043 41.3775C56.3478 41.3339 56.3913 41.2991 56.4348 41.2556C56.9396 40.8465 57.5141 40.5245 58.045 40.1415C58.6543 39.7063 59.3506 39.3408 59.838 38.8012C61.7789 36.66 62.0922 33.5006 60.6909 30.9156Z" fill="#F54748"/>
<path d="M44.2322 33.5793C44.1452 32.9091 44.0059 32.2476 43.9885 31.5774C43.9363 29.1752 45.0939 27.3909 46.9913 26.0767C49.4893 24.3359 52.2135 23.8224 55.1118 24.9365C56.2868 25.3891 57.0702 26.3204 57.6011 27.4519C57.7143 27.6869 57.7404 27.9654 57.6881 28.27C57.4096 27.7913 57.1572 27.2865 56.8352 26.8426C55.8168 25.4326 54.3894 24.8408 52.6922 24.7537C50.0724 24.6145 47.8617 25.5371 46.0339 27.3648C44.6326 28.7661 44.0755 30.4982 44.3454 32.4826C44.3976 32.8395 44.4324 33.1963 44.4759 33.5532C44.3889 33.5532 44.3106 33.5619 44.2322 33.5793Z" fill="#F54748"/>
<path d="M56.4174 29.1487C55.6602 29.6448 55.0161 30.0191 54.4242 30.4542C52.8141 31.6205 52.4572 33.6833 53.5626 35.3544C53.8672 35.8244 54.0935 36.2857 54.8594 36.2074C55.5209 36.1378 56.0257 36.7209 56.1215 37.3302C56.2259 38.0091 55.9474 38.4703 55.2598 38.7837C54.7289 39.0187 54.4591 39.332 54.6418 39.9761C54.8072 40.5679 54.7463 41.1946 54.1979 41.595C53.9891 41.7516 53.5974 41.8648 53.4059 41.7603C53.1796 41.6472 52.9794 41.2991 52.9446 41.0205C52.9011 40.7072 52.9446 40.2807 53.1274 40.0544C53.667 39.4103 53.6409 38.7402 53.4842 37.9394C53.7802 38.157 54.0587 38.4181 54.3807 38.5835C54.7115 38.7489 55.5383 38.3746 55.7211 38.0003C55.9474 37.5391 55.8952 37.0603 55.4774 36.7644C55.1902 36.5642 54.7985 36.5033 54.4416 36.4163C54.3024 36.3815 54.137 36.4598 53.9891 36.4772C50.9341 33.1785 53.3363 30.1235 56.4174 29.1487ZM53.0229 40.4287C53.2231 40.8378 53.3189 41.2381 53.5626 41.4557C53.7889 41.6472 54.3198 41.1424 54.3807 40.7246C54.3894 40.6463 54.4068 40.5592 54.3807 40.4896C54.2676 40.1589 54.4678 39.5496 53.9107 39.5931C53.6322 39.6105 53.3798 40.0805 53.0229 40.4287Z" fill="#F54748"/>
<path d="M52.7967 41.5518C52.2309 42.2046 51.4563 42.4918 50.6556 42.6485C49.4022 42.8922 48.1402 42.9531 46.913 42.4483C46.6258 42.3264 46.3037 42.2046 46.0861 41.9957C44.3889 40.3246 43.3706 38.3924 43.9102 35.9118C43.9711 35.6246 44.093 35.3548 44.2322 35.085C43.4402 37.6874 44.2235 39.9155 46.1383 41.5953C48.2533 43.4492 50.5772 42.5788 52.7967 41.5518Z" fill="#F54748"/>
<path d="M55.286 29.0706C53.9717 29.6625 52.788 29.236 51.6304 29.0097C50.6295 28.8182 49.6634 28.853 48.706 29.1402C47.2437 29.5754 46.1732 30.4893 45.4856 31.8471C45.3637 32.0908 45.2245 32.3258 45.0939 32.5695C45.0417 32.5434 44.9895 32.5173 44.9373 32.4912C45.2158 31.9602 45.4334 31.3771 45.7902 30.8984C47.1132 29.1141 48.9584 28.4875 51.1169 28.6876C52.2397 28.7921 53.345 28.9662 54.4678 29.0967C54.6767 29.1228 54.9117 29.0793 55.286 29.0706Z" fill="#F54748"/>
<path d="M48.1664 37.2692C47.7312 38.0178 46.5997 38.07 46.1558 37.4085C46.0601 37.2605 46.0253 36.9559 46.1123 36.8254C46.504 36.2422 46.9566 35.7026 47.5049 35.2239C47.2612 35.6155 47.0175 35.9985 46.7825 36.3902C46.6084 36.6687 46.1123 36.9559 46.504 37.2692C46.7912 37.4955 47.296 37.4694 47.7051 37.4955C47.8443 37.5042 48.0097 37.3476 48.1664 37.2692Z" fill="#F54748"/>
<path d="M51.9872 32.6477C51.3431 32.4911 50.7252 32.3518 50.2029 32.2213C50.6468 31.8296 51.7 32.0124 51.9872 32.6477Z" fill="#F54748"/>
<path d="M55.6515 28.4178C55.077 28.1915 54.5809 27.9913 54.0935 27.7998C54.6854 27.7911 55.2946 27.7389 55.6515 28.4178Z" fill="#F54748"/>
<path d="M47.3046 31.995C46.9565 31.8035 46.5996 31.6033 46.2602 31.4205C46.6954 31.0463 47.0435 31.229 47.3046 31.995Z" fill="#F54748"/>
<path d="M56.8875 29.9753C56.6351 30.4105 56.3827 30.837 56.139 31.2635C55.9823 30.7152 56.2956 30.1929 56.8875 29.9753Z" fill="#F54748"/>
<path d="M49.7417 35.7375C48.9844 35.5983 48.4535 35.0674 48.5492 34.5451C48.645 34.0229 49.3326 33.7096 50.0898 33.8401C50.847 33.9794 51.3779 34.5103 51.2822 35.0325C51.1865 35.5548 50.4902 35.8681 49.7417 35.7375ZM50.0376 34.0577C49.4022 33.9446 48.8278 34.1796 48.7581 34.58C48.6885 34.9803 49.1411 35.4068 49.7765 35.52C50.4118 35.6331 50.9863 35.3981 51.0559 34.9977C51.1342 34.5887 50.6729 34.1709 50.0376 34.0577Z" fill="#F54748"/>
<path d="M50.7441 35.1827C50.8031 34.8563 50.6169 34.5495 50.3284 34.4973C50.0398 34.4452 49.7581 34.6675 49.6991 34.994C49.6402 35.3204 49.8263 35.6272 50.1148 35.6794C50.4034 35.7315 50.6851 35.5092 50.7441 35.1827Z" fill="#F54748"/>
<path d="M51.0386 34.5017C51.1082 34.4582 51.1691 34.4408 51.23 34.4147C51.291 34.3886 51.3519 34.3973 51.4128 34.3711C51.4737 34.3537 51.526 34.3189 51.5782 34.2841C51.6304 34.2493 51.6652 34.1884 51.7 34.1274L51.7174 34.1361C51.7 34.2058 51.6739 34.2754 51.6304 34.3363C51.5869 34.3973 51.526 34.4408 51.4563 34.4843C51.3954 34.5191 51.3258 34.5626 51.2474 34.5626C51.1691 34.5626 51.0995 34.5539 51.0298 34.5191L51.0386 34.5017Z" fill="#F54748"/>
<path d="M50.7687 34.2056C50.8471 34.1795 50.908 34.1708 50.9776 34.1534C51.0386 34.136 51.0995 34.136 51.1604 34.1099C51.2213 34.0838 51.2736 34.049 51.3258 34.0055C51.3519 33.9881 51.3693 33.9532 51.3954 33.9271C51.4128 33.901 51.4389 33.8662 51.4563 33.8401L51.4737 33.8488C51.4563 33.9184 51.4302 33.9881 51.3867 34.0577C51.3432 34.1273 51.291 34.1795 51.2213 34.2231C51.1517 34.2666 51.0821 34.3101 50.995 34.3101C50.9167 34.3101 50.8297 34.284 50.7687 34.2318V34.2056Z" fill="#F54748"/>
<path d="M50.4119 34.0055C50.4989 33.9794 50.5685 33.962 50.6469 33.9533C50.7252 33.9446 50.7948 33.9533 50.8732 33.9446C50.9428 33.9359 51.0124 33.9098 51.0733 33.8663C51.1343 33.8228 51.1604 33.7531 51.1778 33.6748H51.1952C51.2126 33.7531 51.1865 33.8489 51.1343 33.9185C51.0733 33.9881 50.995 34.0317 50.9167 34.0578C50.8383 34.0839 50.7513 34.11 50.6643 34.1013C50.5772 34.0926 50.4989 34.0752 50.4206 34.023L50.4119 34.0055Z" fill="#F54748"/>
<path d="M46.6781 34.6761C46.5475 34.65 46.417 34.6152 46.2864 34.563C45.5814 34.2757 45.1636 33.6317 45.3725 33.1443C45.477 32.9005 45.7033 32.7265 46.0253 32.6655C46.3299 32.6046 46.6868 32.6481 47.0175 32.7874C47.7225 33.0746 48.1403 33.7187 47.9314 34.2061C47.766 34.5978 47.2438 34.7805 46.6781 34.6761ZM46.5736 32.8831C46.3996 32.8483 46.2255 32.8483 46.0688 32.8831C45.8251 32.9354 45.6423 33.0572 45.5727 33.2313C45.416 33.6055 45.7729 34.1191 46.3647 34.3628C46.9566 34.6065 47.5658 34.502 47.7225 34.1191C47.8792 33.7448 47.5223 33.2313 46.9305 32.9876C46.8086 32.9354 46.6955 32.9005 46.5736 32.8831Z" fill="#F54748"/>
<path d="M47.4667 34.0988C47.5257 33.7724 47.3396 33.4655 47.051 33.4134C46.7625 33.3612 46.4808 33.5836 46.4218 33.91C46.3628 34.2364 46.5489 34.5432 46.8375 34.5954C47.126 34.6475 47.4078 34.4252 47.4667 34.0988Z" fill="#F54748"/>
<path d="M45.8425 32.8306C45.7641 32.8306 45.6945 32.7958 45.6336 32.7522C45.5726 32.7087 45.5378 32.6391 45.503 32.5695C45.4682 32.4998 45.4421 32.4302 45.4421 32.3519C45.4334 32.2735 45.4508 32.2039 45.4769 32.1343H45.4943C45.4943 32.2039 45.4943 32.2735 45.5204 32.3345C45.5465 32.3954 45.5726 32.4476 45.6162 32.4998C45.6597 32.5521 45.7119 32.5869 45.7467 32.6391C45.7902 32.6913 45.8251 32.7435 45.8599 32.8132L45.8425 32.8306Z" fill="#F54748"/>
<path d="M46.2341 32.7262C46.147 32.7436 46.0687 32.7175 45.9991 32.6739C45.9294 32.6304 45.8859 32.5521 45.8511 32.4825C45.8163 32.4128 45.7989 32.3345 45.7989 32.2562C45.7989 32.1778 45.8163 32.1082 45.8337 32.0386H45.8511C45.8511 32.0734 45.8511 32.1082 45.8511 32.143C45.8598 32.1778 45.8598 32.2126 45.8685 32.2475C45.8859 32.3171 45.912 32.378 45.9469 32.4302C45.9817 32.4825 46.0426 32.5173 46.0774 32.5608C46.1209 32.6043 46.1731 32.6565 46.2254 32.7175L46.2341 32.7262Z" fill="#F54748"/>
<path d="M46.6345 32.7521C46.5474 32.7521 46.4604 32.726 46.3908 32.6912C46.3124 32.6564 46.2602 32.5867 46.208 32.5171C46.1558 32.4475 46.1035 32.3692 46.0948 32.2821C46.0861 32.1951 46.121 32.0993 46.1732 32.0471L46.1819 32.0558C46.1471 32.1255 46.1384 32.2038 46.1645 32.2734C46.1906 32.343 46.2341 32.3953 46.295 32.4475C46.3473 32.4997 46.4169 32.5258 46.4778 32.578C46.5387 32.6303 46.591 32.6825 46.6432 32.7521H46.6345Z" fill="#F54748"/>
<path d="M48.9497 39.1494C47.5919 41.5168 46.0252 39.1233 46.0252 39.1233L48.9497 39.1494Z" fill="#F54748"/>
<path d="M47.9661 42.6479C47.9661 42.6479 48.2795 43.1789 47.8791 43.3007L47.9661 42.6479Z" fill="#F54748"/>
<path d="M50.5772 43.3098C50.5772 43.3098 50.3944 42.9877 50.6555 42.657L50.5772 43.3098Z" fill="#F54748"/>
<path d="M48.5754 45.0158C48.5667 45.0158 48.5667 45.0158 48.558 45.0158C48.0271 44.9113 47.7224 44.3369 47.6615 43.3186C47.6528 43.1967 47.7485 43.0923 47.8704 43.0836C47.9922 43.0749 48.0967 43.1706 48.1054 43.2924C48.1576 44.0671 48.3491 44.5284 48.6537 44.5893H48.6624C49.1846 44.685 50.0811 43.7799 50.4032 43.1358C50.4554 43.0226 50.5946 42.9791 50.6991 43.04C50.8122 43.0923 50.8558 43.2315 50.7948 43.336C50.438 44.0236 49.4022 45.1724 48.5754 45.0158Z" fill="#F54748"/>
<path d="M48.8679 45.2732C48.9089 45.0461 48.8003 44.8364 48.6253 44.8048C48.4502 44.7732 48.2751 44.9316 48.2341 45.1587C48.193 45.3858 48.3017 45.5955 48.4767 45.6271C48.6517 45.6587 48.8269 45.5003 48.8679 45.2732Z" fill="#F54748"/>
<path d="M48.6363 32.2997C48.9199 32.2997 49.1498 32.0698 49.1498 31.7862C49.1498 31.5026 48.9199 31.2727 48.6363 31.2727C48.3527 31.2727 48.1228 31.5026 48.1228 31.7862C48.1228 32.0698 48.3527 32.2997 48.6363 32.2997Z" fill="#F54748"/>
<path d="M36.1117 64.4247C35.6156 64.3986 35.1107 63.6675 34.6059 62.2227C34.2752 61.2914 33.988 60.2208 33.7443 59.011C33.2743 59.098 32.517 59.1851 31.4552 59.2721C30.463 59.3592 29.697 59.4636 29.1661 59.5767C28.8789 60.4471 28.3741 61.744 27.6517 63.4934C27.3731 64.0592 26.9902 64.3464 26.4941 64.3464C26.1459 64.3464 25.8326 64.1984 25.5541 63.9025C25.2756 63.6066 25.1363 63.2323 25.1363 62.771C25.1363 62.3706 25.5976 61.0042 26.5202 58.6803C26.4331 58.4366 26.3983 58.2103 26.407 57.9927C26.4331 57.6184 26.7378 57.3225 27.3209 57.1049C28.2174 55.164 29.2096 53.1534 30.3063 51.0732C31.8817 48.0879 32.8565 46.5908 33.222 46.5908C33.9183 46.5908 34.3796 47.113 34.6146 48.1662C34.7365 49.0105 34.9367 50.2725 35.2065 51.961C35.5894 54.2327 36.0594 56.8264 36.6165 59.7508C36.66 59.9684 36.8254 60.4906 37.0952 61.3088C37.3215 61.9877 37.4346 62.4925 37.4346 62.8319C37.4346 63.2932 37.2954 63.6675 37.0256 63.9808C36.7731 64.2942 36.4598 64.4421 36.1117 64.4247ZM32.5867 52.3005C32.0993 53.3536 31.4204 54.7984 30.55 56.6175C30.8372 56.5392 31.2724 56.4782 31.873 56.426C32.578 56.3738 33.0218 56.3303 33.2046 56.2955C33.0654 55.2684 32.8565 53.9367 32.5867 52.3005Z" fill="#F54748"/>
<path d="M42.9789 54.7375C42.6917 56.017 42.3 57.9405 41.7865 60.5168C41.6646 61.4046 41.5515 62.2923 41.4383 63.1801C41.1772 64.3029 40.7072 64.8599 40.0109 64.8599C39.5758 64.8599 39.2363 64.6771 38.9839 64.3029C38.7663 63.9896 38.6619 63.6153 38.6619 63.1801C38.6619 61.9007 38.8795 60.3514 39.3146 58.5149C39.9674 55.7646 40.3156 54.2414 40.3678 53.9368C40.5506 52.727 40.7333 51.5084 40.9248 50.2986C41.2121 48.6275 41.5167 47.5134 41.8474 46.9564C42.1782 46.3994 42.5959 46.1209 43.1008 46.1209C43.6752 46.1209 44.093 46.4864 44.3715 47.2088C44.6239 47.8964 44.8937 49.2977 45.1809 51.4127C45.4595 53.4668 45.8685 55.6862 46.4169 58.0536C47.1393 55.7123 47.8008 53.1447 48.4187 50.3508L48.9496 47.6353C49.2891 46.5125 49.82 45.9468 50.525 45.9468C51.2126 45.9468 51.7261 46.5996 52.0569 47.9051C52.1961 48.436 52.3441 49.4196 52.5008 50.8644C52.8663 54.224 53.3276 57.0962 53.8846 59.4897C54.4417 61.9268 54.7289 63.2497 54.7289 63.4586C54.7289 63.9199 54.5809 64.3116 54.285 64.6249C54.0065 64.9121 53.6932 65.0514 53.345 65.0514C52.6574 65.0514 52.1439 64.4334 51.8132 63.2062L51.2822 60.3427C50.9776 58.924 50.6556 56.8873 50.2987 54.2327C50.0115 55.2858 49.5415 56.9483 48.8887 59.2112L48.323 61.3871C48.088 62.2488 47.8443 62.9538 47.5919 63.5021C47.2611 64.2333 46.7911 64.5988 46.1906 64.5988C45.5987 64.5988 45.1461 64.1636 44.8328 63.2845L44.3019 61.0825C43.8145 59.072 43.3706 56.957 42.9789 54.7375Z" fill="#F54748"/>
<path d="M59.5943 54.7375C59.307 56.017 58.9154 57.9405 58.4019 60.5168C58.28 61.4046 58.1669 62.2923 58.0537 63.1801C57.7926 64.3029 57.3226 64.8599 56.6263 64.8599C56.1911 64.8599 55.8517 64.6771 55.5993 64.3029C55.3817 63.9896 55.2772 63.6153 55.2772 63.1801C55.2772 61.9007 55.4948 60.3514 55.93 58.5149C56.5828 55.7646 56.9309 54.2414 56.9832 53.9368C57.1659 52.727 57.3487 51.5084 57.5402 50.2986C57.8274 48.6275 58.132 47.5134 58.4628 46.9564C58.7935 46.3994 59.2113 46.1209 59.7161 46.1209C60.2906 46.1209 60.7083 46.4864 60.9869 47.2088C61.2393 47.8964 61.5091 49.2977 61.7963 51.4127C62.0748 53.4668 62.4839 55.6862 63.0322 58.0536C63.7546 55.7123 64.4161 53.1447 65.0341 50.3508L65.565 47.6353C65.9044 46.5125 66.4354 45.9468 67.1404 45.9468C67.828 45.9468 68.3415 46.5996 68.6722 47.9051C68.8115 48.436 68.9594 49.4196 69.1161 50.8644C69.4817 54.224 69.943 57.0962 70.5 59.4897C71.057 61.9268 71.3443 63.2497 71.3443 63.4586C71.3443 63.9199 71.1963 64.3116 70.9004 64.6249C70.6219 64.9121 70.3085 65.0514 69.9604 65.0514C69.2728 65.0514 68.7593 64.4334 68.4285 63.2062L67.8976 60.3427C67.593 58.924 67.2709 56.8873 66.9141 54.2327C66.6269 55.2858 66.1569 56.9483 65.5041 59.2112L64.9383 61.3871C64.7033 62.2488 64.4596 62.9538 64.2072 63.5021C63.8765 64.2333 63.4065 64.5988 62.8059 64.5988C62.2141 64.5988 61.7615 64.1636 61.4482 63.2845L60.9172 61.0825C60.4211 59.072 59.9859 56.957 59.5943 54.7375Z" fill="#F54748"/>
<path d="M83.0246 64.4247C82.5285 64.3986 82.0237 63.6675 81.5189 62.2227C81.1881 61.2914 80.9009 60.2208 80.6572 59.011C80.1872 59.098 79.43 59.1851 78.3681 59.2721C77.3759 59.3592 76.61 59.4636 76.0791 59.5767C75.7918 60.4471 75.287 61.744 74.5646 63.4934C74.2861 64.0592 73.9031 64.3464 73.407 64.3464C73.0589 64.3464 72.7456 64.1984 72.467 63.9025C72.1885 63.6066 72.0493 63.2323 72.0493 62.771C72.0493 62.3706 72.5106 61.0042 73.4331 58.6803C73.3461 58.4366 73.3113 58.2103 73.32 57.9927C73.3461 57.6184 73.6507 57.3225 74.2339 57.1049C75.1304 55.164 76.1226 53.1534 77.2193 51.0732C78.7946 48.0879 79.7694 46.5908 80.135 46.5908C80.8313 46.5908 81.2926 47.113 81.5276 48.1662C81.6494 49.0105 81.8496 50.2725 82.1194 51.961C82.5024 54.2327 82.9724 56.8264 83.5294 59.7508C83.573 59.9684 83.7383 60.4906 84.0081 61.3088C84.2344 61.9877 84.3476 62.4925 84.3476 62.8319C84.3476 63.2932 84.2083 63.6675 83.9385 63.9808C83.6774 64.2942 83.3728 64.4421 83.0246 64.4247ZM79.4909 52.3005C79.0035 53.3536 78.3246 54.7984 77.4543 56.6175C77.7415 56.5392 78.1767 56.4782 78.7772 56.426C79.4822 56.3738 79.9261 56.3303 80.1089 56.2955C79.9696 55.2684 79.7607 53.9367 79.4909 52.3005Z" fill="#F54748"/>
<path d="M17.8165 35.5459C17.5293 36.8253 17.1376 38.7488 16.6241 41.3251C16.5022 42.2129 16.3891 43.1007 16.2759 43.9885C16.0148 45.1112 15.5448 45.6683 14.8485 45.6683C14.4133 45.6683 14.0739 45.4855 13.8215 45.1112C13.6039 44.7979 13.4995 44.4236 13.4995 43.9885C13.4995 42.709 13.717 41.1598 14.1522 39.3233C14.805 36.5729 15.1532 35.0498 15.2054 34.7451C15.3882 33.5353 15.5709 32.3168 15.7624 31.107C16.0496 29.4359 16.3543 28.3218 16.685 27.7648C17.0157 27.2077 17.4335 26.9292 17.9383 26.9292C18.5128 26.9292 18.9306 27.2948 19.2091 28.0172C19.4615 28.7048 19.7313 30.1061 20.0185 32.2211C20.297 34.2751 20.7061 36.4946 21.2544 38.862C21.9769 36.5207 22.6383 33.9531 23.2563 31.1592L23.7872 28.4436C24.1267 27.3209 24.6576 26.7551 25.3626 26.7551C26.0502 26.7551 26.5637 27.4079 26.8945 28.7135C27.0337 29.2444 27.1817 30.2279 27.3383 31.6727C27.7039 35.0323 28.1652 37.9046 28.7222 40.2981C29.2793 42.7351 29.5665 44.0581 29.5665 44.267C29.5665 44.7283 29.4185 45.1199 29.1226 45.4333C28.8441 45.7205 28.5307 45.8598 28.1826 45.8598C27.495 45.8598 26.9815 45.2418 26.6507 44.0146L26.1198 41.1511C25.8152 39.7323 25.4932 37.6957 25.1363 35.0411C24.8491 36.0942 24.3791 37.7566 23.7263 40.0196L23.1606 42.1955C22.9256 43.0572 22.6819 43.7622 22.4295 44.3105C22.0987 45.0416 21.6287 45.4072 21.0282 45.4072C20.4363 45.4072 19.9837 44.972 19.6704 44.0929L19.1394 41.8909C18.6433 39.889 18.2082 37.7653 17.8165 35.5459Z" fill="#F54748"/>
<path d="M41.2469 45.2331C40.7507 45.207 40.2459 44.4758 39.7411 43.031C39.4104 42.0997 39.1232 41.0292 38.8794 39.8194C38.4094 39.9064 37.6522 39.9934 36.5904 40.0805C35.5982 40.1675 34.8322 40.2719 34.3013 40.3851C34.0141 41.2555 33.5093 42.5523 32.7869 44.3018C32.5083 44.8675 32.1254 45.1547 31.6293 45.1547C31.2811 45.1547 30.9678 45.0068 30.6893 44.7108C30.4107 44.4149 30.2715 44.0407 30.2715 43.5794C30.2715 43.179 30.7328 41.8125 31.6554 39.4886C31.5683 39.2449 31.5335 39.0186 31.5422 38.801C31.5683 38.4268 31.873 38.1308 32.4561 37.9132C33.3526 35.9723 34.3448 33.9618 35.4415 31.8816C37.0169 28.8962 37.9917 27.3992 38.3572 27.3992C39.0535 27.3992 39.5148 27.9214 39.7498 28.9745C39.8717 29.8188 40.0719 31.0808 40.3417 32.7694C40.7246 35.041 41.1946 37.6347 41.7517 40.5592C41.7952 40.7768 41.9606 41.299 42.2304 42.1171C42.4567 42.796 42.5698 43.3008 42.5698 43.6403C42.5698 44.1016 42.4306 44.4758 42.1607 44.7892C41.8996 45.1025 41.595 45.2505 41.2469 45.2331ZM37.7219 33.1088C37.2344 34.1619 36.5556 35.6068 35.6852 37.4258C35.9724 37.3475 36.4076 37.2866 37.0082 37.2344C37.7132 37.1821 38.157 37.1386 38.3398 37.1038C38.1919 36.0768 37.983 34.7451 37.7219 33.1088Z" fill="#F54748"/>
<path d="M7.31109 55.2859C7.15442 55.6514 7.04998 56.0344 6.97164 56.4261C6.89331 56.8177 6.84979 57.2094 6.84979 57.6011C6.84109 57.8013 6.8672 57.9927 6.8759 58.1929L6.91072 58.4889C6.91942 58.5846 6.93683 58.6803 6.95424 58.7761C7.00646 59.1677 7.13701 59.542 7.25887 59.925L7.25016 59.9337C7.05868 59.5855 6.91072 59.2026 6.83238 58.8109C6.78016 58.6107 6.77146 58.4105 6.74535 58.2103C6.74535 58.0101 6.72794 57.81 6.74535 57.6098C6.76275 57.2094 6.81498 56.809 6.91072 56.4174C7.00646 56.0257 7.13701 55.6514 7.30238 55.2859H7.31109Z" fill="#F54748"/>
<path d="M7.23277 52.0307C6.64091 51.5868 6.5974 50.6729 6.57999 50.29C6.57999 50.229 6.57128 50.1681 6.57128 50.142C6.25795 48.0879 7.66795 46.1644 9.72203 45.8511C10.7055 45.7031 11.7848 45.999 12.69 46.6605C13.5952 47.322 14.2044 48.2707 14.3524 49.2455L14.1261 49.2803C13.8302 47.3307 11.7065 45.7727 9.75684 46.0687C7.82462 46.3646 6.49295 48.175 6.78888 50.1072C6.79758 50.142 6.79758 50.2029 6.79758 50.2726C6.81499 50.6294 6.85851 51.465 7.36332 51.8479L7.23277 52.0307Z" fill="#F54748"/>
<path d="M14.2392 49.2629C15.6666 49.0453 16.9722 49.4283 18.1994 50.1159C20.6887 51.4998 21.855 53.6583 21.8637 56.487C21.8637 56.5479 21.8811 56.6088 21.855 56.6611C21.8202 56.7481 21.7679 56.8177 21.7157 56.8961C21.6548 56.8177 21.5591 56.7394 21.5329 56.6524C21.4981 56.5218 21.62 56.3564 21.6113 56.2172C21.5155 53.4668 20.2274 51.3692 17.7816 50.1072C16.4848 49.4457 14.8572 49.4109 13.4385 49.6111C13.2818 49.6372 12.925 49.82 12.7683 49.82C12.925 49.7242 13.0816 49.4805 13.247 49.4196C13.4646 49.3413 14.0216 49.3064 14.2392 49.2629Z" fill="#F54748"/>
<path d="M10.0963 63.659C9.60886 63.7373 8.54701 63.2412 8.21627 62.9105C6.09257 60.8042 5.27442 58.2018 5.77923 55.1816C5.81405 54.964 5.97942 54.259 6.01423 54.1633C6.31886 53.1971 6.69312 52.466 7.19794 51.8481C7.24146 51.7958 7.29368 51.7262 7.3459 51.6566C7.75498 51.1344 8.45127 50.2553 9.37386 49.7853C10.192 49.3762 11.0102 49.2718 11.7587 49.4894C12.69 49.7592 13.4646 50.412 13.7779 51.1866C13.9781 51.6827 13.9607 52.1875 13.7257 52.614C13.4994 53.0057 13.2035 53.406 12.7683 53.8847C12.4289 54.259 12.0459 54.6071 11.7326 54.8857C11.3148 55.2599 11.0885 55.7212 11.0363 56.3044C11.0189 56.4871 11.0102 56.6873 11.0015 56.8701L10.9928 56.992C10.9579 57.8014 10.6794 58.4194 10.1572 58.9068L10.1398 58.9242C10.0876 58.9677 9.99183 59.0634 9.98312 59.0983C9.98312 59.0983 10.0005 59.1331 10.1224 59.194C10.2094 59.2375 10.2355 59.3246 10.2616 59.4029C10.2703 59.4203 10.2703 59.4377 10.279 59.4551C10.2965 59.4986 10.2965 59.5421 10.2703 59.577C10.2442 59.6118 10.2094 59.6379 10.1659 59.6466L10.105 59.6553C10.0615 59.664 10.0092 59.664 9.96572 59.6727C9.88738 59.6814 9.81775 59.6814 9.73942 59.6814C9.59146 59.6814 9.44349 59.6814 9.33035 59.7249C9.17368 59.7858 9.06053 59.899 9.02572 60.047C8.9822 60.2036 9.01701 60.3777 9.13016 60.5344C9.2346 60.6736 9.29553 60.7084 9.4609 60.6388C9.99183 60.4038 10.5315 60.4386 10.9318 60.7258C11.3409 61.0131 11.5411 61.5179 11.4889 62.1097C11.454 62.484 11.3322 62.7538 11.1059 62.9279C10.8883 63.0933 10.5924 63.1455 10.2268 63.0758C10.2268 63.0758 10.2268 63.0758 10.2181 63.0758C10.34 63.2499 10.4183 63.4588 10.2703 63.5981C10.2355 63.6242 10.1746 63.6503 10.0963 63.659ZM10.5402 49.6896C10.2007 49.7418 9.84386 49.8549 9.49572 50.029C8.61664 50.4642 7.95516 51.3171 7.55479 51.822C7.49386 51.8916 7.44164 51.9612 7.39812 52.0134C6.91942 52.5966 6.56257 53.3016 6.26664 54.2329C6.24053 54.3112 6.08386 54.9988 6.04035 55.2164C5.54423 58.1409 6.34498 60.6649 8.40775 62.7103C8.79942 63.102 9.9396 63.4849 10.0876 63.3718C10.0789 63.3718 10.0789 63.2586 9.77423 62.9279C9.73072 62.8844 9.72201 62.8234 9.75683 62.7712C9.78294 62.719 9.84386 62.6929 9.90479 62.7016L10.0092 62.719C10.0963 62.7364 10.192 62.7538 10.279 62.7712C10.5576 62.8234 10.7839 62.7886 10.9405 62.6755C11.0972 62.5536 11.1929 62.3447 11.219 62.0488C11.2626 61.5614 11.0972 61.1436 10.7752 60.9086C10.4531 60.6736 10.0179 60.6562 9.57405 60.8477C9.2346 60.9957 9.04312 60.8216 8.92127 60.6562C8.7559 60.4386 8.70368 60.1775 8.77331 59.9338C8.83423 59.7075 9.00831 59.5247 9.24331 59.4377C9.39997 59.3768 9.57405 59.3768 9.74812 59.3681C9.80905 59.3681 9.87868 59.3681 9.9396 59.3594C9.84386 59.3071 9.74812 59.2201 9.73072 59.0983C9.70461 58.9329 9.84386 58.8023 9.97442 58.6892L9.99183 58.6718C10.4618 58.2453 10.7142 57.6796 10.7403 56.9484L10.749 56.8266C10.7578 56.6351 10.7665 56.4436 10.7839 56.2434C10.8448 55.5994 11.1146 55.0597 11.5759 54.642C11.9676 54.2938 12.2896 53.9979 12.5942 53.6671C13.0207 53.1971 13.2992 52.8229 13.5168 52.4399C13.7692 51.996 13.6735 51.5521 13.5516 51.2475C13.2731 50.5599 12.5507 49.9507 11.7065 49.707C11.3235 49.6547 10.9318 49.6286 10.5402 49.6896Z" fill="#F54748"/>
<path d="M13.952 51.8306C15.3881 51.7957 17.2594 51.8915 18.4083 52.6139C18.9305 52.9359 19.4005 53.3537 19.8444 53.7715C20.2361 54.1457 20.6452 54.5722 20.828 55.0596C20.8541 55.138 20.8105 55.3643 20.8367 55.4513C20.7322 55.4426 20.7583 55.2772 20.6974 55.225C20.5059 55.0683 20.3057 54.8943 20.1665 54.6941C18.9218 52.9011 17.1637 52.1352 15.0313 52.1178C14.892 52.1178 14.2044 52.0568 14.0739 52.0133C13.9955 51.9959 13.9346 51.9176 13.865 51.8654C13.9346 51.8393 14.0042 51.8131 13.952 51.8306Z" fill="#F54748"/>
<path d="M13.9434 55.7205C13.7606 55.616 13.5343 55.6422 13.3864 55.7814C13.2558 55.9033 13.1427 56.0077 13.0295 56.1209C12.986 56.1557 12.9338 56.1818 12.8903 56.2166C12.8729 56.147 12.8293 56.0773 12.8467 56.0164C12.9251 55.6422 13.2732 55.3462 13.6736 55.294C14.0479 55.2505 14.4569 55.4507 14.5962 55.7727C14.631 55.8423 14.5875 55.9381 14.5788 56.0251C14.5092 56.0077 14.4395 55.999 14.3786 55.9729C14.2306 55.8859 14.0914 55.8075 13.9434 55.7205Z" fill="#F54748"/>
<path d="M17.2593 54.0507C17.3028 54.0507 17.4073 54.0246 17.4856 54.0507C17.6423 54.1116 17.7728 54.2073 17.9208 54.2857C17.7815 54.3031 17.651 54.3205 17.5117 54.3205C17.12 54.3205 16.8328 54.4423 16.7632 54.8862C16.7545 54.9646 16.6239 55.0255 16.5543 55.0951C16.5108 54.9994 16.4325 54.8949 16.4412 54.7992C16.4673 54.4249 16.7806 54.1203 17.2593 54.0507Z" fill="#F54748"/>
<path d="M14.5787 59.0372C14.0304 59.1242 13.5343 58.8022 13.4559 58.3322C13.3863 57.8622 13.7693 57.4096 14.3176 57.3226C14.8659 57.2355 15.362 57.5576 15.4404 58.0276C15.51 58.4976 15.127 58.9502 14.5787 59.0372ZM14.3437 57.4792C13.8824 57.5489 13.5604 57.9231 13.6213 58.3061C13.6822 58.6891 14.1 58.9502 14.5613 58.8805C15.0226 58.8109 15.3446 58.4366 15.2837 58.0537C15.2228 57.6707 14.805 57.4096 14.3437 57.4792Z" fill="#F54748"/>
<path d="M18.5041 57.4618C17.9557 57.5488 17.4596 57.2268 17.3813 56.7568C17.3116 56.2868 17.6946 55.8342 18.2429 55.7471C18.7913 55.6601 19.2874 55.9821 19.3657 56.4521C19.4354 56.9221 19.0437 57.3747 18.5041 57.4618ZM18.2604 55.9038C17.7991 55.9734 17.477 56.3477 17.5379 56.7306C17.5989 57.1136 18.0166 57.3747 18.4779 57.3051C18.9392 57.2355 19.2613 56.8612 19.2004 56.4782C19.1394 56.0953 18.7216 55.8342 18.2604 55.9038Z" fill="#F54748"/>
<path d="M18.7582 57.3601C19.0006 57.323 19.1682 57.1043 19.1326 56.8714C19.097 56.6386 18.8717 56.4799 18.6293 56.5169C18.387 56.554 18.2194 56.7727 18.255 57.0056C18.2906 57.2384 18.5159 57.3971 18.7582 57.3601Z" fill="#F54748"/>
<path d="M14.8066 58.7719C15.0489 58.7349 15.2165 58.5161 15.1809 58.2833C15.1453 58.0505 14.92 57.8917 14.6777 57.9288C14.4353 57.9658 14.2677 58.1846 14.3033 58.4174C14.3389 58.6503 14.5642 58.809 14.8066 58.7719Z" fill="#F54748"/>
<path d="M12.2461 58.1755C12.307 58.1842 12.3679 58.1929 12.4289 58.1929C12.4898 58.2016 12.5507 58.2104 12.6029 58.2191C12.6639 58.2278 12.7248 58.2452 12.777 58.2539L12.8641 58.2713C12.8902 58.28 12.925 58.2887 12.9511 58.2974C12.925 58.2974 12.8902 58.2887 12.8641 58.2887L12.777 58.28C12.7161 58.2713 12.6552 58.2626 12.6029 58.2539C12.542 58.2452 12.4811 58.2278 12.4289 58.2191C12.3679 58.2016 12.307 58.1929 12.2461 58.1755Z" fill="#F54748"/>
<path d="M12.69 59.0981C12.7422 59.0198 12.7944 58.9502 12.8554 58.8718C12.9163 58.8022 12.9772 58.7326 13.0382 58.6716C12.9859 58.75 12.9337 58.8196 12.8728 58.8979C12.8206 58.9589 12.7596 59.0285 12.69 59.0981Z" fill="#F54748"/>
<path d="M12.3505 58.7071C12.4375 58.6636 12.5245 58.6201 12.6203 58.5852C12.716 58.5504 12.8031 58.5156 12.8988 58.4895C12.8118 58.533 12.7247 58.5765 12.629 58.6114C12.5419 58.6462 12.4462 58.681 12.3505 58.7071Z" fill="#F54748"/>
<path d="M19.505 55.3821C19.4789 55.4256 19.4615 55.4778 19.4441 55.5213C19.4267 55.5736 19.4006 55.6171 19.3832 55.6693C19.3657 55.7215 19.3483 55.765 19.3309 55.8173L19.3048 55.8956C19.2961 55.9217 19.2874 55.9478 19.2874 55.9739C19.2961 55.9478 19.3135 55.9304 19.3222 55.9043L19.357 55.8347C19.3745 55.7825 19.4006 55.7389 19.418 55.6867C19.4354 55.6345 19.4528 55.591 19.4702 55.5387C19.4789 55.4865 19.4963 55.4343 19.505 55.3821Z" fill="#F54748"/>
<path d="M20.0533 56.3216C19.9663 56.3042 19.8792 56.2955 19.7922 56.2868C19.7052 56.2781 19.6181 56.2781 19.5398 56.2781C19.6268 56.2955 19.7139 56.3042 19.8009 56.3129C19.8879 56.3216 19.975 56.3303 20.0533 56.3216Z" fill="#F54748"/>
<path d="M19.8967 55.8169C19.8183 55.8517 19.7487 55.8865 19.6704 55.93C19.6007 55.9736 19.5311 56.0171 19.4615 56.0693C19.5398 56.0345 19.6094 55.9997 19.6878 55.9562C19.7574 55.9039 19.827 55.8604 19.8967 55.8169Z" fill="#F54748"/>
<path d="M14.1957 60.7169C13.012 60.8997 11.8979 60.0816 11.7152 58.8891C11.5324 57.7054 12.3505 56.5914 13.5429 56.4086C14.7266 56.2258 15.8407 57.044 16.0235 58.2364C16.1976 59.4201 15.3794 60.5341 14.1957 60.7169ZM13.5604 56.5653C12.4637 56.7306 11.7065 57.7664 11.8718 58.863C12.0372 59.9597 13.0729 60.7169 14.1696 60.5516C15.2663 60.3862 16.0235 59.3504 15.8581 58.2538C15.6928 57.1571 14.657 56.3999 13.5604 56.5653Z" fill="#F54748"/>
<path d="M18.9567 58.6897C17.8514 58.8551 16.8069 58.0283 16.6241 56.8446C16.4414 55.6608 17.1986 54.5555 18.304 54.3814C19.4093 54.216 20.4538 55.0429 20.6366 56.2266C20.8193 57.419 20.0621 58.5157 18.9567 58.6897ZM18.3301 54.5381C17.3117 54.6947 16.6241 55.7131 16.7895 56.8097C16.9549 57.9064 17.921 58.681 18.9393 58.5244C19.9577 58.3677 20.6453 57.3494 20.4799 56.2527C20.3058 55.156 19.3397 54.3814 18.3301 54.5381Z" fill="#F54748"/>
<path d="M11.8196 59.0546L9.93961 59.133L9.93091 59.0372L11.8109 58.9502L11.8196 59.0546Z" fill="#F54748"/>
<path d="M15.9451 57.7751L15.7885 57.7403C15.7972 57.7229 15.9016 57.2093 16.241 57.044C16.4064 56.9656 16.5892 56.983 16.7894 57.0788L16.711 57.218C16.5544 57.1397 16.4238 57.1223 16.302 57.1832C16.0409 57.3225 15.9451 57.7751 15.9451 57.7751Z" fill="#F54748"/>
<path d="M20.4798 55.8601L20.4189 55.7905L20.8454 55.2422L20.9063 55.3118L20.4798 55.8601Z" fill="#F54748"/>
<path d="M17.5031 60.2732C17.1375 60.3254 16.7023 60.2732 16.3368 60.0469L16.4238 59.9076C16.8851 60.2035 17.4857 60.1774 17.8425 60.0034C18.0166 59.9163 18.1123 59.8119 18.1211 59.69C18.1733 59.0895 17.1811 58.0276 17.1723 58.0189L17.2942 57.9058C17.3377 57.9493 18.3386 59.0285 18.2864 59.6987C18.269 59.8728 18.1385 60.0382 17.9209 60.1426C17.799 60.2122 17.6598 60.2558 17.5031 60.2732Z" fill="#F54748"/>
<path d="M9.90482 62.9885C10.0006 63.737 10.5315 64.3288 11.0972 64.7814C11.6804 65.234 12.3419 65.5909 13.0643 65.7736C13.8476 65.9738 14.6657 65.9129 15.4404 65.7127C15.6406 65.6605 15.8407 65.5909 16.0409 65.5125C16.1367 65.4777 16.2324 65.4342 16.3282 65.3994C16.3717 65.382 16.4152 65.3646 16.4587 65.3559C16.4848 65.3472 16.5022 65.3384 16.5283 65.3297C16.537 65.3297 16.5545 65.321 16.5632 65.321C16.598 65.3123 16.5545 65.321 16.5893 65.3123C16.685 65.2862 16.7895 65.2601 16.8852 65.2514C16.9287 65.2427 16.9809 65.2427 17.0245 65.2427C17.0245 65.2427 17.0593 65.2427 17.0332 65.2427C17.0419 65.2427 17.0593 65.2427 17.068 65.2427C17.0941 65.2427 17.1202 65.2427 17.1463 65.2427C17.3291 65.2514 17.5119 65.2862 17.6946 65.3036C18.0428 65.3472 18.3996 65.3559 18.7478 65.2601C19.0959 65.1644 19.418 64.999 19.6617 64.7292C19.7226 64.6596 19.7748 64.5899 19.827 64.5116C19.8706 64.442 19.8706 64.3375 19.7922 64.2853C19.7226 64.2418 19.6182 64.2418 19.5659 64.3201C19.5137 64.3985 19.4615 64.4768 19.4006 64.5377C19.3832 64.5638 19.3919 64.5464 19.4006 64.5377C19.3919 64.5464 19.3832 64.5551 19.3832 64.5551C19.3657 64.5725 19.357 64.5812 19.3396 64.5986C19.3048 64.6247 19.2787 64.6509 19.2439 64.677C19.2178 64.7031 19.183 64.7205 19.1482 64.7466C19.1395 64.7553 19.1307 64.7553 19.122 64.764C19.1482 64.7466 19.1307 64.764 19.122 64.764C19.1046 64.7727 19.0785 64.7901 19.0611 64.7988C18.9915 64.8336 18.9132 64.8684 18.8435 64.8946C18.8087 64.912 18.7739 64.9207 18.7391 64.9294C18.7304 64.9294 18.7043 64.9381 18.7391 64.9294C18.7304 64.9294 18.7217 64.9381 18.713 64.9381C18.6956 64.9468 18.6695 64.9468 18.652 64.9555C18.5737 64.9729 18.4954 64.9903 18.4083 64.999C18.3735 65.0077 18.33 65.0077 18.2952 65.0077C18.2778 65.0077 18.2604 65.0077 18.2343 65.0077C18.2256 65.0077 18.2169 65.0077 18.2082 65.0077C18.1907 65.0077 18.182 65.0077 18.1995 65.0077C18.1124 65.0077 18.0341 65.0077 17.947 64.999C17.5641 64.9642 17.1898 64.8685 16.8069 64.9207C16.4065 64.9729 16.0409 65.1644 15.658 65.2949C15.6145 65.3123 15.5709 65.321 15.5274 65.3385C15.5535 65.3297 15.5187 65.3384 15.51 65.3472C15.5013 65.3472 15.4839 65.3559 15.4752 65.3559C15.4491 65.3646 15.423 65.3733 15.3969 65.3733C15.3011 65.3994 15.2054 65.4255 15.1096 65.4429C14.9182 65.4864 14.7267 65.5125 14.5352 65.5386C14.4395 65.5473 14.3437 65.556 14.2567 65.5647C14.2306 65.5647 14.2045 65.5647 14.1783 65.5647C14.1696 65.5647 14.1522 65.5647 14.1435 65.5647C14.1522 65.5647 14.1696 65.5647 14.1348 65.5647C14.0826 65.5647 14.0391 65.5647 13.9869 65.5647C13.7954 65.5647 13.6039 65.5473 13.4124 65.5125C13.3167 65.4951 13.2296 65.4777 13.1339 65.4516C13.1252 65.4516 13.1165 65.4429 13.0991 65.4429C13.1252 65.4516 13.0991 65.4429 13.0904 65.4429C13.073 65.4342 13.0469 65.4342 13.0295 65.4255C12.9859 65.4168 12.9424 65.3994 12.8902 65.382C12.7161 65.3297 12.5507 65.2688 12.3941 65.1905C12.3157 65.1557 12.2374 65.1209 12.1591 65.0773C12.1156 65.0599 12.0807 65.0338 12.0372 65.0164C12.0285 65.0077 12.0198 65.0077 12.0111 64.999C12.0198 64.999 12.0372 65.0077 12.0024 64.999C11.985 64.9903 11.9589 64.9729 11.9415 64.9642C11.7848 64.8772 11.6369 64.7814 11.4976 64.677C11.3583 64.5812 11.2191 64.4681 11.0885 64.3636C11.0537 64.3375 11.0276 64.3114 10.9928 64.2853C10.9754 64.2679 10.9667 64.2592 10.9493 64.2418C10.9232 64.2244 10.9406 64.2331 10.9493 64.2418C10.9406 64.2331 10.9232 64.2244 10.9145 64.207C10.8535 64.146 10.7926 64.0851 10.7317 64.0155C10.6707 63.9459 10.6185 63.8849 10.5663 63.8153C10.5402 63.7805 10.5141 63.7457 10.4967 63.7109C10.488 63.6935 10.4706 63.676 10.4619 63.6586C10.4619 63.6586 10.4445 63.6325 10.4619 63.6586C10.4532 63.6499 10.4445 63.6325 10.4445 63.6238C10.4009 63.5455 10.3574 63.4759 10.3313 63.3975C10.3139 63.3627 10.2965 63.3192 10.2878 63.2844C10.2791 63.267 10.2704 63.2496 10.2704 63.2235C10.2704 63.2147 10.2617 63.206 10.2617 63.1973C10.253 63.1799 10.2704 63.2147 10.2617 63.1886C10.2356 63.1016 10.2182 63.0233 10.2095 62.9362C10.2007 62.8492 10.1137 62.7883 10.0267 62.797C9.95704 62.8231 9.89612 62.9014 9.90482 62.9885Z" fill="#F54748"/>
<path d="M19.8357 64.5026C19.888 64.4242 19.9489 64.3459 20.0098 64.2763C20.0272 64.2589 20.0446 64.2328 20.062 64.2154C20.0707 64.2067 20.0707 64.198 20.0794 64.198C20.0533 64.2241 20.0881 64.1893 20.0881 64.1893C20.123 64.1457 20.1665 64.1109 20.21 64.0761C20.3667 63.9281 20.5407 63.7976 20.7148 63.667C21.0455 63.4233 21.4024 63.2057 21.7244 62.9533C22.0204 62.7183 22.2902 62.4485 22.4817 62.1178C22.7167 61.7261 22.8559 61.2909 22.9255 60.847C23.0648 59.9418 22.8733 59.028 22.5513 58.175C22.4642 57.9487 22.3598 57.7311 22.2467 57.5222C22.1335 57.3307 22.0117 57.1567 21.8898 56.9739C21.8289 56.8781 21.7592 56.7824 21.6983 56.6867C21.6809 56.6605 21.6635 56.6344 21.6461 56.6083C21.6374 56.5909 21.6287 56.5822 21.62 56.5648C21.62 56.5561 21.6113 56.5474 21.6113 56.5474C21.6461 56.5909 21.62 56.5561 21.6113 56.5474C21.5765 56.4865 21.533 56.4168 21.4981 56.3559C21.298 56.0078 21.1239 55.6509 20.9585 55.2941C20.9063 55.1809 20.8541 55.0591 20.8018 54.9459C20.767 54.8676 20.6626 54.8241 20.593 54.8676C20.5146 54.9111 20.4711 54.9981 20.5146 55.0765C20.8105 55.7554 21.1413 56.4168 21.5504 57.0261C21.6635 57.2002 21.7854 57.3743 21.8985 57.5483C21.9072 57.557 21.9159 57.5744 21.9159 57.5831C21.9159 57.5831 21.8898 57.5483 21.9072 57.5657C21.9072 57.5744 21.9159 57.5744 21.9159 57.5831C21.9333 57.6092 21.942 57.6267 21.9594 57.6528C21.9855 57.6963 22.0117 57.7398 22.0378 57.792C22.09 57.8965 22.1422 58.0009 22.1857 58.1054C22.2467 58.2359 22.2902 58.3752 22.3424 58.5057C22.3685 58.5841 22.3946 58.6624 22.4207 58.7494C22.4381 58.793 22.4468 58.8365 22.4642 58.88C22.4642 58.8887 22.473 58.9061 22.473 58.9148C22.473 58.9148 22.4817 58.9409 22.473 58.9148C22.4817 58.9496 22.4904 58.9844 22.5078 59.028C22.5687 59.263 22.6209 59.5067 22.647 59.7504C22.6644 59.8722 22.6731 59.9854 22.6731 60.1072C22.6731 60.1072 22.6731 60.1594 22.6731 60.1333C22.6731 60.1507 22.6731 60.1681 22.6731 60.1855C22.6731 60.2117 22.6731 60.2378 22.6731 60.2639C22.6731 60.3248 22.6731 60.3944 22.6644 60.4554C22.6557 60.5772 22.647 60.6904 22.6296 60.8122C22.6209 60.8731 22.6122 60.9341 22.5948 60.9863C22.5861 61.0211 22.5774 61.0472 22.5774 61.082C22.5774 61.0907 22.5687 61.0994 22.5687 61.1168C22.5687 61.1255 22.56 61.1342 22.56 61.1517C22.56 61.1342 22.56 61.143 22.56 61.1604C22.5078 61.3605 22.4381 61.5694 22.3424 61.7522C22.325 61.7957 22.2989 61.8305 22.2815 61.8741C22.2815 61.8828 22.2554 61.9176 22.2815 61.8828C22.2815 61.8915 22.2728 61.9002 22.2728 61.9002C22.2554 61.9263 22.2467 61.9524 22.2292 61.9698C22.1857 62.0481 22.1335 62.1178 22.0813 62.1874C22.0291 62.257 21.9681 62.3267 21.9072 62.3963C21.9333 62.3615 21.8898 62.4137 21.8811 62.4224C21.8637 62.4398 21.8463 62.4572 21.8289 62.4746C21.7941 62.5094 21.7592 62.5355 21.7331 62.5704C21.4285 62.8402 21.0891 63.0491 20.7583 63.2754C20.4015 63.5278 20.0533 63.7889 19.7748 64.1196C19.7139 64.1893 19.6617 64.2589 19.6094 64.3372C19.5659 64.4068 19.5659 64.5113 19.6442 64.5635C19.6791 64.5896 19.7835 64.5809 19.8357 64.5026Z" fill="#F54748"/>
<path d="M15.5274 62.3446C15.5274 62.3446 18.3909 64.1724 19.0785 61.2654C19.0785 61.2654 17.8339 62.7102 15.5274 62.3446Z" fill="#F54748"/>
<path d="M15.1444 62.5622C15.0835 62.5186 15.0399 62.4577 15.0051 62.3881C14.9703 62.3185 14.9616 62.2401 14.9703 62.1531C14.9877 62.0748 15.0312 61.9964 15.0835 61.9442C15.1357 61.892 15.2053 61.8572 15.2749 61.8311C15.2227 61.8833 15.1792 61.9355 15.1357 61.9877C15.1183 62.0138 15.1009 62.0399 15.0835 62.0748C15.066 62.1009 15.0573 62.1357 15.0573 62.1618C15.0486 62.2227 15.0486 62.2836 15.066 62.3533C15.0922 62.4316 15.1183 62.5012 15.1444 62.5622Z" fill="#F54748"/>
<path d="M18.7652 60.9607C18.8174 60.9085 18.887 60.8737 18.9654 60.865C19.0437 60.8563 19.122 60.865 19.2004 60.8998C19.27 60.9433 19.3222 61.0042 19.3658 61.0651C19.3832 61.1 19.3919 61.1348 19.4093 61.1696C19.418 61.2044 19.4267 61.2392 19.4267 61.2827C19.4006 61.2566 19.3832 61.2218 19.3658 61.1957L19.3309 61.1522C19.3222 61.1348 19.3135 61.1261 19.2961 61.1087C19.2526 61.0564 19.2004 61.0129 19.1482 60.9868C19.0959 60.9607 19.035 60.9433 18.9654 60.9346C18.9045 60.9346 18.8348 60.9433 18.7652 60.9607Z" fill="#F54748"/>
<path d="M13.6039 61.0133C13.7257 60.9175 13.8563 60.8392 13.9955 60.7782C14.0652 60.7434 14.1348 60.7173 14.2131 60.6912C14.2828 60.6651 14.3611 60.6477 14.4394 60.6303C14.5874 60.6042 14.7441 60.5868 14.9007 60.6042C15.0574 60.6216 15.2054 60.6651 15.3446 60.7347C15.1967 60.6825 15.0487 60.6564 14.9007 60.6477C14.8224 60.6477 14.7528 60.6477 14.6744 60.6564C14.5961 60.6651 14.5265 60.6738 14.4481 60.6912C14.3002 60.7173 14.1522 60.7608 14.013 60.8131C13.8824 60.8827 13.7431 60.9436 13.6039 61.0133Z" fill="#F54748"/>
<path d="M19.4615 59.0373C19.4789 58.898 19.5311 58.7588 19.592 58.6369C19.653 58.5063 19.74 58.3932 19.8444 58.2888C19.9489 58.193 20.0882 58.1234 20.2274 58.0886C20.3667 58.0538 20.5146 58.0625 20.6539 58.0973C20.5146 58.0886 20.3754 58.0973 20.2448 58.1321C20.1752 58.1495 20.1143 58.1756 20.062 58.2104C20.0011 58.2452 19.9489 58.2801 19.8967 58.3323C19.7922 58.4193 19.7139 58.5325 19.6443 58.6543C19.5659 58.7762 19.505 58.9067 19.4615 59.0373Z" fill="#F54748"/>
<path d="M8.34684 47.3916C8.2598 47.6092 8.19888 47.8355 8.15536 48.0705C8.11184 48.3055 8.09443 48.5318 8.09443 48.7668C8.09443 48.8799 8.10314 49.0018 8.11184 49.1149L8.13795 49.289C8.14666 49.3499 8.15536 49.4022 8.16406 49.4631C8.19017 49.6981 8.2598 49.9157 8.32073 50.1507L8.31203 50.1594C8.19017 49.9592 8.08573 49.7329 8.03351 49.4979C7.99869 49.3848 7.98999 49.2629 7.98129 49.141C7.98129 49.0192 7.97258 48.8973 7.98129 48.7755C8.0074 48.2968 8.12054 47.8181 8.32943 47.3916H8.34684Z" fill="#F54748"/>
<path d="M9.49575 47.2175C9.43482 47.3829 9.39131 47.5483 9.36519 47.7223C9.33038 47.8964 9.32168 48.0618 9.32168 48.2359C9.32168 48.4099 9.35649 48.5753 9.3739 48.7407C9.3913 48.9148 9.43482 49.0714 9.46964 49.2542L9.46093 49.2629C9.35649 49.1149 9.27816 48.9496 9.24334 48.7755C9.19982 48.6014 9.19982 48.4186 9.20853 48.2359C9.22594 47.879 9.32168 47.5309 9.47834 47.2175H9.49575Z" fill="#F54748"/>
<path d="M11.193 46.6865C11.602 46.9302 11.9589 47.261 12.2461 47.6439C12.3245 47.7397 12.3854 47.8441 12.4463 47.9399C12.4985 48.0443 12.5595 48.1487 12.603 48.2706C12.69 48.4969 12.7335 48.7406 12.7422 48.9756H12.7248C12.6465 48.7493 12.5769 48.5317 12.4724 48.3141C12.455 48.2619 12.4289 48.2097 12.4028 48.1574L12.3245 48.0008C12.2722 47.8963 12.22 47.7919 12.1504 47.6962C12.0198 47.5047 11.8806 47.3132 11.7152 47.1478C11.5498 46.9824 11.3757 46.8171 11.1843 46.6865H11.193Z" fill="#F54748"/>
<path d="M10.0093 46.6428C10.4183 46.8865 10.7752 47.2173 11.0624 47.6002C11.1407 47.696 11.2017 47.8004 11.2626 47.8962C11.3148 48.0006 11.3757 48.105 11.4193 48.2269C11.5063 48.4532 11.5498 48.6969 11.5585 48.9319H11.5411C11.4628 48.7056 11.3931 48.488 11.2887 48.2704C11.2713 48.2182 11.2452 48.166 11.2191 48.1137L11.1407 47.9571C11.0885 47.8526 11.0363 47.7482 10.9667 47.6524C10.8361 47.461 10.6968 47.2695 10.5315 47.1041C10.3661 46.9387 10.192 46.7734 10.0005 46.6428H10.0093Z" fill="#F54748"/>
<path d="M8.01611 56.7568C7.99 56.8961 7.97259 57.0354 7.96389 57.1833C7.94648 57.3226 7.93778 57.4705 7.94648 57.6098C7.94648 57.7491 7.96389 57.8883 7.97259 58.0276C7.9813 58.1668 7.99 58.3061 8.01611 58.4454L8.00741 58.4541C7.92037 58.3322 7.86815 58.1842 7.84204 58.045C7.81593 57.897 7.83333 57.7491 7.84204 57.6098C7.86815 57.3226 7.92907 57.0354 8.01611 56.7655V56.7568Z" fill="#F54748"/>
<path d="M10.2007 50.9862C10.2965 50.786 10.4444 50.6119 10.6359 50.4814C10.7317 50.4204 10.8274 50.3508 10.9406 50.3334C11.0537 50.3073 11.1669 50.316 11.28 50.3421V50.3595C11.1756 50.403 11.0711 50.4291 10.9754 50.4639C10.8796 50.4988 10.7839 50.5249 10.6882 50.5771C10.5924 50.6293 10.5054 50.6815 10.427 50.7599C10.3487 50.8295 10.2704 50.9078 10.2094 50.9949L10.2007 50.9862Z" fill="#F54748"/>
<path d="M11.1843 51.2387C11.3322 51.0821 11.4889 50.9341 11.663 50.8035C11.75 50.7426 11.837 50.6643 11.9502 50.6382C12.0024 50.6208 12.0633 50.6121 12.1243 50.6121C12.1504 50.6121 12.1852 50.6208 12.2113 50.6295C12.2374 50.6382 12.2635 50.6643 12.2896 50.673L12.2809 50.6817C12.1678 50.673 12.0895 50.7165 11.9937 50.76C11.9067 50.8035 11.8109 50.8471 11.7152 50.8906C11.6195 50.9428 11.5324 51.0037 11.4454 51.0647C11.3583 51.1256 11.2713 51.1865 11.1843 51.2561V51.2387Z" fill="#F54748"/>
<path d="M14.0565 50.081C14.1957 49.9766 14.3611 49.9244 14.5265 49.8808C14.6918 49.846 14.8659 49.8286 15.04 49.8286C15.2141 49.8286 15.3794 49.8286 15.5535 49.8634C15.7189 49.8982 15.8842 49.9505 16.0409 50.0288V50.0462C15.9539 50.0462 15.8668 50.0375 15.7885 50.0288C15.7015 50.0201 15.6231 50.0114 15.5361 50.0027C15.3707 49.994 15.2053 49.9505 15.04 49.9418C14.8746 49.9331 14.7092 49.9331 14.5439 49.9592C14.3785 49.9766 14.2131 50.0201 14.0739 50.0984L14.0565 50.081Z" fill="#F54748"/>
<path d="M14.7441 50.4032C15.1009 50.3596 15.4578 50.3335 15.8146 50.3422C15.9974 50.3422 16.1802 50.3509 16.3543 50.4032C16.5283 50.4467 16.7111 50.5163 16.8417 50.6556L16.833 50.6643C16.6676 50.5946 16.5022 50.5598 16.3282 50.5337C16.1541 50.5076 15.9887 50.4728 15.8059 50.4554C15.4578 50.4206 15.1009 50.4119 14.7441 50.4206V50.4032Z" fill="#F54748"/>
<path d="M14.1522 53.4231C14.1609 53.1968 14.3262 52.9879 14.5438 52.8922C14.6483 52.8487 14.7701 52.8226 14.8833 52.8313C14.9355 52.8313 14.9964 52.8487 15.0486 52.8574C15.1009 52.8748 15.1531 52.8922 15.2053 52.9183V52.927L15.0486 52.9096C14.9964 52.9096 14.9442 52.9096 14.892 52.9096C14.7875 52.9183 14.6831 52.9444 14.5873 52.9879C14.3959 53.075 14.2392 53.2316 14.1696 53.4231H14.1522Z" fill="#F54748"/>
<path d="M14.4568 53.5713C14.5178 53.4233 14.6396 53.3188 14.7789 53.2492C14.8485 53.2231 14.9268 53.197 15.0052 53.197C15.0835 53.1883 15.1618 53.2144 15.2315 53.2492V53.2579C15.0922 53.2405 14.9443 53.284 14.8224 53.3363C14.6918 53.3972 14.57 53.4842 14.4568 53.5713Z" fill="#F54748"/>
<path d="M17.7728 63.5193C17.8338 63.3713 17.9556 63.2668 18.0949 63.1972C18.1645 63.1711 18.2428 63.145 18.3212 63.145C18.3995 63.1363 18.4778 63.1624 18.5475 63.1972V63.2059C18.4082 63.1885 18.2602 63.232 18.1384 63.2843C18.0078 63.3539 17.886 63.4322 17.7728 63.5193Z" fill="#F54748"/>
<path d="M9.86998 62.9627C9.84387 62.9627 9.24331 62.9104 8.99961 62.1706C8.7472 61.4221 9.11276 60.9173 9.35646 60.6736L9.54794 60.8651C9.34776 61.0565 9.05183 61.4743 9.26072 62.0836C9.4522 62.6493 9.89609 62.6928 9.89609 62.6928L9.86998 62.9627Z" fill="#F54748"/>
<path d="M9.49567 60.2997C9.43474 60.2562 9.40863 60.1952 9.40863 60.1169C9.40863 60.0386 9.46956 59.9515 9.55659 59.9167C9.64363 59.8819 9.71326 59.8993 9.76548 59.9254C9.8177 59.9515 9.86993 59.995 9.89604 60.0647C9.82641 60.0995 9.78289 60.1169 9.73937 60.1343C9.69585 60.1517 9.66974 60.1604 9.66104 60.1691C9.65233 60.1778 9.64363 60.1691 9.60882 60.1865C9.5827 60.2126 9.54789 60.2475 9.49567 60.2997Z" fill="#F54748"/>
<path d="M10.8049 62.5163C11.045 62.324 11.018 61.8914 10.7445 61.55C10.4711 61.2085 10.0548 61.0877 9.81465 61.28C9.57453 61.4723 9.60155 61.9049 9.87499 62.2464C10.1484 62.5878 10.5647 62.7086 10.8049 62.5163Z" fill="#F54748"/>
<path d="M15.9364 67.5755H14.9007V69.2553H15.8494V69.6122H14.9007V71.6576H14.509V67.2361H15.9364V67.5755Z" fill="#F54748"/>
<path d="M18.0079 71.3269C18.0079 71.5358 17.9035 71.649 17.6859 71.649H16.7459C16.537 71.649 16.4326 71.5445 16.4326 71.3269V69.2119C16.4326 69.003 16.537 68.8899 16.7459 68.8899H17.6859C17.8948 68.8899 18.0079 68.9943 18.0079 69.2119V71.3269ZM17.6337 71.3182V69.2293H16.8068V71.3182H17.6337Z" fill="#F54748"/>
<path d="M20.062 69.8038H19.6878V69.238L18.9915 69.2642V71.6577H18.6259V68.9073H19.0002V68.9856C19.122 68.9682 19.2526 68.9508 19.3744 68.9247C19.5224 68.8986 19.653 68.8899 19.7487 68.8899C19.9576 68.8899 20.062 68.9943 20.062 69.1945V69.8038Z" fill="#F54748"/>
<path d="M23.1431 67.5755H22.1074V69.2553H23.0648V69.6122H22.1161V71.6576H21.7244V67.2361H23.1518V67.5755H23.1431Z" fill="#F54748"/>
<path d="M25.084 69.8038H24.7098V69.238L24.0135 69.2642V71.6577H23.6392V68.9073H24.0135V68.9856C24.1353 68.9682 24.2659 68.9508 24.3877 68.9247C24.5357 68.8986 24.6663 68.8899 24.762 68.8899C24.9709 68.8899 25.0753 68.9943 25.0753 69.1945V69.8038H25.084Z" fill="#F54748"/>
<path d="M27.0946 71.3269C27.0946 71.5358 26.9902 71.649 26.7813 71.649H25.8761C25.6672 71.649 25.5627 71.5445 25.5627 71.3269V69.2119C25.5627 69.003 25.6672 68.8899 25.8761 68.8899H26.7813C26.9902 68.8899 27.0946 68.9943 27.0946 69.2119V70.2041L26.964 70.3347H25.9196V71.3269H26.729V70.8221H27.0946V71.3269ZM26.729 70.0388V69.2119H25.9196V70.0388H26.729Z" fill="#F54748"/>
<path d="M29.2009 71.3268C29.2009 71.5357 29.0965 71.6489 28.8789 71.6489H28.0172C27.8083 71.6489 27.6952 71.5444 27.6952 71.3268V70.7002H28.0694V71.3181H28.8267V70.7698L27.8432 69.9604C27.7474 69.882 27.7039 69.7863 27.7039 69.6644V69.2031C27.7039 68.9942 27.8083 68.8811 28.0259 68.8811H28.8789C29.0878 68.8811 29.2009 68.9855 29.2009 69.2031V69.7515H28.8354V69.2118H28.0782V69.6905L29.0704 70.5C29.1661 70.5696 29.2096 70.6741 29.2096 70.7959V71.3268H29.2009Z" fill="#F54748"/>
<path d="M31.3768 71.6489H31.0026V69.2379L30.1757 69.264V71.6576H29.8015V67.2361H30.1757V68.9855C30.3237 68.9681 30.4716 68.9507 30.6196 68.9333C30.8111 68.9072 30.959 68.8985 31.0635 68.8985C31.2724 68.8985 31.3768 69.0029 31.3768 69.2031V71.6489Z" fill="#F54748"/>
<path d="M34.6756 71.6489H34.3013V71.5706C34.1533 71.588 34.0054 71.6141 33.8574 71.6315C33.6746 71.6576 33.5267 71.6663 33.4135 71.6663C33.2046 71.6663 33.1089 71.5619 33.1089 71.3617V70.3607C33.1089 70.1519 33.2133 70.0474 33.4309 70.0474H34.3187V69.2206H33.5093V69.6906H33.1437V69.2293C33.1437 69.0204 33.2481 68.9072 33.457 68.9072H34.3622C34.5711 68.9072 34.6756 69.0117 34.6756 69.2293V71.6489ZM34.31 71.3094V70.3346H33.4744V71.3269L34.31 71.3094Z" fill="#F54748"/>
<path d="M36.8689 71.649H36.4946V69.238L35.6678 69.2642V71.6577H35.2935V68.9073H35.6678V68.9856C35.8157 68.9682 35.9637 68.9508 36.1117 68.9247C36.2944 68.8986 36.4424 68.8899 36.5556 68.8899C36.7644 68.8899 36.8689 68.9943 36.8689 69.1945V71.649Z" fill="#F54748"/>
<path d="M39.0361 71.6489H38.6618V71.5706C38.2614 71.6315 38.0351 71.6663 37.9916 71.6663C37.835 71.6663 37.7044 71.6141 37.6087 71.501C37.5129 71.3965 37.4607 71.2573 37.4607 71.0919V69.4817C37.4607 69.3163 37.5129 69.1684 37.6261 69.0552C37.7392 68.9421 37.8785 68.8899 38.0438 68.8899H38.6618V67.2188H39.0361V71.6489ZM38.6618 71.3095V69.2293H38.1396C37.9307 69.2293 37.8262 69.3337 37.8262 69.5513V71.0223C37.8262 71.2312 37.9307 71.3356 38.1396 71.3356C38.1918 71.3356 38.3659 71.3269 38.6618 71.3095Z" fill="#F54748"/>
<path d="M42.6568 70.848C42.6568 71.083 42.5785 71.2745 42.4305 71.4225C42.2739 71.5704 42.0824 71.6488 41.8474 71.6488H40.8378V67.2273H41.8474C42.0824 67.2273 42.2739 67.3056 42.4305 67.4536C42.5872 67.6016 42.6568 67.793 42.6568 68.028V70.848ZM42.2652 70.8132V68.0628C42.2652 67.9149 42.2217 67.8017 42.1259 67.7147C42.0302 67.6277 41.917 67.5841 41.7691 67.5841H41.2207V71.3093H41.743C41.8996 71.3093 42.0215 71.2658 42.1172 71.1788C42.213 71.0917 42.2652 70.9612 42.2652 70.8132Z" fill="#F54748"/>
<path d="M44.8414 71.3269C44.8414 71.5358 44.737 71.649 44.5281 71.649H43.6229C43.414 71.649 43.3096 71.5445 43.3096 71.3269V69.2119C43.3096 69.003 43.414 68.8899 43.6229 68.8899H44.5281C44.737 68.8899 44.8414 68.9943 44.8414 69.2119V70.2041L44.7109 70.3347H43.6664V71.3269H44.4759V70.8221H44.8414V71.3269ZM44.4759 70.0388V69.2119H43.6664V70.0388H44.4759Z" fill="#F54748"/>
<path d="M45.8598 71.6488H45.4855V67.2273H45.8598V71.6488Z" fill="#F54748"/>
<path d="M46.8955 68.298H46.5126V67.8193H46.8955V68.298ZM46.8868 71.649H46.5126V68.8986H46.8868V71.649Z" fill="#F54748"/>
<path d="M49.054 71.3269C49.054 71.5358 48.9496 71.649 48.7407 71.649H47.8442C47.6353 71.649 47.5309 71.5445 47.5309 71.3269V69.2119C47.5309 69.003 47.6353 68.8899 47.8442 68.8899H48.7407C48.9496 68.8899 49.054 68.9943 49.054 69.2119V69.7603H48.6798V69.2206H47.8964V71.3095H48.6798V70.7003H49.054V71.3269Z" fill="#F54748"/>
<path d="M50.0637 68.298H49.6807V67.8193H50.0637V68.298ZM50.055 71.649H49.6807V68.8986H50.055V71.649Z" fill="#F54748"/>
<path d="M52.2744 71.3269C52.2744 71.5358 52.17 71.649 51.9524 71.649H51.0124C50.8035 71.649 50.699 71.5445 50.699 71.3269V69.2119C50.699 69.003 50.8035 68.8899 51.0124 68.8899H51.9524C52.1613 68.8899 52.2744 68.9943 52.2744 69.2119V71.3269ZM51.9001 71.3182V69.2293H51.0733V71.3182H51.9001Z" fill="#F54748"/>
<path d="M54.4677 71.649H54.0935V71.5706C53.9455 71.588 53.7889 71.6142 53.6409 71.6316C53.4581 71.6577 53.3101 71.6664 53.1883 71.6664C52.9881 71.6664 52.8837 71.5619 52.8837 71.3617V68.8986H53.2579V71.3095L54.0935 71.2834V68.8899H54.4677V71.649Z" fill="#F54748"/>
<path d="M56.5566 71.3268C56.5566 71.5357 56.4522 71.6489 56.2346 71.6489H55.3729C55.1641 71.6489 55.0509 71.5444 55.0509 71.3268V70.7002H55.4252V71.3181H56.1824V70.7698L55.1989 69.9604C55.1031 69.882 55.0596 69.7863 55.0596 69.6644V69.2031C55.0596 68.9942 55.1641 68.8811 55.3816 68.8811H56.2346C56.4435 68.8811 56.5566 68.9855 56.5566 69.2031V69.7515H56.1911V69.2118H55.4339V69.6905L56.4261 70.5C56.5218 70.5696 56.5653 70.6741 56.5653 70.7959V71.3268H56.5566Z" fill="#F54748"/>
<path d="M60.1861 71.6488H59.7944V69.5251H58.7325V71.6488H58.3409V67.2273H58.7325V69.1682H59.7944V67.2273H60.1861V71.6488Z" fill="#F54748"/>
<path d="M62.4229 71.3269C62.4229 71.5358 62.3185 71.649 62.1009 71.649H61.1609C60.952 71.649 60.8475 71.5445 60.8475 71.3269V69.2119C60.8475 69.003 60.952 68.8899 61.1609 68.8899H62.1009C62.3098 68.8899 62.4229 68.9943 62.4229 69.2119V71.3269ZM62.0486 71.3182V69.2293H61.2218V71.3182H62.0486Z" fill="#F54748"/>
<path d="M65.8 71.6488H65.4257V69.2379L64.6076 69.264V71.6575H64.2333V69.2466L63.4152 69.2727V71.6662H63.0409V68.9158H63.4152V68.9942C63.5631 68.9768 63.7111 68.9594 63.859 68.9333C64.0418 68.9071 64.1898 68.8984 64.3029 68.8984C64.4161 68.8984 64.5031 68.9333 64.5553 69.0029C64.712 68.9855 64.8687 68.9594 65.0253 68.942C65.2342 68.9158 65.3822 68.8984 65.4953 68.8984C65.7042 68.8984 65.8087 69.0029 65.8087 69.2031V71.6488H65.8Z" fill="#F54748"/>
<path d="M67.9498 71.3269C67.9498 71.5358 67.8454 71.649 67.6365 71.649H66.7313C66.5224 71.649 66.418 71.5445 66.418 71.3269V69.2119C66.418 69.003 66.5224 68.8899 66.7313 68.8899H67.6365C67.8454 68.8899 67.9498 68.9943 67.9498 69.2119V70.2041L67.8193 70.3347H66.7748V71.3269H67.5843V70.8221H67.9498V71.3269ZM67.5843 70.0388V69.2119H66.7748V70.0388H67.5843Z" fill="#F54748"/>
<path d="M71.1789 67.5755H70.1431V69.2553H71.0918V69.6122H70.1431V71.6576H69.7515V67.2361H71.1789V67.5755Z" fill="#F54748"/>
<path d="M73.2504 71.3269C73.2504 71.5358 73.1459 71.649 72.9283 71.649H71.9883C71.7794 71.649 71.675 71.5445 71.675 71.3269V69.2119C71.675 69.003 71.7794 68.8899 71.9883 68.8899H72.937C73.1459 68.8899 73.2591 68.9943 73.2591 69.2119V71.3269H73.2504ZM72.8761 71.3182V69.2293H72.0492V71.3182H72.8761Z" fill="#F54748"/>
<path d="M75.4437 71.3269C75.4437 71.5358 75.3392 71.649 75.1216 71.649H74.1816C73.9727 71.649 73.8683 71.5445 73.8683 71.3269V69.2119C73.8683 69.003 73.9727 68.8899 74.1816 68.8899H75.1216C75.3305 68.8899 75.4437 68.9943 75.4437 69.2119V71.3269ZM75.0694 71.3182V69.2293H74.2425V71.3182H75.0694Z" fill="#F54748"/>
<path d="M77.6283 71.6489H77.254V71.5706C76.8537 71.6315 76.6274 71.6663 76.5838 71.6663C76.4272 71.6663 76.2966 71.6141 76.2009 71.501C76.1051 71.3965 76.0529 71.2573 76.0529 71.0919V69.4817C76.0529 69.3163 76.1051 69.1684 76.2183 69.0552C76.3314 68.9421 76.4707 68.8899 76.6361 68.8899H77.254V67.2188H77.6283V71.6489ZM77.254 71.3095V69.2293H76.7318C76.5229 69.2293 76.4185 69.3337 76.4185 69.5513V71.0223C76.4185 71.2312 76.5229 71.3356 76.7318 71.3356C76.784 71.3356 76.9494 71.3269 77.254 71.3095Z" fill="#F54748"/>
<path d="M79.7259 71.3268C79.7259 71.5357 79.6214 71.6489 79.4039 71.6489H78.5422C78.3333 71.6489 78.2202 71.5444 78.2202 71.3268V70.7002H78.5944V71.3181H79.3516V70.7698L78.3681 69.9604C78.2724 69.882 78.2289 69.7863 78.2289 69.6644V69.2031C78.2289 68.9942 78.3333 68.8811 78.5509 68.8811H79.4039C79.6127 68.8811 79.7259 68.9855 79.7259 69.2031V69.7515H79.3603V69.2118H78.5944V69.6905L79.5866 70.5C79.6824 70.5696 79.7259 70.6741 79.7259 70.7959V71.3268Z" fill="#F54748"/>
</svg>
