<svg width="213" height="8" viewBox="0 0 213 8" fill="none" xmlns="http://www.w3.org/2000/svg">
<path d="M31.5942 -1.69165L32.1246 -1.7971L31.0925 -1.94829L31.5872 -2.05895C32.0833 -2.05794 32.7261 -1.89212 33.0758 -1.98023C33.1186 -2.06554 32.5784 -2.09292 32.4405 -2.16088C32.3186 -2.23055 32.219 -2.29976 32.1431 -2.36769C32.4132 -2.36696 32.7103 -2.35053 33.0165 -2.31936C33.4284 -2.26847 33.8325 -2.24372 34.184 -2.24787C34.9029 -2.23412 35.5975 -2.24784 36.3791 -2.24481L36.119 -2.45012L37.1263 -2.40209C37.2331 -2.38645 37.3603 -2.4116 37.4652 -2.39225C38.3382 -2.22854 38.7076 -2.31775 39.1267 -2.39172C39.2126 -2.41086 39.3161 -2.42516 39.4345 -2.43422C40.599 -2.39501 41.6492 -2.16553 42.6979 -2.04772C42.8953 -2.01764 43.0847 -1.97903 43.2525 -1.93463C43.6173 -1.84831 44.023 -1.77784 44.4327 -1.72965C44.8423 -1.68147 45.2427 -1.65712 45.5973 -1.65882C46.3814 -1.66072 47.2673 -1.60363 48.1692 -1.49306C48.4374 -1.45664 48.7058 -1.43262 48.9572 -1.42252C49.2087 -1.41241 49.4377 -1.41646 49.6296 -1.43439L50.2394 -1.31719C50.5037 -1.36475 50.8389 -1.39084 51.2246 -1.39388C51.6102 -1.39693 52.0384 -1.37686 52.483 -1.3349C52.9568 -1.28938 53.438 -1.25869 53.9296 -1.21057C54.945 -1.11856 55.9333 -1.06229 56.8637 -1.04351C58.2492 -0.987846 59.6029 -0.94481 61.0007 -0.875414C61.8751 -0.841918 62.7271 -0.823495 63.5515 -0.820241C64.5391 -0.807139 65.6073 -0.743712 66.7047 -0.633022C66.6527 -0.529169 66.1715 -0.55985 65.8485 -0.563365C64.8067 -0.580626 63.7404 -0.625355 62.6685 -0.658957C62.1856 -0.672073 61.7161 -0.677041 61.2625 -0.673824C60.5043 -0.67813 59.7049 -0.705802 58.8782 -0.756367C57.5722 -0.812007 56.3078 -0.838752 55.0982 -0.836331C55.0034 -0.832218 54.9165 -0.824928 54.839 -0.814585C54.8228 -0.805626 54.8196 -0.794328 54.8297 -0.781778C54.8398 -0.769228 54.8628 -0.755839 54.8966 -0.742901C54.9304 -0.729962 54.9737 -0.717908 55.0226 -0.707885C55.0714 -0.697862 55.1241 -0.690206 55.1755 -0.685657C55.656 -0.615276 56.172 -0.539685 56.625 -0.52905C56.6426 -0.528256 56.6612 -0.526441 56.6797 -0.523736C56.6981 -0.521032 56.716 -0.517504 56.7318 -0.513411C57.7461 -0.364829 58.58 -0.389973 59.3701 -0.365799C60.6818 -0.300465 61.9464 -0.269948 63.1445 -0.274708C63.3256 -0.274384 63.5211 -0.265891 63.724 -0.249535C64.9789 -0.183236 66.1523 -0.175821 67.1892 -0.227625C67.616 -0.240749 68.0127 -0.270212 68.4714 -0.270705C68.7539 -0.272733 68.9998 -0.291535 69.1943 -0.325985C69.3888 -0.360435 69.5279 -0.409821 69.6033 -0.471174C69.7968 -0.438872 69.9933 -0.410085 70.1905 -0.385156C70.3082 -0.370902 70.4212 -0.367116 70.5064 -0.374575C70.5917 -0.382034 70.643 -0.400179 70.6499 -0.425344C70.6852 -0.495815 70.4165 -0.531205 70.1833 -0.561383C70.3239 -0.576497 70.4824 -0.585388 70.6549 -0.587843C71.6266 -0.603945 72.6689 -0.584939 73.759 -0.531244C74.6054 -0.466971 75.2811 -0.519285 76.1716 -0.428647C76.2783 -0.413007 76.3662 -0.435962 76.4645 -0.441474C76.7207 -0.470499 77.0399 -0.477025 77.3944 -0.460475C77.7489 -0.443927 78.128 -0.404806 78.4988 -0.346505C78.9606 -0.505786 79.9582 -0.323822 80.6949 -0.307469C80.9217 -0.226466 80.6614 -0.240706 80.6503 -0.218452C80.6391 -0.196198 80.6502 -0.218457 80.5613 -0.23149C79.8257 -0.116777 78.818 -0.0917641 77.6795 -0.159964C77.469 -0.159683 77.2683 -0.154456 77.0796 -0.144338C76.7937 -0.130016 76.4713 -0.131446 76.1267 -0.148566C75.7501 -0.161138 75.4042 -0.155167 75.1056 -0.13094C74.9338 -0.131334 74.7885 -0.119197 74.6832 -0.0956466C74.5779 -0.0720966 74.516 -0.0378946 74.5033 0.00377819C74.6179 0.0359032 74.7452 0.0652998 74.8799 0.0907984C75.5832 0.191477 76.2845 0.233151 76.8459 0.20762C77.823 0.16363 78.9857 0.206557 80.0246 0.19154C80.7269 0.185455 81.4743 0.202785 82.2526 0.243204C82.2526 0.243204 82.2321 0.284003 82.2303 0.287712C82.3223 0.305377 82.419 0.31955 82.515 0.32942C82.515 0.32942 82.515 0.32942 82.5243 0.310875C82.4816 0.293066 82.4238 0.276312 82.3575 0.262553L82.1261 0.228665C82.2833 0.219846 82.4302 0.193589 82.5941 0.209632C82.9394 0.239436 83.2693 0.252019 83.5641 0.246632C83.859 0.241244 84.1126 0.217996 84.3097 0.178283C84.6591 0.127385 85.0936 0.104239 85.5852 0.110338C85.962 0.104781 86.3251 0.0928391 86.6728 0.0745699C86.6728 0.0745699 86.6951 0.0300654 86.8598 0.00640978C86.7038 -0.0227653 86.5412 -0.0465885 86.3793 -0.0639674C85.6753 -0.107387 84.9694 -0.147098 84.2775 -0.176783C84.0227 -0.179989 83.7831 -0.175016 83.5634 -0.161958C82.9547 -0.146678 82.2708 -0.168364 81.5516 -0.225753C81.5516 -0.225753 81.4093 -0.246606 81.3381 -0.257031C81.5399 -0.354867 82.2357 -0.256922 82.5172 -0.323179C82.6885 -0.321973 82.99 -0.313641 82.9796 -0.331085C82.9562 -0.35436 82.9534 -0.375984 82.9714 -0.394403C82.9895 -0.412823 83.028 -0.427582 83.0841 -0.437624C83.1403 -0.447664 83.2127 -0.45274 83.2962 -0.452482C83.3797 -0.452224 83.4722 -0.446638 83.5671 -0.43613C84.3591 -0.379288 85.1051 -0.36348 85.7594 -0.389676C86.0075 -0.389171 86.2855 -0.372324 86.5317 -0.368108C86.6824 -0.363032 86.82 -0.365856 86.937 -0.376423C87.5318 -0.454251 88.3322 -0.459935 89.218 -0.392621C89.6461 -0.36842 90.0461 -0.365184 90.3975 -0.383077C90.6474 -0.38628 90.7533 -0.330947 90.9313 -0.30488L91.6868 -0.24993L90.7164 -0.181077C90.9239 -0.0232873 91.0888 0.0287413 91.4277 0.0385706C91.9221 0.0534159 92.4035 0.0601226 92.8693 0.0586498C93.2137 0.0573523 93.4981 0.023371 93.9645 0.0837272C94.0469 0.0935715 94.1262 0.0967577 94.1891 0.0927512C94.7353 0.0391687 95.3929 0.0268712 96.1172 0.0566987C96.4922 -0.0436392 97.131 0.053915 97.7219 0.132519C97.9126 0.0569378 97.567 0.0222423 97.3609 -0.0238739C97.8552 -0.0191535 98.3531 -0.0218492 98.8633 -0.010813C99.0168 -0.0148302 99.1922 -0.00795756 99.3758 0.0092645C99.5593 0.026487 99.7461 0.0535872 99.9214 0.0884464C100.007 0.11097 100.11 0.127922 100.209 0.135782C100.308 0.143642 100.396 0.141809 100.454 0.130662C100.719 0.0977854 101.143 0.128066 101.362 0.0725341C101.44 0.0597628 101.551 0.0579792 101.676 0.0674963C101.8 0.077013 101.93 0.0972155 102.043 0.124479C101.92 0.132986 101.81 0.146382 101.717 0.164371C101.382 0.222808 101.505 0.320449 101.931 0.462404C102.584 0.454597 103.251 0.456814 103.857 0.43006C104.194 0.406043 104.608 0.413551 105.051 0.45174C105.494 0.489929 105.949 0.557285 106.365 0.646233C106.516 0.680438 106.687 0.704126 106.846 0.712598C107.004 0.72107 107.138 0.713704 107.221 0.691958C107.272 0.66681 107.288 0.634981 107.267 0.599232L106.84 0.536674C106.84 0.536674 106.857 0.503293 106.861 0.495875L107.475 0.490266C107.8 0.490072 108.138 0.499904 108.445 0.497103C108.896 0.478473 109.411 0.488858 109.958 0.52761C110.463 0.567348 110.958 0.597384 111.441 0.617454C111.908 0.638113 112.247 0.572254 112.691 0.561736C113.028 0.553808 113.397 0.562281 113.787 0.586822C114.459 0.630347 115.076 0.630428 115.582 0.587056C116.172 0.820738 116.458 0.858734 117.006 0.795589L117.263 0.777551L117.333 0.827672L117.53 0.81665C117.898 0.806832 118.265 0.79702 118.649 0.793518C119.183 0.815205 119.759 0.87355 120.322 0.962858C120.428 0.978498 120.574 1.03164 120.667 1.07324C120.761 1.11484 120.966 1.24035 121.116 1.32205C120.952 1.3817 120.771 1.43873 120.641 1.5073C120.628 1.51901 120.629 1.53298 120.645 1.54808C120.66 1.56317 120.689 1.57899 120.73 1.59424C120.771 1.60949 120.822 1.62375 120.879 1.63588C120.936 1.64801 120.998 1.65767 121.059 1.66409C121.179 1.67792 121.297 1.68713 121.408 1.69136C121.958 1.69866 122.485 1.69324 122.983 1.67515C123.164 1.64965 123.413 1.64722 123.69 1.66827C123.967 1.68932 124.255 1.73264 124.51 1.79136C125.161 1.75611 125.918 1.76652 126.729 1.82188C127.586 1.78821 128.622 1.8563 129.423 1.78253C129.404 1.81962 129.487 1.88348 129.602 1.92027C129.784 1.97616 129.991 2.02795 130.213 2.07346L131.906 2.1623C131.97 2.20799 132.049 2.25424 132.143 2.30045C132.207 2.33695 132.319 2.37266 132.455 2.40003C132.591 2.42739 132.741 2.44425 132.872 2.44702C133.209 2.46056 133.491 2.43029 133.893 2.50508C133.274 2.57578 132.44 2.56639 131.538 2.47858C130.691 2.41179 129.876 2.37842 129.124 2.37969C128.876 2.37918 128.549 2.38308 128.471 2.42348C128.299 2.53765 127.85 2.5196 127.326 2.49854C126.914 2.47549 126.538 2.47808 126.228 2.50609C125.919 2.53411 125.685 2.58676 125.545 2.6597C125.51 2.73017 125.594 2.79032 125.956 2.83133L127.459 2.99576C127.68 2.97462 127.89 2.9496 128.088 2.92079C128.422 2.88253 128.834 2.87203 129.292 2.89011C129.75 2.90818 130.242 2.95434 130.729 3.025C130.978 3.06149 131.228 3.09798 131.408 3.08064C131.567 3.06073 131.713 3.03688 131.845 3.00928C131.872 2.99078 131.882 2.96949 131.877 2.94622C131.972 2.95704 132.068 2.9711 132.161 2.98793C132.903 3.18422 133.478 3.18083 134 3.12991C134.141 3.11478 134.249 3.09072 134.392 3.07188C134.535 3.05303 134.586 3.02858 134.716 3.03569C135.753 3.10007 136.052 2.88505 136.926 2.89369C136.969 2.88529 136.995 2.87273 137.003 2.85717C137.011 2.84162 137 2.82356 136.971 2.80467C136.909 2.78761 136.838 2.77294 136.763 2.76201C136.688 2.75108 136.613 2.74423 136.544 2.74211C136.141 2.71452 135.786 2.72298 135.539 2.76605C135.363 2.78365 135.178 2.79767 134.983 2.80804L134.107 2.49666C134.956 2.5252 135.758 2.52501 136.495 2.4961C136.656 2.47986 136.929 2.50784 137.155 2.51316L138.821 2.54226C139.164 2.54467 139.456 2.49586 139.934 2.60965C139.934 2.60965 140.249 2.62799 140.333 2.61246C140.418 2.59692 140.791 2.50029 141.013 2.43734C141.272 2.45529 141.629 2.50372 141.79 2.48748C142.071 2.4476 142.315 2.39648 142.516 2.33502L143.523 2.42275C143.521 2.50069 143.485 2.574 143.413 2.64158C143.334 2.70676 143.337 2.78501 143.421 2.86991C143.504 2.95481 143.667 3.04396 143.894 3.13009L144.888 3.58623C145.05 3.61677 145.223 3.63733 145.383 3.64512C145.543 3.65291 145.683 3.64754 145.783 3.62975C146.21 3.57692 146.69 3.53563 147.117 3.48281C147.669 3.56362 147.527 3.69414 147.928 3.80863L149.227 3.99891C149.425 4.17524 149.627 4.34416 149.024 4.40319C148.905 4.41352 148.985 4.48109 148.876 4.50885C149.344 4.64118 149.859 4.6808 150.334 4.7623C150.521 4.82092 150.678 4.88297 150.796 4.94545C150.926 5.03954 151.19 5.13564 151.53 5.21302C151.87 5.29039 152.259 5.34283 152.614 5.359C153.209 5.40853 153.818 5.48294 154.414 5.57887C154.617 5.61223 154.826 5.63653 155.027 5.65015C155.228 5.66376 155.416 5.66636 155.577 5.65779C156.154 5.64268 156.642 5.59073 157.01 5.50534C157.374 5.43286 157.864 5.39793 158.436 5.40371C159.415 5.54708 159.612 5.76312 160.204 5.95339L159.181 5.97473C159.144 6.04891 159.212 6.14244 158.793 6.14072C158.373 6.13901 158.586 6.20999 158.722 6.28167C158.77 6.31772 158.863 6.35481 158.987 6.38666C159.11 6.4185 159.255 6.44314 159.398 6.45641L160.269 6.54815C160.578 6.58306 160.877 6.59797 161.133 6.59124C161.389 6.5845 161.592 6.55639 161.721 6.50998C161.868 6.46591 162.072 6.4361 162.319 6.42238C162.633 6.38643 162.892 6.33296 163.086 6.264L164.315 6.36448C164.367 6.29518 164.536 6.24659 164.793 6.22692C165.05 6.20725 165.379 6.21771 165.725 6.25653L166.554 6.3182C167.475 6.38549 167.677 6.36333 167.947 6.16796L166.842 5.81899C167.003 5.72706 167.158 5.64627 167.313 5.56547C167.038 5.4505 166.67 5.34176 166.249 5.25029C165.855 5.152 165.45 5.0568 165.035 4.96507C164.586 4.87133 164.111 4.78982 163.553 4.68415C163.455 4.64997 163.313 4.58941 163.133 4.53107C162.952 4.47437 162.763 4.41879 162.567 4.36455C162.604 4.29037 162.637 4.22361 162.566 4.1375C162.91 4.16497 163.265 4.21303 163.599 4.27733C163.934 4.34164 164.237 4.42016 164.482 4.50584C164.523 4.52103 164.574 4.5353 164.63 4.54768C164.687 4.56007 164.748 4.57028 164.809 4.57762C165.413 4.63026 165.702 4.74023 165.997 4.87506C166.196 4.94399 166.452 5.0052 166.731 5.0502C167.265 5.1284 167.787 5.22886 168.298 5.31558C168.454 5.34448 168.616 5.36827 168.778 5.38596C169.312 5.44222 169.849 5.52089 170.362 5.61796C170.529 5.64263 170.69 5.67528 170.83 5.71318C170.971 5.75108 171.087 5.79312 171.169 5.8358C171.042 5.88256 170.974 5.94159 170.968 6.00932C170.946 6.05383 171.32 6.14457 171.498 6.21033C171.675 6.27609 171.327 6.24511 171.209 6.25172C170.725 6.26444 170.636 6.29111 170.925 6.43707C171.022 6.48296 171.087 6.52889 171.114 6.57198C171.142 6.61508 171.132 6.65443 171.086 6.68759C171.018 6.82482 170.808 6.9375 170.665 7.07172C170.888 7.16014 171.261 7.25457 171.301 7.36404C171.321 7.38833 171.362 7.41406 171.422 7.43937C171.482 7.46468 171.559 7.48894 171.648 7.51041C171.882 7.55673 172.096 7.61214 172.271 7.67233C172.446 7.73251 172.579 7.79587 172.659 7.85748C172.685 7.88296 172.748 7.90999 172.836 7.93316C172.923 7.95633 173.029 7.97392 173.131 7.98239C173.253 7.99281 173.362 7.99143 173.436 7.97856C173.51 7.96569 173.543 7.94229 173.528 7.91323C173.531 7.85862 173.515 7.80168 173.48 7.74291C173.5 7.70211 173.521 7.66132 173.44 7.59375C173.805 7.6184 174.188 7.66782 174.547 7.73663C174.907 7.80544 175.229 7.89101 175.479 7.98404C175.756 8.08028 176.011 8.18133 176.317 8.29392C176.254 8.42002 176.254 8.42002 176.906 8.64298L180.366 8.75171L181.075 8.89938C181.737 9.02811 181.894 9.01929 182.309 8.95274L182.589 8.89018C183.176 8.9762 183.852 9.07526 184.22 8.91407C184.339 9.01913 184.417 9.05442 184.39 9.07036C184.214 9.2254 183.91 9.35695 183.488 9.4598C183.38 9.48385 183.305 9.52054 183.179 9.54199C182.775 9.66306 182.681 9.85014 182.917 10.065C183.034 10.16 183.204 10.2574 183.422 10.3539C183.103 10.4878 182.682 10.5987 182.168 10.6838C181.732 10.7495 181.373 10.8376 181.101 10.9455C180.857 11.0542 180.491 11.136 180.025 11.186C179.789 11.2073 179.616 11.2493 179.525 11.3078C179.498 11.4663 179.56 11.6359 179.711 11.8129C179.739 11.8667 179.82 11.9249 179.947 11.9829C180.074 12.0408 180.243 12.0969 180.441 12.1468C180.441 12.1468 180.537 12.1847 180.583 12.2074C180.621 12.3992 180.478 12.5683 180.163 12.7032C180.111 12.7414 180.005 12.7691 179.857 12.7831C179.709 12.7972 179.523 12.7971 179.321 12.7828C178.893 12.76 178.493 12.7572 178.079 12.7443C177.633 12.7262 177.241 12.7405 176.942 12.7858C176.644 12.831 176.451 12.9056 176.384 13.0016C176.38 13.0288 176.367 13.0548 176.345 13.0795C176.333 13.0922 176.326 13.1059 176.325 13.1203L177.275 13.4347L176.2 13.5599C176.137 13.686 176.653 13.7616 176.911 13.8552L176.752 13.9074C176.546 13.937 176.268 13.8805 176.018 13.8477L175.768 13.8112L175.739 13.8705C175.584 13.9513 175.018 13.8605 174.797 13.9197C174.577 13.979 174.734 14.0459 175.065 14.1102C175.295 14.1581 175.541 14.1962 175.787 14.2218C176.032 14.2474 176.269 14.2597 176.48 14.2579C176.607 14.2516 176.711 14.2371 176.788 14.2154C177.235 14.123 177.727 14.0435 178.264 13.9776C178.674 13.9185 179.189 13.8933 179.771 13.9039C179.942 13.8994 180.148 13.9134 180.353 13.9435C180.558 13.9735 180.749 14.0176 180.892 14.0681L181.194 14.0764C181.194 14.0764 181.359 14.1285 181.335 14.137C181.22 14.2911 181.354 14.4796 181.715 14.6744L181.401 14.6921C180.952 14.674 181.236 14.7914 181.169 14.8492C180.85 14.8383 180.435 14.7895 180.284 14.8628L180.057 14.8575L180.146 14.8706L180.254 14.8465L180.676 14.9562C180.476 14.9746 180.331 14.9972 180.154 15.0071C180.057 15.0157 179.979 15.031 179.926 15.0519C179.873 15.0729 179.845 15.0991 179.845 15.129C179.845 15.175 179.793 15.2137 179.692 15.2415C179.591 15.2692 179.445 15.285 179.269 15.2875C179.058 15.2885 178.938 15.3385 178.814 15.3562L179.351 15.6578C179.351 15.6578 179.084 15.6187 179.229 15.6718L179.248 15.6347L179.573 15.7102C179.807 15.7764 179.971 15.7924 180.109 15.745C180.248 15.6976 180.216 15.7606 180.282 15.7425C180.258 15.7907 180.108 15.8244 179.979 15.8533C179.829 15.8759 179.661 15.8926 179.476 15.9031C179.809 16.1151 179.825 16.1214 179.339 16.1775C178.852 16.2337 179.02 16.318 178.613 16.33C178.206 16.342 178.669 16.4855 178.941 16.5135C179.143 16.5319 179.349 16.5605 179.545 16.5974C179.741 16.6344 179.922 16.6787 180.075 16.7274L179.994 16.8906C179.874 16.8771 179.754 16.8595 179.638 16.8385C179.243 16.7488 178.885 16.6644 178.534 16.7166L178.701 16.8406L177.476 16.7687C177.508 16.8616 177.695 16.9674 177.997 17.0639C177.951 17.1169 177.923 17.1726 177.913 17.2308C177.893 17.2716 177.772 17.2459 177.693 17.2503C177.413 17.2572 177.183 17.2848 177.023 17.3309C176.863 17.3769 176.779 17.4399 176.778 17.5144C176.746 17.5774 177.177 17.7083 177.447 17.7039C178.12 17.7165 178.848 17.765 179.591 17.8468C180.044 17.8575 180.108 17.6917 180.854 17.8049C180.868 17.8814 180.773 17.9434 180.581 17.9814C180.39 18.0195 180.113 18.0315 179.793 18.0158C179.975 18.1858 180.984 18.2301 181.029 18.4078C180.778 18.3953 180.509 18.3657 180.249 18.3221C179.99 18.2785 179.748 18.2224 179.549 18.1592C179.506 18.1436 179.452 18.1293 179.392 18.1175C179.332 18.1057 179.268 18.0968 179.206 18.0916C179.144 18.0865 179.085 18.0853 179.036 18.0881C178.987 18.0909 178.949 18.0976 178.925 18.1077C179.065 18.1719 179.219 18.2462 179.394 18.3157C179.57 18.3852 179.612 18.4152 179.738 18.4298C180.681 18.5679 181.13 18.8167 181.945 18.9801C182.159 19.0113 182.186 19.1108 182 19.0995C181.824 19.0883 181.664 19.0898 181.539 19.1038C181.414 19.1178 181.328 19.1438 181.292 19.1789C181.155 19.2199 180.985 19.2525 180.785 19.2759C181.622 19.5312 182.619 19.7568 183.684 19.9315C183.886 19.966 184.096 19.9871 184.285 19.9916C184.879 19.9918 185.51 20.0121 186.164 20.0519C186.396 20.0628 186.611 20.0618 186.796 20.0489C187.403 20.0185 187.886 20.0852 188.326 20.2731L189.056 20.5711C189.032 20.6193 188.909 20.673 188.815 20.7468L189.385 20.9059L193.732 20.5395L194.605 20.8943L195.856 20.8745C195.952 20.8848 196.048 20.8989 196.141 20.9162C196.394 21.021 196.592 21.1217 196.866 21.2216C197.141 21.3216 197.632 21.3337 197.974 21.4515C198.316 21.5693 198.658 21.5717 199.082 21.6417C199.122 21.7328 199.08 21.8149 198.961 21.8828C198.922 21.9606 198.707 22.0088 198.67 22.0829C198.674 22.1579 198.594 22.2216 198.437 22.2681C198.28 22.3147 198.052 22.3427 197.772 22.3496C196.989 22.5092 196.044 22.6229 194.967 22.6871C194.872 22.6918 194.794 22.7026 194.736 22.7188C194.679 22.7351 194.644 22.7564 194.633 22.7816C194.635 22.8543 194.563 22.9172 194.423 22.9656C194.283 23.014 194.079 23.0467 193.825 23.0612C193.757 23.0642 193.706 23.0733 193.678 23.0875C193.581 23.0967 193.511 23.1142 193.474 23.1384C193.437 23.1626 193.434 23.1927 193.465 23.2257C193.497 23.2588 193.561 23.2936 193.654 23.327C193.746 23.3603 193.862 23.391 193.991 23.416C194.178 23.4564 194.369 23.495 194.563 23.5317C194.552 23.554 194.359 23.5576 194.387 23.5776C194.463 23.6416 194.481 23.7016 194.439 23.7527C194.396 23.8039 194.296 23.8449 194.144 23.8724L195.183 24.3909C195.814 24.4627 196.432 24.5845 196.921 24.7332C196.922 24.7575 196.894 24.778 196.84 24.7924C196.786 24.8068 196.707 24.8147 196.613 24.8154C196.359 24.826 196.12 24.8466 195.846 24.8584C195.679 24.8671 195.54 24.8864 195.437 24.9151C195.335 24.9437 195.27 24.9812 195.247 25.0254L195.857 25.2183C195.662 25.2653 195.517 25.2878 195.388 25.3167C195.461 25.3773 195.586 25.44 195.755 25.4999C195.924 25.5598 196.131 25.6154 196.36 25.6623C196.422 25.6719 196.485 25.679 196.545 25.683C196.605 25.6871 196.662 25.688 196.712 25.6858C197.184 25.6197 197.737 25.7365 198.273 25.8469C198.81 25.9574 199.102 26.024 199.498 26.1099L200.256 26.1214C200.448 26.1621 200.619 26.21 200.756 26.2611C200.893 26.3123 200.992 26.3653 201.044 26.4161C201.003 26.4977 200.644 26.453 200.429 26.4614C199.921 26.5122 199.253 26.5013 198.535 26.4307C198.357 26.4046 198.174 26.4257 198.001 26.4282C197.628 26.4383 197.269 26.4548 196.926 26.4777C196.7 26.4989 196.489 26.5252 196.294 26.5563C196.242 26.6602 197.062 26.7404 196.597 26.7917C196.757 26.8152 196.817 26.8479 196.899 26.836C197.427 26.9035 197.946 26.9368 198.398 26.9322C199.265 26.9179 200.249 26.9652 201.27 27.0703C202.373 27.1792 203.43 27.2249 204.355 27.2037C204.707 27.2024 205.101 27.2247 205.507 27.2688C205.985 27.33 206.461 27.3684 206.902 27.3816C207.048 27.3821 207.211 27.3925 207.377 27.412C207.543 27.4315 207.708 27.4595 207.858 27.4938C207.845 27.5198 207.702 27.5387 207.734 27.5513C208.19 27.7456 208.375 27.9479 209.078 28.1464C209.558 28.2167 210.11 28.2975 210.424 28.2042C210.738 28.1109 210.626 28.0307 210.001 27.7918C210.136 27.7884 210.3 27.7995 210.462 27.8234C210.625 27.8472 210.776 27.8821 210.89 27.9221L211.431 28.1009L211.918 28.2718C211.876 28.3571 211.842 28.4239 211.807 28.4944C211.751 28.5692 211.812 28.6603 211.982 28.7549C212.084 28.8065 212.173 28.8582 212.248 28.9094C212.553 29.1141 212.641 29.3077 212.503 29.4683C212.238 29.6992 211.87 29.9116 211.402 30.1032C210.907 30.2895 210.637 30.5246 210.229 30.7277C210.022 30.8202 209.769 30.9031 209.475 30.9755C208.917 31.1366 208.305 31.2898 207.745 31.4546C207.185 31.6194 206.553 31.7378 205.931 31.8736C205.005 32.0348 204.004 32.174 202.933 32.2905C202.271 32.3925 201.591 32.4919 200.978 32.6092C200.254 32.7414 199.404 32.8364 198.449 32.8917C197.605 32.9579 196.851 33.0558 196.202 33.1835C196.134 33.1974 196.08 33.2149 196.042 33.2358C195.925 33.366 195.597 33.4579 195.109 33.4972C195.138 33.5353 195.176 33.5741 195.222 33.6134C195.29 33.6602 195.304 33.7039 195.263 33.739C195.221 33.7741 195.126 33.799 194.99 33.8103C194.599 33.8425 194.274 33.8973 194.03 33.9722C193.94 33.991 193.885 34.0184 193.868 34.052C193.851 34.0856 193.874 34.1244 193.934 34.1651C193.987 34.207 193.991 34.2456 193.945 34.2758C193.899 34.306 193.806 34.3264 193.677 34.3345C193.346 34.3742 192.992 34.4061 192.617 34.43C191.818 34.4828 190.889 34.4822 189.886 34.4282C189.779 34.4125 189.672 34.4366 189.547 34.4183C188.838 34.3578 188.179 34.3484 187.651 34.3913C187.031 34.4081 186.384 34.4048 185.73 34.4126C184.786 34.4073 183.916 34.4392 183.142 34.5072C182.259 34.4415 181.762 34.5558 181.016 34.558C180.327 34.5698 179.674 34.598 179.064 34.6423C178.079 34.7011 177.098 34.7525 176.128 34.8214C175.218 34.8542 174.38 34.9169 173.628 35.0085C173.34 35.0499 172.818 34.9854 172.622 35.0721C172.425 35.1588 172.029 35.1486 171.709 35.1774L170.7 35.2484C170.526 35.2653 170.335 35.276 170.13 35.2804C169.191 35.2862 168.541 35.402 167.67 35.4256L167.581 35.4126C166.033 35.5847 164.263 35.6791 162.321 35.6932C161.187 35.746 159.947 35.7434 158.743 35.7821C158.456 35.8595 157.778 35.7641 157.418 35.8348C157.058 35.9055 156.47 35.8592 156.005 35.8708C155.541 35.8824 155.087 35.9115 154.591 35.9105C154.16 35.9108 153.797 35.9423 153.533 36.0023C152.931 36.1013 152.197 36.1595 151.365 36.1743C150.263 36.2001 149.222 36.2585 148.101 36.2457C148.117 36.3178 148.048 36.3792 147.902 36.4236C147.756 36.4679 147.537 36.4935 147.268 36.4979C146.07 36.5254 144.984 36.5972 143.77 36.6184L143.445 36.6186L139.814 36.66C138.836 36.668 137.893 36.6812 136.896 36.6903C136.522 36.6356 136.513 36.7298 136.255 36.7119C136.182 36.6655 136.097 36.645 135.97 36.6702L135.942 36.7258L131.798 36.7996C130.176 36.8536 128.47 36.8698 126.694 36.848C126.272 36.8535 125.879 36.8719 125.52 36.903C125.187 36.9144 124.84 36.9194 124.481 36.9181C123.995 36.9041 123.521 36.897 123.059 36.8969C121.845 36.9181 120.571 36.9067 119.242 36.8911C117.913 36.8755 116.906 36.9032 115.723 36.9011C114.921 36.8991 114.124 36.8898 113.294 36.8678C112.898 36.8576 112.411 36.8021 112.001 36.7818C111.59 36.7615 111.457 36.7618 111.402 36.7937C111.224 36.883 110.775 36.8253 110.417 36.8166C109.718 36.8017 109.618 36.7712 109.428 36.5404L110.286 36.467C110.497 36.4433 110.761 36.4392 111.054 36.4549C111.348 36.4707 111.66 36.5058 111.96 36.557C112.079 36.5789 112.203 36.5962 112.324 36.6079C112.446 36.6196 112.564 36.6255 112.671 36.6252C113.537 36.6127 114.39 36.5865 115.222 36.565L115.344 36.551L115.352 36.3451C115.242 36.3249 115.128 36.3082 115.014 36.2956L110.84 36.162C109.883 36.1292 108.888 36.0552 107.948 36.025C107.009 35.9948 106.502 35.9763 105.773 35.9451C105.465 35.9274 105.151 35.904 104.834 35.8753C104.852 35.8554 104.863 35.8343 104.865 35.8122C104.882 35.7788 104.904 35.7343 104.769 35.6986C104.622 35.6482 104.426 35.6052 104.219 35.5781C104.024 35.5602 103.836 35.5501 103.661 35.5481C102.814 35.5309 101.848 35.4221 100.967 35.245L100.659 35.3632C99.3362 35.2968 97.9937 35.2316 96.6119 35.1685C96.3353 35.1513 96.0449 35.1183 95.7626 35.0719C95.4601 35.0276 95.1818 34.9351 94.8633 34.8845C94.5487 34.848 94.2362 34.8196 93.9316 34.7997C94.0141 34.7693 94.1229 34.745 94.2544 34.7276C94.3838 34.7214 94.4781 34.7024 94.5236 34.6733C94.5691 34.6442 94.5634 34.6065 94.5074 34.5656C94.4089 34.4954 94.3656 34.4293 94.5799 34.4209C94.7779 34.4049 94.9196 34.3703 94.9882 34.3211C95.0569 34.2719 95.0496 34.2102 94.9673 34.1432C94.9312 34.1041 94.9058 34.0658 94.8911 34.0286L94.8021 34.0155C94.5086 33.877 93.9225 33.8269 93.5018 33.7136C93.3033 33.6807 93.0977 33.6618 92.9175 33.6598C92.4522 33.6355 91.9991 33.6248 91.5179 33.5941C91.2881 33.58 91.0477 33.5543 90.8109 33.5184C90.4728 33.4689 90.4373 33.4637 90.241 33.2837C90.5458 33.2868 90.7875 33.2599 90.9251 33.2075C91.0627 33.1551 91.0879 33.0805 90.9963 32.9962C90.7447 32.812 90.4791 32.6178 89.3414 32.487C89.7123 32.4805 90.0695 32.4677 90.4111 32.4486C90.5105 32.4445 90.5849 32.431 90.6244 32.4098C90.6639 32.3887 90.6665 32.361 90.632 32.3304C90.5975 32.2998 90.5274 32.2678 90.4312 32.2386C90.335 32.2094 90.2173 32.1845 90.0937 32.1672C89.4932 32.063 88.8667 31.9933 88.2845 31.9659C87.794 31.9538 87.3513 31.9606 86.7784 31.9603L86.1023 31.8612C86.1134 31.8389 86.0141 31.8085 86.0393 31.7962C86.2111 31.6821 86.4007 31.5705 86.5959 31.4478C86.2841 31.3815 86.0141 31.3016 85.8166 31.217C85.6191 31.1324 85.5022 31.0467 85.4793 30.9697C85.4625 30.9465 85.4669 30.9253 85.4922 30.9077C85.5176 30.89 85.5632 30.8764 85.6259 30.8678C85.8039 30.8529 85.9413 30.8244 86.0275 30.7846C86.1137 30.7447 86.1464 30.6946 86.123 30.638L85.5972 30.4296C84.014 30.2809 82.4592 30.1746 80.9617 30.1128L79.6099 30.0661C79.4469 30.0103 79.4973 29.9859 79.6508 29.9845C79.8043 29.9831 80.2359 29.9985 80.5373 30.0069C80.7976 30.0178 81.0288 30.0106 81.2085 29.986C81.3881 29.9614 81.5101 29.9202 81.5627 29.8664L81.1088 29.6287C81.1311 29.5842 81.1627 29.5212 81.4089 29.5254C81.5771 29.5202 81.701 29.4978 81.7607 29.4618C81.8203 29.4258 81.8122 29.3782 81.7377 29.3267C81.7263 29.2895 81.7433 29.2556 81.7878 29.2266C82.1519 29.2242 82.5142 29.2255 82.8445 29.2142C82.9984 29.2104 83.1283 29.1966 83.2255 29.1738C83.3226 29.1509 83.3848 29.1195 83.4076 29.0817C83.4195 29.0447 83.3904 29.0027 83.3228 28.9589C83.2551 28.9151 83.1508 28.8708 83.0182 28.8295C82.5004 28.7785 82.0268 28.7778 81.7012 28.8277C81.5851 28.8668 81.3987 28.8881 81.1664 28.8889C80.9341 28.8897 80.6669 28.8699 80.4001 28.8322C80.0946 28.7887 79.7897 28.7695 79.5402 28.7782C79.2908 28.7869 79.1132 28.8229 79.0393 28.8797C78.7257 28.8576 78.4476 28.8408 78.1733 28.8165C77.8497 28.7859 77.5438 28.7769 77.2886 28.7904C76.8804 28.8 76.4406 28.7944 75.9791 28.7738C74.6488 28.7222 73.3166 28.6744 72.0286 28.6529C71.6878 28.6468 71.393 28.6633 71.056 28.6498C70.719 28.6362 70.4524 28.6728 70.0309 28.5991C69.9506 28.5877 69.8698 28.5803 69.7949 28.5776C69.72 28.575 69.653 28.577 69.5993 28.5837C68.8592 28.642 67.9914 28.6502 67.0469 28.6079C65.7532 28.5975 64.4118 28.5682 63.1163 28.5616C62.7364 28.5673 62.3773 28.5826 62.0429 28.6074C61.7884 28.6224 61.5218 28.6325 61.2446 28.6378C61.0321 28.6425 60.8289 28.6286 60.8647 28.7095C60.9006 28.7904 60.5822 28.7398 60.3987 28.7249C59.7682 28.6856 59.1238 28.6325 58.4727 28.5661C57.8311 28.494 57.2026 28.452 56.6245 28.4427C56.207 28.4373 55.7766 28.4578 55.2398 28.3473C55.2602 28.3065 55.2807 28.2657 55.3975 28.2231C54.9598 28.1059 54.4604 28.0051 53.9405 27.9289C53.4207 27.8528 52.8954 27.8035 52.4081 27.7852L51.7362 27.5634C51.5707 27.5373 51.4018 27.5183 51.2397 27.5076C51.0777 27.4969 50.9258 27.4946 50.7933 27.5009C50.691 27.5041 50.5663 27.4959 50.4421 27.4777C50.3179 27.4595 50.2025 27.4325 50.1172 27.4018C49.9896 27.3628 49.8337 27.3291 49.6691 27.305C49.5045 27.2808 49.3385 27.2674 49.1919 27.2663C48.7302 27.2422 48.2374 27.1864 47.7638 27.1049C47.641 27.057 47.564 27.0076 47.5423 26.9627C47.5207 26.9178 47.5555 26.8794 47.6422 26.8521C47.7821 26.8041 47.8606 26.7428 47.8731 26.6721C47.8855 26.6014 47.8316 26.5227 47.7146 26.4407C47.6547 26.3904 47.6347 26.3428 47.6558 26.3007C47.6769 26.2587 47.7386 26.223 47.8373 26.1959C48.2056 26.0707 48.1071 26.0006 47.5045 25.7929C47.4066 25.7582 47.2886 25.7259 47.1579 25.6978C47.0273 25.6698 46.887 25.6467 46.7457 25.6299C46.4143 25.5961 46.0874 25.5709 45.771 25.5548C45.5931 25.5288 45.4106 25.5498 45.2056 25.5397C44.1804 25.489 44.0304 25.4073 43.6984 25.2313L43.4564 25.1043C43.0077 25.0014 42.5169 24.916 42.0194 24.8541C41.522 24.7922 41.0303 24.7555 40.5797 24.7466C40.4006 24.7459 40.1946 24.7283 39.9935 24.6965C39.3389 24.5993 38.676 24.5321 38.0486 24.4992C37.6577 24.4807 37.2363 24.4328 36.8351 24.3613C36.4338 24.2899 36.0697 24.1978 35.7866 24.0962C35.5323 24.0047 35.1996 23.9225 34.8348 23.8612C34.4077 23.7986 34.3682 23.7252 34.6067 23.6685C34.8451 23.6119 35.2445 23.539 35.5991 23.4795C35.7225 23.4592 35.7989 23.4263 35.8199 23.3844C35.8409 23.3425 35.8056 23.2932 35.718 23.2421C35.6618 23.1546 35.652 23.0716 35.689 22.995C35.7088 22.9632 35.6951 22.9267 35.649 22.888C35.6029 22.8493 35.5253 22.8094 35.4216 22.7708C35.3178 22.7322 35.1903 22.6959 35.0476 22.6643C34.9049 22.6327 34.7503 22.6066 34.5943 22.5878C33.9359 22.4913 33.2953 22.3975 32.6239 22.327C32.3425 22.2938 32.0615 22.2526 31.7876 22.2045C31.2269 22.0855 30.6271 21.9868 30.023 21.9141C29.7363 21.8817 29.456 21.8249 29.2428 21.756C28.5702 21.5706 27.9504 21.3757 27.3947 21.1748C27.2608 21.1125 27.0856 21.0517 26.88 20.9962C26.6744 20.9407 26.443 20.8918 26.2001 20.8525C26.0044 20.8238 25.8451 20.7607 25.6942 20.7186C25.5846 20.6214 25.5729 20.5314 25.6602 20.4571C25.7475 20.3829 25.931 20.3268 26.1934 20.2941C26.4423 20.2549 26.6751 20.2094 26.8903 20.1613C27.1496 20.1224 27.4578 20.099 27.8036 20.0921C28.2131 20.0712 28.5159 20.0115 28.6725 19.9208C27.5515 19.7565 26.4855 19.5207 25.5028 19.5758L24.7562 19.4267C24.786 19.3673 24.812 19.3154 24.8361 19.2672C25.0137 19.1794 25.0692 19.0687 24.9978 18.9445C24.939 18.8844 24.9443 18.8297 25.0132 18.786C25.0821 18.7422 25.2121 18.711 25.3901 18.6954C26.4444 18.5353 27.6636 18.4273 28.6523 18.2457C28.9624 18.2116 29.3252 18.1961 29.7258 18.1999C30.1133 18.1889 30.097 18.1069 29.6511 18.0058C29.4008 17.9529 29.1457 17.9023 28.8868 17.854C27.7448 17.846 27.2796 18.0883 25.9764 18.0209L25.3724 17.7015C25.209 17.6965 25.0505 17.6946 24.8978 17.6956L22.7126 17.8254C22.5306 17.8319 22.3889 17.8541 22.3037 17.8895C22.2185 17.9248 22.193 17.972 22.2304 18.0255C22.2452 18.091 22.2151 18.151 22.1412 18.2035C22.0935 18.2403 22.124 18.2891 22.2259 18.3394C22.4557 18.4526 22.1609 18.4692 21.9747 18.4976C21.9271 18.5004 21.8723 18.5001 21.8133 18.4968C21.7543 18.4934 21.6924 18.4871 21.6312 18.4781C21.5699 18.4691 21.5106 18.4577 21.4565 18.4445C21.4025 18.4313 21.3548 18.4166 21.3164 18.4012C20.9883 18.2934 20.7015 18.1797 20.379 18.0608C20.608 17.9471 20.3386 17.7603 20.6958 17.6574C20.7358 17.6368 20.7517 17.6117 20.7428 17.5837C20.7338 17.5557 20.7001 17.5253 20.6437 17.4945C20.4983 17.4148 20.429 17.337 20.4429 17.2692C20.4568 17.2013 20.5533 17.1457 20.7228 17.1079L20.7433 17.0671C20.2963 16.93 20.4147 16.808 20.2391 16.6628L19.8091 16.568C18.7394 16.3396 18.7375 16.3433 17.8165 16.3517C17.6308 16.2648 17.8667 16.2516 18.0436 16.2417L19.525 16.1441C20.4935 16.079 21.4902 16.0339 22.5722 16.0093C23.6541 15.9846 24.8603 15.9026 25.9787 15.8434C26.0352 15.8388 26.0785 15.8298 26.1048 15.817C26.1311 15.8043 26.1398 15.7882 26.13 15.77C26.0856 15.7505 26.0274 15.7316 25.9598 15.7148C25.8922 15.698 25.8168 15.6837 25.7393 15.673C25.3835 15.6209 25.0183 15.5873 24.6391 15.5437L23.9321 15.468L23.7146 15.3684C23.573 15.3079 23.4763 15.234 23.288 15.1905C23.1328 15.158 22.9644 15.1334 22.8002 15.1191C22.636 15.1049 22.4821 15.1016 22.3545 15.1095C22.0008 15.1293 21.6807 15.1581 21.3429 15.1842C21.0051 15.2104 20.8189 15.2389 20.526 15.2517C19.9308 15.2575 19.3557 15.2729 18.803 15.2979C18.3374 15.3568 17.9068 15.4268 17.5139 15.5072C17.2688 15.5389 17.0395 15.577 16.621 15.5356C16.4224 15.4981 16.2511 15.4487 16.1375 15.3964C16.0239 15.344 15.9753 15.292 16.0003 15.2496C16.0228 15.2163 16.0863 15.19 16.185 15.1731C16.2837 15.1562 16.4143 15.1493 16.5644 15.1531C16.9845 15.1469 17.373 15.1264 17.722 15.0917C18.2079 15.029 18.7993 15.0019 19.4618 15.0122C19.6865 15.0212 19.8371 14.9875 20.0336 14.9765C20.2301 14.9655 20.3966 14.9381 20.6157 14.9583C21.2964 15.0102 21.6228 14.9306 22.0307 14.8789C22.1688 14.856 22.2543 14.8189 22.2779 14.7718C22.3016 14.7247 22.2623 14.6693 22.1645 14.6118C21.9762 14.4974 21.7459 14.3822 21.4772 14.2683C21.3389 14.2123 21.1616 14.1591 20.9594 14.1129C20.7573 14.0667 20.5355 14.0287 20.3117 14.002C20.1778 13.9319 20.1064 13.863 20.1038 13.8014C20.1013 13.7399 20.1679 13.6877 20.2974 13.6496C20.6275 13.5626 20.9201 13.474 21.6598 13.5227C22.0075 13.5412 22.3348 13.5448 22.6286 13.5332C23.2802 13.5173 24.0319 13.5521 24.8127 13.6342C25.0147 13.6552 25.2133 13.6696 25.4026 13.6768C26.7525 13.7273 28.0387 13.7525 29.3286 13.7702C30.0119 13.7787 30.7008 13.7762 31.4142 13.801C33.0871 13.855 34.6099 13.8273 36.2246 13.8448C37.0703 13.8539 37.8272 13.8175 38.4557 13.7377C38.5781 13.711 38.6832 13.6797 38.7698 13.6444C38.3533 13.5516 37.8959 13.4782 37.4412 13.4311C36.9865 13.3841 36.55 13.3649 36.1733 13.3755C35.9662 13.4014 35.6985 13.4062 35.4001 13.3892C35.1017 13.3722 34.7844 13.3341 34.4834 13.2792L35.3585 13.2482C35.9388 13.2336 36.5331 13.2291 37.0975 13.2083C37.994 13.1724 38.825 13.115 39.7534 13.0917C40.503 13.0704 41.1738 13.0157 41.7447 12.9296C42.1572 12.8667 42.6282 12.8222 43.1483 12.7968C43.518 12.7833 43.518 12.7833 43.7543 12.6547C43.5668 12.5714 43.3243 12.5598 43.0959 12.5582C41.7266 12.5059 40.4236 12.4967 39.2132 12.5309C38.6025 12.5339 38.0607 12.5692 37.6139 12.635C37.5045 12.6628 37.2246 12.6496 36.9999 12.6406C36.2955 12.6269 35.6224 12.6309 34.9884 12.6525C34.1119 12.6886 33.1358 12.68 32.0978 12.6272C31.901 12.5625 32.1276 12.5678 32.1387 12.5456C32.9426 12.5041 33.7306 12.4563 34.5504 12.4211C34.7745 12.4086 35.0141 12.4024 35.2664 12.4026C36.2084 12.4244 36.9933 12.364 37.5113 12.2298C37.5373 12.1779 37.8781 12.184 38.0287 12.1503C38.1027 12.1212 38.1521 12.0868 38.1752 12.0484C37.9558 11.9525 37.7078 11.952 37.5168 11.9519C36.9627 11.9626 36.4297 11.9829 35.9202 12.0126C35.4467 12.041 34.9224 12.0485 34.3618 12.0352C33.948 12.0223 33.5943 12.0422 33.1768 12.0367C32.9503 12.0253 32.7159 12.007 32.4783 11.9822C32.7429 11.9154 33.1025 11.8743 33.5319 11.8618C33.8575 11.8219 34.2646 11.8099 34.3166 11.7061C34.1628 11.6318 33.9915 11.6306 33.854 11.6383C33.5676 11.638 33.291 11.6427 33.0256 11.6523C32.4629 11.6734 31.8537 11.6737 31.2107 11.6532C30.8721 11.6455 30.5508 11.6478 30.2522 11.6601C29.5755 11.6764 28.927 11.7128 28.3074 11.7295C27.0382 11.7466 25.8806 11.808 24.6611 11.8403C24.3896 11.8483 24.1463 11.8764 23.7886 11.828C23.4309 11.7795 23.4149 11.7732 23.3727 11.7432C23.2726 11.693 23.2423 11.6443 23.288 11.6073C23.3589 11.5728 23.4972 11.5535 23.6781 11.553C24.7683 11.498 25.8023 11.4207 26.7737 11.3217C27.2011 11.3019 27.5757 11.2614 27.8843 11.2017C28.129 11.1606 28.4193 11.1334 28.746 11.1209C29.2213 11.0912 29.7167 11.0694 30.2303 11.0557C30.4693 11.0483 30.6725 11.0263 30.828 10.991C30.9835 10.9556 31.0881 10.9077 31.1356 10.8499L30.506 10.6581C30.407 10.6492 30.3089 10.6415 30.212 10.635L24.9857 10.7731L24.4681 10.7769C23.9008 10.7655 23.7622 10.7372 23.2241 10.515C24.4521 10.4628 25.4175 10.3104 26.024 10.0732C25.8782 10.0477 25.7288 10.0258 25.5791 10.0081C24.5977 9.95194 23.67 9.93703 22.8317 9.96389C22.3338 9.96659 21.8218 9.95926 21.3079 9.95565C21.4582 9.84628 22.0339 9.87887 22.4092 9.85421C23.3058 9.81563 24.0987 9.73594 24.7624 9.61768C24.9913 9.57158 25.2776 9.54209 25.6083 9.53058C25.9392 9.52662 26.2156 9.49871 26.4135 9.44929C26.6113 9.39986 26.7246 9.33042 26.7435 9.247C26.7747 9.17148 26.8419 9.10129 26.944 9.0375C26.7633 8.94699 26.4763 8.86031 26.1369 8.79373C25.7975 8.72715 25.429 8.68525 25.1006 8.67588C24.3996 8.63862 23.6725 8.5776 22.9377 8.4944C22.5718 8.45244 22.2129 8.42835 21.8844 8.42371C21.5948 8.42014 21.2656 8.38983 20.947 8.33741C20.6284 8.28499 20.3379 8.21333 20.1199 8.13337C19.8256 8.03452 19.551 7.93456 19.2763 7.83461C19.0017 7.73467 18.6831 7.60836 18.3625 7.48575C18.0798 7.46658 17.8046 7.45425 17.5405 7.44895C17.3351 7.45344 17.0953 7.44007 16.8496 7.41042C16.6038 7.38077 16.3623 7.33608 16.1536 7.28161C16.276 7.22788 16.4144 7.18047 16.5602 7.11822C16.3601 7.03602 16.215 6.95219 16.1338 6.87184C16.0525 6.79149 16.0368 6.7163 16.0877 6.65087C16.1174 6.59152 15.8999 6.49197 15.8247 6.41328C15.7279 6.34544 15.7098 6.28213 15.7725 6.23165C15.8353 6.18117 15.9762 6.14588 16.1766 6.1304C16.4251 6.10183 16.6274 6.05881 16.7752 6.0031C16.824 5.98863 16.8489 5.96883 16.8475 5.94549C16.8461 5.92215 16.8185 5.89602 16.7672 5.8695C16.7159 5.84297 16.6425 5.81689 16.5538 5.79365C16.4651 5.7704 16.3639 5.75073 16.2594 5.73643C15.9393 5.6959 15.6214 5.66963 15.324 5.65913C14.8116 5.6398 14.3211 5.62767 13.8524 5.62271C13.3341 5.61526 12.7575 5.56925 12.1811 5.48935C11.6651 5.41376 11.2024 5.34598 10.9501 5.20153C10.6978 5.05707 10.2944 5.06167 9.98416 4.95651C10.1584 4.86171 10.4681 4.79585 10.8821 4.76556C11.1529 4.75475 11.379 4.72637 11.5459 4.68225C11.7127 4.63813 11.8166 4.57924 11.8509 4.50935L10.9091 4.21612C10.1569 4.07807 9.74079 4.18432 8.92811 4.12897L9.76547 4.02072C9.78229 4.01002 9.78859 3.99746 9.78405 3.98363C9.70275 3.76469 9.5734 3.71787 8.71743 3.59646L8.23701 3.52608L7.47662 3.44256C7.35484 3.39769 7.27063 3.3509 7.23236 3.30687C7.19409 3.26284 7.20311 3.2231 7.25856 3.19165C7.36996 3.13874 7.40383 3.07114 7.35706 2.99507C7.28331 2.94467 7.27723 2.89821 7.33985 2.86375C7.40247 2.82929 7.52986 2.809 7.6999 2.80641C7.83561 2.80241 7.84568 2.74416 7.91951 2.71118C7.99286 2.66573 8.11842 2.63085 8.28761 2.60892C8.4568 2.58699 8.66563 2.57851 8.89996 2.58408C9.59084 2.58863 10.2399 2.57157 10.8355 2.5332L10.7287 2.51756C11.3496 2.55125 11.93 2.55533 12.4417 2.52962C12.9545 2.49725 13.6126 2.51801 14.1573 2.49827C14.6008 2.5028 14.9384 2.458 15.0985 2.37339C15.2536 2.29259 15.8171 2.31145 16.2487 2.32689C16.5044 2.33688 16.7514 2.34111 16.9873 2.33954C17.3039 2.32125 17.6998 2.33849 18.1089 2.38838C18.2316 2.40372 18.3525 2.41183 18.46 2.41195C19.5 2.43292 20.5381 2.45759 21.564 2.46854C21.8008 2.46223 22.0785 2.47667 22.3644 2.51015C22.4846 2.52469 22.6016 2.53071 22.6997 2.5274C24.3207 2.49415 26.15 2.57899 27.7392 2.53311C27.9318 2.52227 28.1451 2.52002 28.3729 2.52641C28.8849 2.55336 29.3295 2.53601 29.6392 2.47701C29.8063 2.44562 30.0205 2.42833 30.2682 2.42622C30.5159 2.42412 30.7916 2.43726 31.0778 2.4648C31.554 2.50127 31.9942 2.50522 32.3517 2.47625C33.049 2.44948 33.7822 2.43848 34.5457 2.44331C34.7796 2.448 34.9853 2.4376 35.1467 2.41291C35.3081 2.38823 35.4209 2.34993 35.4765 2.30098C35.289 2.21777 35.084 2.20765 34.8893 2.21496C34.1348 2.196 33.3821 2.17333 32.6417 2.1644C31.979 2.13887 31.3431 2.13107 30.7434 2.1411C30.4456 2.15242 30.074 2.12661 29.7097 2.06931C29.2633 1.99674 28.8035 1.96068 28.4232 1.96844C28.1413 1.97036 27.8438 1.96411 27.5349 1.94977C27.3372 1.93249 27.1345 1.9028 26.9477 1.86376C26.8736 1.8468 26.7929 1.83254 26.7108 1.8219C26.6287 1.81125 26.5471 1.80446 26.4711 1.80194C26.3951 1.79942 26.3263 1.80123 26.2692 1.80726C26.2122 1.81329 26.1682 1.82342 26.1398 1.83698C25.8538 1.95035 25.2143 1.89249 24.6667 1.87995C23.846 1.68807 23.2352 1.80164 22.4682 1.69326C22.4076 1.68608 22.3478 1.68172 22.2926 1.68048C22.2374 1.67924 22.1879 1.68113 22.1471 1.68604C20.6628 1.75127 18.9328 1.6969 17.3744 1.71943C17.2026 1.72272 17.0031 1.71143 16.7987 1.68684C15.4627 1.52408 14.1782 1.47787 13.1963 1.55726C13.0769 1.56441 12.941 1.56471 12.7948 1.55815C12.1235 1.49347 11.4815 1.46768 10.9225 1.48294C10.0463 1.47801 9.20392 1.482 8.3137 1.46705C7.70005 1.44577 7.16171 1.46851 6.75262 1.53298C6.73961 1.55894 6.46711 1.53096 6.25836 1.52825C6.13831 1.46289 6.03423 1.40385 5.91046 1.34591C5.79982 1.27422 5.63408 1.20168 5.42453 1.1332C5.21498 1.06472 4.96654 1.00191 4.69593 0.949017C4.23329 0.881243 4.18702 0.782894 4.51075 0.746712C5.34517 0.627003 6.39441 0.578007 7.58134 0.60332C8.57354 0.605344 9.58356 0.609978 10.5898 0.622026C11.1768 0.632362 11.7955 0.65532 12.3665 0.659341C12.5592 0.668173 12.7571 0.681189 12.9582 0.69825C13.205 0.722987 13.4446 0.736463 13.6641 0.737961C14.3691 0.717129 15.1557 0.735276 15.9866 0.791536C16.291 0.803805 16.5832 0.807938 16.8591 0.80388C17.5115 0.788609 18.2189 0.799846 18.9624 0.837298C19.4245 0.858416 19.8726 0.869459 20.302 0.870307C20.4537 0.872616 20.5772 0.854875 20.7232 0.86831C22.0089 1.00888 22.9193 0.907346 24.0764 0.961399C24.6388 0.976471 25.1761 0.976513 25.6808 0.961528C26.6656 0.962253 27.6779 0.977664 28.7137 1.0077C30.0833 1.05704 31.3524 1.03992 32.6601 1.0603C32.9183 1.06458 33.1676 1.06385 33.4062 1.05811C34.5667 1.02019 35.8272 1.02823 37.1569 1.08203C37.4589 1.08981 37.73 1.0803 37.9535 1.05412C38.177 1.02794 38.3479 0.985647 38.4555 0.929882C38.5011 0.891611 38.4716 0.841902 38.3727 0.790344C38.2085 0.724498 38.0232 0.659985 37.8197 0.597864L30.4178 0.389413C30.1069 0.378529 29.8037 0.372669 29.5098 0.371857C28.6453 0.370046 27.7542 0.35383 26.841 0.32329C25.9385 0.294603 25.0765 0.299696 24.2022 0.291059C23.9446 0.288166 23.6803 0.281339 23.4102 0.270598C21.5848 0.185597 19.8048 0.133678 18.0827 0.115217C17.3582 0.112598 16.5756 0.0735871 15.837 0.060942C15.0984 0.048297 14.0884 0.0436675 13.2123 0.0387397L10.4997 0.0394968C9.96615 0.0369808 9.44667 0.0444873 8.92906 0.0482869C8.30093 -0.222888 8.08447 -0.286449 7.24629 -0.405255C6.95954 -0.449079 6.66787 -0.475232 6.40548 -0.480652C5.57343 -0.459215 4.52942 -0.548451 3.74039 -0.536636C3.26428 -0.542464 2.86028 -0.512339 2.56975 -0.449344C2.31755 -0.399907 2.02915 -0.360787 1.70901 -0.332579C0.832037 -0.564562 0.75475 -0.715229 1.41443 -0.773861C1.59317 -0.78749 1.83935 -0.783275 1.96842 -0.812142C2.04248 -0.829723 2.14364 -0.839779 2.26386 -0.841516C2.38407 -0.843254 2.52001 -0.836629 2.66102 -0.822158C3.10603 -0.784195 3.52314 -0.775266 3.87049 -0.79627C4.19738 -0.824067 4.59808 -0.822959 5.03395 -0.793044C5.35425 -0.746124 5.63577 -0.812376 5.91276 -0.831518C6.18976 -0.85066 6.41707 -0.885045 6.8497 -0.833611C6.92893 -0.823371 7.00758 -0.817223 7.07963 -0.815639C7.15167 -0.814056 7.2152 -0.817081 7.26534 -0.824481C7.73 -0.857605 8.28449 -0.854126 8.88377 -0.814324C9.80292 -0.775158 10.6653 -0.773688 11.441 -0.809967C11.9054 -0.841711 12.3013 -0.898004 12.6133 -0.976652C12.6983 -1.00295 12.8246 -1.01873 12.98 -1.02246C13.7605 -1.00605 14.6079 -0.94429 15.4677 -0.841168C15.7916 -0.799849 16.1151 -0.767164 16.4312 -0.743812C17.081 -0.691937 17.7095 -0.66287 18.298 -0.657467C19.1532 -0.656611 20.0435 -0.636652 20.9612 -0.597772C21.5275 -0.576123 22.0732 -0.568131 22.5918 -0.573887C23.1249 -0.576601 23.694 -0.560086 24.2863 -0.52473C24.8753 -0.495918 25.3943 -0.512519 25.7809 -0.572523C25.9082 -0.604858 26.0107 -0.643254 26.0866 -0.686995C25.2241 -0.82933 24.3322 -0.901668 23.5904 -0.88944C23.3086 -0.898868 23.0746 -0.88935 22.7777 -0.944791L22.7684 -0.926246C22.7093 -0.914213 22.6202 -0.911374 22.5179 -0.918272C22.4157 -0.925168 22.3076 -0.941317 22.2141 -0.963644C22.2494 -1.03412 22.2829 -1.10088 22.3071 -1.1491C22.8723 -1.14059 23.4211 -1.14128 23.9507 -1.15117C24.3972 -1.16539 25.0032 -1.04078 25.3896 -1.08769C26.1433 -1.02903 26.6232 -1.11002 27.2991 -1.08665C27.975 -1.06328 28.7195 -0.986077 29.3954 -0.962708C29.9851 -0.949883 30.5578 -0.947096 31.1102 -0.954358C31.3008 -0.964551 31.5206 -0.962161 31.7561 -0.947331C32.087 -0.919428 32.3949 -0.914753 32.6443 -0.933842C32.8937 -0.952933 33.0746 -0.995019 33.1662 -1.05527C33.0799 -1.11171 32.9636 -1.18449 32.8295 -1.25987C33.0762 -1.32182 33.451 -1.3479 33.8981 -1.33424L34.53 -1.33723C34.6974 -1.3356 34.8254 -1.35234 34.8875 -1.38401C34.9495 -1.41567 34.941 -1.45982 34.8635 -1.50734C33.6655 -1.74655 33.6213 -1.77292 32.742 -1.61906L31.5745 -1.69055L31.5942 -1.69165ZM47.3855 -1.03456L47.2966 -1.04759L47.3855 -1.03456ZM192.879 24.4156L192.858 24.4564L192.88 24.4119L193.076 24.4406L193.089 24.4146L192.879 24.4156ZM164.46 6.53299C164.183 6.48848 163.904 6.44756 163.623 6.41047C163.55 6.40472 163.481 6.40342 163.423 6.40669C163.365 6.40995 163.319 6.41768 163.289 6.42921C163.267 6.47372 163.423 6.5046 163.566 6.52545C163.745 6.55352 163.929 6.57136 164.097 6.57712C164.265 6.58289 164.413 6.57638 164.524 6.55825L164.684 6.54201L164.46 6.53299ZM21.9612 17.3809C22.1434 17.3884 22.3161 17.3896 22.4752 17.3845C23.1808 17.3486 23.8564 17.2962 24.5798 17.2629C25.4926 17.1782 26.5415 17.1437 27.6871 17.1607C28.1346 17.169 28.5127 17.1415 28.7773 17.0815C28.9356 17.0493 29.14 17.0305 29.378 17.0262L32.4066 16.9284C32.5938 16.9081 32.7557 16.8797 32.8884 16.8437C32.6214 16.8046 32.4435 16.7785 32.3367 16.7629C32.1152 16.7585 31.9248 16.7704 31.7846 16.7975C31.634 16.8433 31.3795 16.8614 31.0715 16.8483C30.7606 16.8374 30.4575 16.8315 30.1635 16.8307C29.6085 16.833 29.0497 16.8427 28.4928 16.8487C28.2761 16.9762 27.6365 16.9184 27.0889 16.9058L26.6659 16.9115C25.283 16.9776 23.962 17.0686 22.7093 17.1839C22.4672 17.2034 22.2587 17.2346 22.09 17.2764C22.0265 17.309 22.0062 17.3496 22.0306 17.395L21.9416 17.382L21.9612 17.3809ZM83.7154 29.5727C84.0509 29.5813 84.4003 29.5992 84.7583 29.6259C85.0342 29.6532 85.3034 29.6698 85.5551 29.6749C86.9656 29.7035 88.4354 29.7695 89.9448 29.8721C90.1422 29.8876 90.3318 29.8953 90.5066 29.8947L91.742 29.8686C92.1313 29.854 92.1388 29.8392 91.8554 29.6424C91.6201 29.6042 91.3823 29.5693 91.1436 29.5381C91.0012 29.5173 90.77 29.4834 90.7158 29.5152C90.3857 29.6023 89.7836 29.5459 89.2772 29.5274C87.8112 29.4799 86.2992 29.4097 84.8191 29.3521C84.5062 29.3381 84.2031 29.331 83.913 29.3309C83.7329 29.3279 83.5687 29.3335 83.4272 29.3473C83.3859 29.3487 83.3513 29.3528 83.3257 29.3594C83.3001 29.3659 83.2841 29.3748 83.2789 29.3853C83.2736 29.3958 83.2792 29.4078 83.2951 29.4204C83.3111 29.4331 83.3371 29.4461 83.3715 29.4586C83.4926 29.5024 83.6325 29.5443 83.7866 29.5831L83.7154 29.5727ZM94.4546 1.01151L95.8988 0.988175C96.072 0.985672 96.2188 0.959411 96.4042 0.970642C97.3931 1.00624 98.3087 0.996321 99.1121 0.941321C99.3856 0.918876 99.7056 0.914388 100.055 0.928105C101.123 0.968749 102.131 0.970421 103.051 0.933073C103.645 0.925578 104.202 0.900403 104.712 0.857922C104.751 0.848061 104.776 0.834673 104.784 0.818671C104.792 0.802669 104.783 0.784429 104.758 0.765196C104.752 0.753046 104.735 0.739973 104.707 0.726884C104.68 0.713794 104.643 0.700992 104.6 0.689368C104.557 0.677743 104.508 0.667571 104.457 0.659546C104.406 0.651521 104.354 0.645833 104.304 0.642883C103.66 0.585381 103.048 0.565349 102.519 0.584412C102.028 0.607222 101.5 0.613896 100.943 0.60433C100.409 0.601815 100.047 0.67619 99.3879 0.619439C99.1091 0.600751 98.8631 0.606903 98.6916 0.636866C98.3462 0.686528 97.8644 0.68929 97.3316 0.644661C97.0128 0.622075 96.7081 0.612388 96.4291 0.615972C95.7524 0.6323 95.1057 0.664967 94.4787 0.696533C94.2811 0.703834 94.0695 0.704843 93.8469 0.699533L90.7073 0.637723C89.9528 0.618763 89.2001 0.596093 88.4597 0.587159C87.8541 0.567756 87.2906 0.573832 86.7889 0.605172C86.2541 0.638113 85.6708 0.651487 85.05 0.64504C84.0859 0.663065 83.1274 0.669961 82.0781 0.667536C81.4089 0.669028 80.7237 0.664206 80.0244 0.649357C79.6707 0.630246 79.3704 0.64581 79.1812 0.693051C79.0663 0.731944 78.7956 0.700259 78.5709 0.691233C77.3725 0.604237 76.2486 0.583623 75.2778 0.630828C75.1538 0.63852 75.0177 0.641305 74.8725 0.639134C73.9374 0.637514 72.9685 0.626969 72.0709 0.626853C71.8346 0.63052 71.6122 0.640583 71.4064 0.656916C71.4285 0.683562 71.4913 0.712442 71.5818 0.737567C71.6724 0.762691 71.7837 0.782133 71.8927 0.791857C72.7417 0.866298 73.5615 0.905624 74.3175 0.908182C75.5759 0.898699 76.8942 0.92002 78.2584 0.971914C79.317 1.02423 80.2822 1.01322 81.0823 0.939687C81.7077 0.884823 82.5212 0.905466 83.3833 0.998073C83.7521 1.0423 84.1102 1.05999 84.4084 1.04871C84.6954 1.03392 85.0248 1.03751 85.3772 1.05926C86.1202 1.10062 86.8348 1.1198 87.5069 1.11644C88.1639 1.10121 88.7769 1.05962 89.4517 1.047C90.1265 1.03439 91.1543 1.04162 91.9863 1.02018C92.8184 0.998741 93.6412 0.995853 94.4546 1.01151ZM34.612 -1.15799C34.6883 -1.04331 34.9582 -0.971928 35.2484 -0.941348C36.2492 -0.805563 37.2386 -0.747782 38.0505 -0.777702C38.4891 -0.819435 39.0738 -0.803371 39.6897 -0.732663C40.4068 -0.659162 41.0771 -0.646972 41.5824 -0.698244C41.7062 -0.707202 41.801 -0.726141 41.8584 -0.753372C41.8695 -0.775626 41.89 -0.816425 41.8937 -0.823843C41.8406 -0.842656 41.7755 -0.860087 41.7034 -0.874792C41.6313 -0.889498 41.5541 -0.901083 41.4778 -0.908655L38.1629 -1.03994L37.5852 -1.06882C36.5301 -1.14451 35.5246 -1.17466 34.612 -1.15799ZM41.1325 0.65717C41.6499 0.844438 41.6517 0.84072 41.9168 0.883529C43.1955 1.06135 44.4733 1.15733 45.5983 1.16007C45.8483 1.15953 46.0605 1.14145 46.2168 1.10736C46.2973 1.10274 46.3485 1.08806 46.3593 1.06652C46.3701 1.04498 46.3396 1.01833 46.2744 0.992382L45.863 0.860453C45.1159 0.803337 44.3795 0.757955 43.6582 0.724579C42.8184 0.685167 42.0742 0.683645 41.2037 0.667591L41.1325 0.65717ZM83.6534 28.7434C84.1355 29.0012 84.1373 28.9975 84.9444 29.0639C85.5069 29.111 86.0524 29.1387 86.565 29.1461C87.1912 29.1542 87.8334 29.1686 88.4578 29.1805C88.6102 29.1887 88.7395 29.1819 88.8203 29.1614C88.9012 29.1408 88.928 29.1081 88.8954 29.0694C88.8135 29.0275 88.6853 28.9869 88.5318 28.9543C88.3782 28.9217 88.2082 28.8989 88.0495 28.8898L87.7088 28.8836C87.295 28.8708 86.8653 28.8516 86.4656 28.8488C86.2063 28.8595 85.9058 28.8513 85.5878 28.8247C85.2697 28.7981 84.9426 28.754 84.6323 28.6957L83.6534 28.7434ZM43.7068 -0.821C43.8355 -0.776365 43.9811 -0.733614 44.1397 -0.693886C44.7537 -0.583772 45.4035 -0.52123 45.9618 -0.518524C46.2258 -0.511702 46.4672 -0.536058 46.736 -0.500666C47.2181 -0.453373 47.6852 -0.42818 48.1123 -0.426453C48.1123 -0.426453 48.232 -0.43678 48.2713 -0.438985L48.3531 -0.602182C48.1509 -0.639989 47.9401 -0.670875 47.7303 -0.693418C47.0262 -0.736837 46.3344 -0.766521 45.6444 -0.799915C44.9545 -0.833309 44.7139 -0.848649 44.2626 -0.862993C44.0614 -0.855108 43.8752 -0.841042 43.7068 -0.821ZM28.4603 19.4676L29.3816 19.8017C29.6798 19.8307 29.9583 19.836 30.1748 19.8167C30.3914 19.7973 30.534 19.7545 30.5812 19.6947C30.657 19.6667 30.6646 19.6253 30.6023 19.579C30.54 19.5328 30.4127 19.4854 30.247 19.4467C30.0876 19.4009 29.9056 19.3598 29.7122 19.326C29.5189 19.2922 29.3184 19.2664 29.1231 19.2502L28.4603 19.4676ZM36.1314 17.8045C35.5288 17.7479 34.9525 17.7247 34.4464 17.7368C34.1275 17.77 33.6955 17.7594 33.2388 17.7072C32.4083 17.6033 31.6078 17.5745 31.0061 17.627C31.0061 17.627 30.9837 17.6715 30.8818 17.6844C30.7798 17.6973 31.1843 17.7287 31.2732 17.7418C31.9258 17.7737 32.582 17.7981 33.1493 17.8096C33.5015 17.8091 33.874 17.8196 34.2604 17.841C34.7922 17.8739 35.2964 17.8846 35.7535 17.8726C35.7535 17.8726 35.9304 17.8626 36.1296 17.8082L36.1314 17.8045ZM100.488 0.406336C100.2 0.343427 99.8879 0.292298 99.5749 0.256788C99.2619 0.22128 98.9562 0.202312 98.6806 0.201302C98.4696 0.198019 98.2988 0.214628 98.1954 0.248504C98.0919 0.28238 98.0617 0.331588 98.1094 0.388349C98.3229 0.419629 98.6076 0.461335 98.7678 0.484795C99.3228 0.4825 99.7963 0.452335 100.488 0.406336ZM154.368 5.70759C154.137 5.65694 153.883 5.61822 153.634 5.59585C153.385 5.57347 153.152 5.56835 152.961 5.58105C152.863 5.58656 152.929 5.64411 152.913 5.67749C152.902 5.68506 152.902 5.69447 152.913 5.70474C152.924 5.71501 152.946 5.72577 152.976 5.73588C153.006 5.74598 153.043 5.75507 153.084 5.76219C153.125 5.76931 153.167 5.77419 153.207 5.77633C153.457 5.79815 153.694 5.80464 153.895 5.79523C154.097 5.78583 154.257 5.76081 154.361 5.72242L154.368 5.70759ZM157.978 6.43152C157.943 6.40163 157.867 6.37049 157.764 6.34379C157.662 6.31709 157.54 6.29663 157.421 6.28616C157.21 6.28475 157.019 6.29303 156.855 6.3107C156.676 6.32433 156.804 6.41085 157.046 6.46218C157.149 6.48279 157.258 6.49886 157.366 6.50912C157.473 6.51938 157.576 6.52354 157.666 6.52129C157.757 6.51903 157.831 6.51041 157.885 6.49612C157.938 6.48182 157.969 6.46224 157.975 6.43894L157.978 6.43152ZM53.0785 -0.503154C52.5399 -0.609925 52.1254 -0.583065 51.6694 -0.625978C51.2134 -0.668891 51.101 -0.673406 51.1621 -0.604737C51.2232 -0.536068 51.5358 -0.549994 51.7315 -0.52132C51.996 -0.483272 52.262 -0.461426 52.4999 -0.458217C52.7378 -0.455008 52.9382 -0.470567 53.0785 -0.503154ZM165.313 17.5627C165.027 17.5387 164.748 17.5218 164.479 17.5121C164.443 17.5221 164.421 17.5351 164.413 17.5504C164.406 17.5656 164.413 17.5829 164.434 17.6012C164.434 17.6012 164.617 17.6558 164.723 17.6714C165.117 17.7251 165.136 17.6483 165.313 17.5627ZM205.634 27.5104C205.827 27.5825 205.917 27.6315 206.072 27.6661C206.143 27.6781 206.216 27.6869 206.286 27.6916C206.357 27.6964 206.422 27.6972 206.478 27.6938C206.546 27.673 206.562 27.6413 206.523 27.6048C206.523 27.6048 206.326 27.5401 206.251 27.5371C206.037 27.5218 205.83 27.5129 205.634 27.5104ZM43.9107 -1.11361C43.5015 -1.17357 43.11 -1.23092 42.8266 -1.16095C43.4765 -1.08566 43.4765 -1.08565 43.9107 -1.11361ZM50.5394 -0.429219C50.1261 -0.55744 49.8836 -0.569077 49.6852 -0.554344C49.6431 -0.550633 49.6152 -0.542362 49.6057 -0.530788C49.5963 -0.519214 49.6059 -0.504964 49.633 -0.490193C49.6602 -0.475422 49.7033 -0.460936 49.7561 -0.448924C49.8088 -0.436912 49.8682 -0.428028 49.9253 -0.423619C50.1408 -0.419927 50.3464 -0.421801 50.5394 -0.429219ZM71.8089 -0.375C71.8182 -0.393546 71.8293 -0.415799 71.7226 -0.431439C71.6946 -0.439379 71.6618 -0.446207 71.6275 -0.45124C71.5931 -0.456273 71.5584 -0.45933 71.5269 -0.460109C71.5269 -0.460109 71.5157 -0.437854 71.5083 -0.423017L71.8089 -0.375ZM86.579 30.4142L86.3413 30.4311L86.4481 30.4467L86.7298 30.4562L86.579 30.4142ZM170.271 6.14214C170.182 6.12911 170.093 6.11607 170.08 6.14203C170.061 6.14606 170.05 6.15186 170.046 6.15896C170.043 6.16605 170.047 6.17424 170.06 6.18283C170.06 6.18283 170.184 6.20108 170.238 6.2089L170.271 6.14214ZM156.415 6.34979C156.356 6.3483 156.304 6.35004 156.26 6.3549L156.248 6.37716L156.426 6.40323L156.415 6.34979ZM35.6615 11.6523C35.5928 11.6387 35.5199 11.6281 35.448 11.621L35.359 11.6079C35.359 11.6079 35.4546 11.6458 35.508 11.6537C35.5613 11.6615 35.6044 11.6519 35.6615 11.6523Z" fill="#F54748"/>
</svg>
